<svg width="380" height="228" viewBox="0 0 380 228" fill="none" xmlns="http://www.w3.org/2000/svg">
<rect width="380" height="228" fill="#E5E5E5"/>
<g clip-path="url(#clip0)">
<rect width="1440" height="3267" transform="translate(-245 -1656)" fill="white"/>
<rect x="-245" y="-107" width="1440" height="441" fill="white"/>
<path fill-rule="evenodd" clip-rule="evenodd" d="M171.7 192.536C149.512 198.101 111.263 200.394 62.515 200.789C17.2763 201.44 -0.777483 205.857 0.0255697 213.171C5.46848 224.455 80.3606 229.235 208.73 227.715C314.703 226.557 363.987 219.071 378.055 207.108C399.381 186.542 239.752 175.737 171.7 192.536Z" fill="url(#paint0_linear)"/>
<path opacity="0.1" d="M85.1973 37.2471H264.257V203.058H85.1973V37.2471Z" fill="#7BD53D"/>
<path d="M349.661 205.562V190.709H342.482L346.789 205.562H349.661Z" fill="#292678"/>
<path d="M322.032 205.562V190.709H329.567L325.044 205.562H322.032Z" fill="#292678"/>
<path d="M350.412 131.227C350.232 118.192 350.873 107.112 351.564 99.2603C351.914 95.2835 352.276 92.1344 352.552 89.9783C352.69 88.9003 352.805 88.0704 352.887 87.5095C352.912 87.3357 352.934 87.1877 352.953 87.0661L339.383 82.2324H328.348L313.783 88.7195L315.562 131.227H350.412Z" fill="white" stroke="black"/>
<path d="M351.334 109.645L351.833 109.668L351.763 111.235L350.913 109.916L342.062 96.1705L342.061 96.1703L340.655 93.9829L333.969 95.8433C334.138 96.7031 334.365 97.6572 334.645 98.6654L334.645 98.6671C334.931 99.7125 335.269 100.83 335.658 101.987L335.658 101.988C337.562 107.67 340.588 114.299 343.882 118.813C345.535 121.077 347.217 122.755 348.814 123.545C349.605 123.936 350.356 124.099 351.065 124.028C351.77 123.956 352.477 123.649 353.177 123.024L353.177 123.024C356.791 119.807 358.64 114.43 359.571 109.042C360.499 103.673 360.5 98.4013 360.5 95.4847C360.5 92.7988 358.775 90.74 356.948 89.3168C356.042 88.6112 355.133 88.0799 354.45 87.7248C354.228 87.6095 354.03 87.5131 353.865 87.4357C353.236 90.4446 352.739 95.7248 352.393 100.413C352.209 102.909 352.069 105.223 351.975 106.913C351.928 107.758 351.893 108.447 351.869 108.925C351.857 109.164 351.848 109.35 351.842 109.476L351.836 109.619L351.834 109.656L351.833 109.665L351.833 109.667L351.833 109.668C351.833 109.668 351.833 109.668 351.334 109.645Z" fill="white" stroke="black"/>
<path d="M338.031 115.303L338.031 115.303L314.258 113.386L313.817 113.35L313.798 112.908L312.819 89.452C312.719 89.5446 312.609 89.6478 312.492 89.7618C311.818 90.4192 310.888 91.4375 309.884 92.8684C307.877 95.7283 305.566 100.243 304.406 106.833C303.247 113.421 304.43 117.267 306.878 119.493C309.363 121.752 313.289 122.483 317.947 122.483H338.071H338.082H338.094H338.106H338.117H338.129H338.14H338.152H338.164H338.175H338.187H338.198H338.21H338.221H338.232H338.244H338.255H338.267H338.278H338.289H338.301H338.312H338.323H338.335H338.346H338.357H338.369H338.38H338.391H338.402H338.413H338.424H338.436H338.447H338.458H338.469H338.48H338.491H338.502H338.513H338.524H338.535H338.546H338.557H338.568H338.579H338.59H338.601H338.612H338.622H338.633H338.644H338.655H338.666H338.677H338.687H338.698H338.709H338.719H338.73H338.741H338.751H338.762H338.773H338.783H338.794H338.804H338.815H338.825H338.836H338.846H338.857H338.867H338.878H338.888H338.899H338.909H338.919H338.93H338.94H338.95H338.961H338.971H338.981H338.991H339.001H339.012H339.022H339.032H339.042H339.052H339.062H339.072H339.083H339.093H339.103H339.113H339.123H339.133H339.143H339.152H339.162H339.172H339.182H339.192H339.202H339.212H339.221H339.231H339.241H339.251H339.261H339.27H339.28H339.29H339.299H339.309H339.318H339.328H339.338H339.347H339.357H339.366H339.376H339.385H339.395H339.404H339.414H339.423H339.432H339.442H339.451H339.46H339.47H339.479H339.488H339.497H339.507H339.516H339.525H339.534H339.543H339.553H339.562H339.571H339.58H339.589H339.598H339.607H339.616H339.625H339.634H339.643H339.652H339.66H339.669H339.678H339.687H339.696H339.705H339.713H339.722H339.731H339.74H339.748H339.757H339.766H339.774H339.783H339.791H339.8H339.808H339.817H339.825H339.834H339.842H339.851H339.859H339.868H339.876H339.884H339.893H339.901H339.909H339.918H339.926H339.934H339.942H339.951H339.959H339.967H339.975H339.983H339.991H339.999H340.007H340.015H340.023H340.031H340.039H340.047H340.055H340.063H340.071H340.079H340.086H340.094H340.102H340.11H340.118H340.125H340.133H340.141H340.148H340.156H340.164H340.171H340.179H340.186H340.194H340.201H340.209H340.216H340.224H340.231H340.239H340.246H340.253H340.261H340.268H340.275H340.282H340.29H340.297H340.304H340.311H340.318H340.326H340.333H340.34H340.347H340.354H340.361H340.368H340.375H340.382H340.389H340.396H340.402H340.409H340.416H340.423H340.43H340.437H340.443H340.45H340.457H340.463H340.47H340.477H340.483H340.49H340.496H340.503H340.509H340.516H340.522H340.529H340.535H340.542H340.548H340.554H340.561H340.567H340.573H340.58H340.586H340.592H340.598H340.604H340.611H340.617H340.623H340.629H340.635H340.641H340.647H340.653H340.659H340.665H340.671H340.677H340.683H340.688H340.694H340.7H340.706H340.712H340.717H340.723H340.729H340.734H340.74H340.745H340.751H340.757H340.762H340.768H340.773H340.779H340.784H340.789H340.795H340.8H340.806H340.811H340.816H340.821H340.827H340.832H340.837H340.842H340.847H340.849V115.53L338.031 115.303Z" fill="white" stroke="black"/>
<path d="M341.349 116.729C341.349 116.729 349.772 116.314 350.238 122.976H341.349V116.729Z" fill="#F9A28B"/>
<path d="M273.028 195.889L285.151 197.971L300.169 151.311C300.169 151.311 319.286 152.563 334.933 154.645C350.572 156.727 350.246 138.395 350.246 138.395V131.734H325.281C325.281 131.734 300.724 130.936 289.259 133.15C286.35 133.71 284.285 134.468 283.678 135.483C283.22 136.247 282.657 138.185 282.028 140.919C278.52 156.101 273.028 195.889 273.028 195.889Z" fill="#292678"/>
<path d="M300.635 145.479L311.863 184.641L302.041 189.22L286.595 164.641L300.635 145.479Z" fill="#292678"/>
<path d="M175.834 193.306L175.072 199.138H183.035L183.798 193.721L175.834 193.306Z" fill="#F9A28B"/>
<path d="M202.042 193.721V199.138H209.532L209.998 193.721H202.042Z" fill="#F9A28B"/>
<path d="M221.7 87.4785L211.405 195.803H200.643V104.98V87.4785H221.7Z" fill="#2F70FE"/>
<path d="M213.277 87.4785L204.388 100.816L184.73 195.803H172.096L187.069 87.4785H213.277Z" fill="#2F70FE"/>
<path d="M186.439 51.6772C187.247 59.5307 188.005 70.613 187.828 83.6511H221.282L223.977 41.1406L209.418 34.6567H198.383L184.823 39.487C184.844 39.6072 184.869 39.7526 184.898 39.9226C184.993 40.4839 185.127 41.3141 185.287 42.3926C185.607 44.5494 186.029 47.6994 186.439 51.6772Z" fill="white" stroke="black"/>
<path d="M186.603 84.1514H222.632V87.9008H186.603V84.1514Z" fill="#6DED02"/>
<path d="M265.323 63.0121L267.159 62.6563C267.159 62.6563 269.705 60.2577 271.067 59.2891C272.436 58.3204 272.488 59.8755 270.623 61.7931C270.623 61.7931 275.596 58.8607 277.254 61.4636C279.082 64.3366 276.203 66.7813 269.734 66.7945L267.795 67.3678L265.323 63.0121Z" fill="#F9A28B"/>
<path d="M238.457 84.0738L238.458 84.0737C238.718 84.0274 239.204 83.8513 239.911 83.5337C240.602 83.2231 241.463 82.797 242.452 82.2811C244.43 81.2498 246.901 79.8703 249.521 78.365C254.761 75.355 260.579 71.8519 264.205 69.6484L264.206 69.648C265.293 68.9896 266.182 68.4464 266.799 68.068C267.026 67.9292 267.216 67.8125 267.365 67.7204L264.497 62.256L260.87 63.3898L260.869 63.3901L259.678 63.7654L259.677 63.7657L239.62 70.0455L239.154 70.1914L238.997 69.7287L239.47 69.5683C238.997 69.7287 238.997 69.7286 238.997 69.7285L238.996 69.7277L238.995 69.7242L238.991 69.7103L238.972 69.6547C238.955 69.6054 238.93 69.5321 238.896 69.4361C238.83 69.2443 238.732 68.9622 238.605 68.602C238.351 67.8817 237.981 66.8493 237.518 65.6023C236.591 63.1079 235.293 59.7577 233.807 56.3313C232.319 52.9022 230.647 49.4096 228.975 46.6243C228.139 45.2313 227.309 44.0269 226.509 43.0991C225.921 42.4176 225.368 41.907 224.859 41.5762L219.435 69.4103C219.545 69.525 219.704 69.6903 219.906 69.8989C220.323 70.3285 220.924 70.9417 221.66 71.6752C223.133 73.1426 225.144 75.0888 227.298 77.0076C229.456 78.9287 231.745 80.8114 233.778 82.1589C234.795 82.8331 235.733 83.3638 236.548 83.6995C237.377 84.0408 238.014 84.153 238.457 84.0738Z" fill="white" stroke="black"/>
<path d="M260.727 62.9065L264.465 70.0692C266.641 68.7513 268.025 67.8947 268.025 67.8947L264.746 61.6479L260.727 62.9065Z" fill="#228652"/>
<path d="M144.334 60.9296L142.498 60.5738C142.498 60.5738 139.952 58.1752 138.59 57.2065C137.221 56.2379 137.169 57.793 139.034 59.7106C139.034 59.7106 134.061 56.7782 132.403 59.3811C130.575 62.2541 133.454 64.6988 139.923 64.712L141.862 65.2853L144.334 60.9296Z" fill="#F9A28B"/>
<path d="M184.798 39.4941C184.289 39.825 183.736 40.3355 183.148 41.0171C182.348 41.9449 181.518 43.1493 180.682 44.5423C179.01 47.3276 177.338 50.8202 175.85 54.2494C174.364 57.6758 173.066 61.0259 172.139 63.5204C171.676 64.7673 171.306 65.7997 171.052 66.5201C170.925 66.8802 170.827 67.1623 170.761 67.3542C170.727 67.4501 170.702 67.5235 170.685 67.5727L170.666 67.6284L170.662 67.6423L170.661 67.6457L170.66 67.6465C170.66 67.6467 170.66 67.6467 170.187 67.4864L170.66 67.6467L170.504 68.1095L170.037 67.9635L149.98 61.6837L149.979 61.6834L148.788 61.3082L148.787 61.3078L145.16 60.174L142.292 65.6385C142.442 65.7306 142.631 65.8472 142.858 65.986C143.475 66.3645 144.364 66.9077 145.451 67.5661L145.452 67.5665C149.078 69.77 154.896 73.2731 160.136 76.2831C162.756 77.7883 165.227 79.1678 167.205 80.1992C168.194 80.7151 169.055 81.1412 169.746 81.4518C170.453 81.7694 170.939 81.9455 171.199 81.9918L171.2 81.9919C171.643 82.0711 172.28 81.9589 173.109 81.6176C173.924 81.2819 174.862 80.7512 175.879 80.077C177.912 78.7295 180.201 76.8468 182.359 74.9256C184.513 73.0069 186.524 71.0606 187.997 69.5932C188.733 68.8598 189.334 68.2465 189.751 67.8169C189.953 67.6083 190.112 67.4431 190.222 67.3284L184.798 39.4941Z" fill="white" stroke="black"/>
<path d="M148.93 60.8245L145.192 67.9873C143.016 66.6694 141.632 65.8128 141.632 65.8128L144.911 59.5659L148.93 60.8245Z" fill="#228652"/>
<path d="M202.619 21.3335L200.303 34.0512L205.92 37.8138L209.214 35.1583L209.458 24.1011L202.619 21.3335Z" fill="#F9A28B"/>
<path d="M199.326 15.6995C199.326 15.6995 197.86 32.3973 212.877 30.8488C227.895 29.3002 216.297 9.50537 216.297 9.50537L201.524 11.8249L199.326 15.6995Z" fill="#F9A28B"/>
<path d="M201.28 18.243C201.28 18.243 197.372 13.5974 193.834 16.0289C190.296 18.4605 192.857 25.4256 197.616 24.6546C202.375 23.8836 203.478 22.5526 203.478 22.5526L201.28 18.243Z" fill="#F9A28B"/>
<path d="M202.257 22.4406L204.211 14.6979C204.211 14.6979 221.056 15.6929 225.327 11.9303C229.597 8.16769 231.063 2.30963 228.502 1.64409C225.941 0.978547 218.739 7.17268 218.739 7.17268C218.739 7.17268 219.59 -1.78245 216.297 0.319596C213.003 2.42165 212.759 6.07223 212.759 6.07223C212.759 6.07223 199.94 6.62575 199.089 8.83982C198.238 11.0539 198.97 11.6074 198.97 11.6074C198.97 11.6074 196.41 10.7244 196.04 11.8315C195.662 12.9319 202.257 22.4406 202.257 22.4406Z" fill="black"/>
<path d="M209.377 30.6246L203.093 27.2969L209.073 34.6179L209.377 30.6246Z" fill="#F9A28B"/>
<path d="M220.597 23.6924C220.597 23.6924 216.8 19.7387 210.368 21.9198C203.929 24.1009 202.864 18.7832 202.864 18.7832L201.709 22.671C201.709 22.671 200.717 25.6033 202.368 28.2655C204.018 30.9276 211.279 33.9917 211.279 33.9917C211.279 33.9917 222.573 32.7661 220.597 23.6924Z" fill="black"/>
<path d="M310.19 185.438L311.507 188.634L305.527 191.191L303.914 188.311L310.19 185.438Z" fill="#F9A28B"/>
<path d="M314.216 194.011L311.507 188.634L305.527 191.19L297.867 201.892L314.216 194.011Z" fill="#292678"/>
<path d="M306.423 194.169L302.234 192.943" stroke="#7BD53D" stroke-width="4" stroke-miterlimit="10"/>
<path d="M304.091 195.717L300.901 194.795" stroke="#7BD53D" stroke-width="4" stroke-miterlimit="10"/>
<path d="M283.16 197.523L281.961 200.93L275.382 199.658L275.981 196.245L283.16 197.523Z" fill="#F9A28B"/>
<path d="M281.961 200.93L280.326 206.577L263.821 202.67L275.382 199.658L281.961 200.93Z" fill="#292678"/>
<path d="M273.154 199.052L273.472 201.892" stroke="#7BD53D" stroke-width="4" stroke-miterlimit="10"/>
<path d="M270.837 199.763L271 202.102" stroke="#7BD53D" stroke-width="4" stroke-miterlimit="10"/>
<path d="M202.042 197.859L201.398 204.475L219.568 205.141L209.169 198.426L202.042 197.859Z" fill="#292678"/>
<path d="M211.656 198.433L210.191 201.424" stroke="#7BD53D" stroke-width="4" stroke-miterlimit="10"/>
<path d="M213.699 199.889L212.589 202.386" stroke="#7BD53D" stroke-width="4" stroke-miterlimit="10"/>
<path d="M182.747 197.483L183.776 205.206L165.42 205.015L175.56 197.767L182.747 197.483Z" fill="#292678"/>
<path d="M173.044 197.648L174.701 201.193" stroke="#7BD53D" stroke-width="4" stroke-miterlimit="10"/>
<path d="M171.06 199.229L172.326 202.188" stroke="#7BD53D" stroke-width="4" stroke-miterlimit="10"/>
<path d="M301.22 150.777L292.604 174.203L296.438 179.745L301.22 150.777Z" fill="#1A1A56"/>
<path d="M209.717 100.302L202.545 104.776L200.391 118.99L201.109 134.804L203.974 106.371L209.717 100.302Z" fill="#1A1A56"/>
<path d="M316.585 191.671H356.182C357.336 191.671 358.276 190.841 358.276 189.807V158.124C358.276 155.475 355.864 153.327 352.888 153.327H319.886C316.91 153.327 314.498 155.475 314.498 158.124V189.807C314.498 190.835 315.43 191.671 316.585 191.671Z" fill="#7BD53D"/>
<path d="M211.989 35.2373L206.127 40.5615L197.275 34.5981" stroke="#228652" stroke-width="4" stroke-miterlimit="10"/>
<path d="M339.285 59.0782C339.285 59.0782 341.675 58.3665 342.874 60.7848C344.073 63.1966 341.601 68.8767 341.601 68.8767L338.574 65.9642L338.974 59.1506L339.285 59.0782Z" fill="black"/>
<path d="M332.561 86.0862L337.74 82.7023L335.537 70.9082L329.408 73.3255L329.647 83.7979L332.561 86.0862Z" fill="white" stroke="black"/>
<mask id="path-50-inside-1" fill="white">
<path fill-rule="evenodd" clip-rule="evenodd" d="M339.335 65.3707C339.325 64.8743 339.299 64.5866 339.299 64.5866L337.042 60.7121L321.891 58.3926C321.891 58.3926 309.997 78.1871 325.4 79.7356C333.003 80.5 336.487 76.8181 338.065 72.8934C338.854 73.1246 339.835 73.3503 341.046 73.5415C345.931 74.3124 348.566 67.3474 344.932 64.9159C342.936 63.5809 340.83 64.3792 339.335 65.3707Z"/>
</mask>
<path fill-rule="evenodd" clip-rule="evenodd" d="M339.335 65.3707C339.325 64.8743 339.299 64.5866 339.299 64.5866L337.042 60.7121L321.891 58.3926C321.891 58.3926 309.997 78.1871 325.4 79.7356C333.003 80.5 336.487 76.8181 338.065 72.8934C338.854 73.1246 339.835 73.3503 341.046 73.5415C345.931 74.3124 348.566 67.3474 344.932 64.9159C342.936 63.5809 340.83 64.3792 339.335 65.3707Z" fill="white"/>
<path d="M339.299 64.5866L340.163 64.0832L340.275 64.2754L340.295 64.497L339.299 64.5866ZM339.335 65.3707L339.888 66.204L338.373 67.2095L338.336 65.3911L339.335 65.3707ZM337.042 60.7121L337.193 59.7236L337.665 59.7959L337.906 60.2086L337.042 60.7121ZM321.891 58.3926L321.034 57.8775L321.38 57.3026L322.043 57.4041L321.891 58.3926ZM325.4 79.7356L325.5 78.7406L325.4 79.7356ZM338.065 72.8934L337.138 72.5202L337.476 71.6787L338.347 71.9338L338.065 72.8934ZM341.046 73.5415L340.89 74.5292H340.89L341.046 73.5415ZM344.932 64.9159L345.488 64.0848L345.488 64.0848L344.932 64.9159ZM339.299 64.5866C340.295 64.497 340.295 64.497 340.295 64.4971C340.295 64.4971 340.295 64.4972 340.295 64.4972C340.295 64.4973 340.295 64.4974 340.295 64.4975C340.295 64.4977 340.295 64.4979 340.295 64.4981C340.295 64.4986 340.295 64.4991 340.296 64.4997C340.296 64.5009 340.296 64.5023 340.296 64.5041C340.296 64.5076 340.297 64.5122 340.297 64.5179C340.298 64.5293 340.299 64.545 340.301 64.5651C340.304 64.6051 340.308 64.6621 340.312 64.7348C340.32 64.8802 340.33 65.0887 340.335 65.3503L338.336 65.3911C338.331 65.1563 338.322 64.9727 338.315 64.8502C338.312 64.7889 338.308 64.743 338.306 64.7136C338.305 64.6989 338.304 64.6883 338.304 64.682C338.304 64.6789 338.303 64.6768 338.303 64.6758C338.303 64.6754 338.303 64.6751 338.303 64.6752C338.303 64.6752 338.303 64.6753 338.303 64.6755C338.303 64.6756 338.303 64.6757 338.303 64.6758C338.303 64.6759 338.303 64.6759 338.303 64.676C338.303 64.676 338.303 64.6761 338.303 64.6761C338.303 64.6762 338.303 64.6762 339.299 64.5866ZM337.906 60.2086L340.163 64.0832L338.435 65.09L336.178 61.2155L337.906 60.2086ZM322.043 57.4041L337.193 59.7236L336.891 61.7005L321.74 59.3811L322.043 57.4041ZM325.3 80.7306C321.206 80.3191 318.706 78.6546 317.462 76.1996C316.259 73.8269 316.349 70.9364 316.89 68.2837C317.436 65.6051 318.476 63.0029 319.367 61.0879C319.814 60.1262 320.228 59.3284 320.531 58.7695C320.683 58.4898 320.807 58.2695 320.894 58.1178C320.938 58.042 320.972 57.9832 320.996 57.9428C321.007 57.9226 321.017 57.907 321.023 57.896C321.026 57.8906 321.029 57.8863 321.031 57.8832C321.032 57.8816 321.033 57.8804 321.033 57.8795C321.033 57.879 321.034 57.8785 321.034 57.8783C321.034 57.8779 321.034 57.8775 321.891 58.3926C322.749 58.9076 322.749 58.9074 322.749 58.9073C322.749 58.9074 322.749 58.9074 322.749 58.9075C322.748 58.9078 322.748 58.9083 322.748 58.9092C322.747 58.9109 322.745 58.9138 322.742 58.9178C322.738 58.9259 322.73 58.9387 322.72 58.956C322.7 58.9906 322.669 59.0432 322.629 59.1127C322.549 59.2517 322.433 59.4582 322.289 59.7228C322.002 60.2524 321.607 61.0132 321.18 61.9314C320.322 63.7763 319.352 66.2195 318.85 68.6831C318.342 71.1726 318.346 73.5211 319.246 75.2954C320.103 76.9874 321.892 78.3779 325.5 78.7406L325.3 80.7306ZM338.993 73.2666C338.15 75.3615 336.774 77.4534 334.538 78.9107C332.293 80.3738 329.282 81.131 325.3 80.7306L325.5 78.7406C329.12 79.1046 331.653 78.4031 333.446 77.2351C335.247 76.0614 336.402 74.35 337.138 72.5202L338.993 73.2666ZM340.89 74.5292C339.641 74.3322 338.619 74.0977 337.784 73.853L338.347 71.9338C339.09 72.1516 340.028 72.3684 341.202 72.5537L340.89 74.5292ZM345.488 64.0848C347.841 65.6596 348.032 68.601 347.106 70.8154C346.166 73.063 343.911 75.006 340.89 74.5292L341.202 72.5537C343.066 72.848 344.571 71.6939 345.261 70.0438C345.965 68.3605 345.656 66.6036 344.376 65.747L345.488 64.0848ZM338.782 64.5374C340.37 63.4844 342.967 62.3984 345.488 64.0848L344.376 65.747C342.906 64.7634 341.29 65.274 339.888 66.204L338.782 64.5374Z" fill="black" mask="url(#path-50-inside-1)"/>
<path d="M337.493 70.188C337.493 70.188 342.519 60.7123 340.965 56.6663C339.41 52.6204 331.876 56.5609 325.414 53.4704C325.414 53.4704 320.951 51.9087 318.398 54.7488C315.844 57.5888 318.716 62.5573 322.624 61.7798C326.532 60.9956 332.594 59.2955 333.785 61.1406C334.984 62.9857 336.657 63.3415 336.657 63.3415L337.493 70.188Z" fill="black"/>
<path d="M339.921 93.9692C339.921 93.9692 339.699 91.5443 339.373 89.238C339.048 86.9317 337.427 83.4657 336.457 83.1823C335.488 82.8924 335.488 84.6254 335.488 84.6254C335.488 84.6254 331.92 81.7393 330.625 81.7393C329.33 81.7393 333.541 86.6418 333.541 86.6418C333.541 86.6418 330.951 88.0849 331.595 89.5279C332.238 90.971 335.517 95.2014 335.517 95.2014L339.921 93.9692Z" fill="#F9A28B"/>
<path d="M270.63 61.7861L271.718 64.949" stroke="#2F011C" stroke-width="4" stroke-miterlimit="10"/>
<path d="M278.098 60.8965L273.472 62.1091" stroke="#2F011C" stroke-width="4" stroke-miterlimit="10"/>
<path d="M278.098 63.1702L274.345 63.0977" stroke="#2F011C" stroke-width="4" stroke-miterlimit="10"/>
<path d="M277.935 65.2327L274.109 64.3101" stroke="#2F011C" stroke-width="4" stroke-miterlimit="10"/>
<path d="M345.472 120.11L350.416 122.093" stroke="#2F011C" stroke-width="4" stroke-miterlimit="10"/>
<path d="M346.508 118.832L349.062 119.609" stroke="#2F011C" stroke-width="4" stroke-miterlimit="10"/>
<path d="M132.329 58.3467L135.8 59.7305" stroke="#2F011C" stroke-width="4" stroke-miterlimit="10"/>
<path d="M131.315 59.8359L135.563 60.8967" stroke="#2F011C" stroke-width="4" stroke-miterlimit="10"/>
<path d="M131.433 61.8584L135.445 62.1747" stroke="#2F011C" stroke-width="4" stroke-miterlimit="10"/>
<path d="M198.652 20.5953C198.652 20.5953 198.356 17.3995 193.39 18.3088" stroke="black" stroke-width="4" stroke-miterlimit="10"/>
<path d="M195.647 20.6479C195.647 20.6479 195.965 19.0138 197.882 19.0863" stroke="black" stroke-width="4" stroke-miterlimit="10"/>
<path d="M95.9736 109.244H266.774V113.079H95.9736V109.244Z" fill="#CBCBCB"/>
<path d="M127.185 204.554L117.859 112.123" stroke="#228652" stroke-width="4" stroke-miterlimit="10"/>
<path d="M111.642 112.762L103.264 203.704" stroke="#228652" stroke-width="4" stroke-miterlimit="10"/>
<path d="M125.276 186.235L104.7 186.452" stroke="#228652" stroke-width="4" stroke-miterlimit="10"/>
<path d="M127.185 204.554L117.859 112.123" stroke="#979797" stroke-width="4" stroke-miterlimit="10"/>
<path d="M111.642 112.762L103.264 203.704" stroke="#979797" stroke-width="4" stroke-miterlimit="10"/>
<path d="M125.276 186.235L104.7 186.452" stroke="#228652" stroke-width="4" stroke-miterlimit="10"/>
<path d="M259.476 204.87L250.143 112.439" stroke="#979797" stroke-width="4" stroke-miterlimit="10"/>
<path d="M243.926 113.079L235.555 204.02" stroke="#979797" stroke-width="4" stroke-miterlimit="10"/>
<path d="M257.559 186.558L236.991 186.769" stroke="#228652" stroke-width="4" stroke-miterlimit="10"/>
<path d="M135.445 109.244C135.445 109.244 132.81 99.6626 124.439 100.084C116.068 100.513 114.151 109.244 114.151 109.244H135.445Z" fill="#979797"/>
<path d="M129.613 78.2335L125.401 97.7515C125.327 98.0942 124.95 98.3182 124.565 98.2523C124.202 98.1864 123.958 97.8899 124.002 97.567L126.423 77.937C126.467 77.6009 126.8 77.3505 127.178 77.3769L128.969 77.4889C129.391 77.5153 129.694 77.8645 129.613 78.2335Z" fill="#979797"/>
<path d="M130.338 75.9534C129.247 75.9534 128.362 75.1657 128.362 74.194C128.362 73.2223 129.247 72.4346 130.338 72.4346C131.429 72.4346 132.314 73.2223 132.314 74.194C132.314 75.1657 131.429 75.9534 130.338 75.9534Z" fill="#979797"/>
<path d="M149.16 85.6927L135.511 75.0376C135.164 74.7674 134.638 74.7938 134.327 75.0969C134.024 75.3934 134.031 75.8415 134.342 76.1315L146.036 87.0172C146.221 87.1885 146.495 87.2742 146.761 87.2412L148.715 87.0106C149.433 86.9315 149.715 86.121 149.16 85.6927Z" fill="#979797"/>
<path d="M159.684 94.6284L146.317 97.989C146.317 97.989 141.736 89.5412 150.122 87.7818C158.152 86.0817 159.684 94.6284 159.684 94.6284Z" fill="#979797"/>
<path d="M155.439 96.0643C155.426 96.0081 155.413 95.958 155.401 95.9152L150.874 97.059C150.902 97.0968 150.932 97.1382 150.967 97.1826C151.129 97.3918 151.366 97.6612 151.668 97.9059C152.271 98.3949 153.109 98.7699 154.125 98.4066C154.646 98.2204 154.972 97.9609 155.174 97.6865C155.378 97.4112 155.466 97.108 155.493 96.8204C155.52 96.5318 155.483 96.2628 155.439 96.0643Z" fill="white" stroke="black" stroke-width="0.4"/>
<path d="M358.232 165.017L358.076 187.059C358.062 189.451 355.9 191.395 353.214 191.428L333.26 191.691" stroke="#228652" stroke-width="4" stroke-miterlimit="10"/>
<path d="M351.489 155.12C351.489 155.12 356.093 157.828 357.159 161.268" stroke="#228652" stroke-width="4" stroke-miterlimit="10"/>
<path d="M112.02 52.0404L109.429 53.6877L105.921 50.2349" fill="white"/>
<path d="M112.02 52.0404L109.429 53.6877L105.921 50.2349" stroke="#7BD53D" stroke-miterlimit="10"/>
<path d="M77.8035 104.467C77.8035 104.467 82.7327 109.297 85.6933 127.965C88.6538 146.633 85.3824 159.917 85.3824 159.917L79.0913 159.588C79.0987 159.588 79.8388 107.162 77.8035 104.467Z" fill="#6DED02"/>
<path d="M81.134 114.628C81.134 114.628 84.0946 150.363 81.319 163.871" stroke="#0AC41E" stroke-width="2" stroke-miterlimit="10"/>
<path d="M57.9605 112.868C57.9605 112.868 64.2072 116.282 72.889 133.48C81.5707 150.672 82.5921 164.24 82.5921 164.24L76.449 165.485C76.449 165.485 60.7582 114.95 57.9605 112.868Z" fill="#6DED02"/>
<path d="M64.333 121.797C64.333 121.797 78.3585 155.383 79.9128 169.043" stroke="#0AC41E" stroke-width="2" stroke-miterlimit="10"/>
<path d="M97.2023 122.206C97.2023 122.206 90.4449 126.621 85.1307 144.999C79.8166 163.377 82.977 176.892 82.977 176.892L91.1332 177.076C91.1332 177.076 94.3528 124.723 97.2023 122.206Z" fill="#6DED02"/>
<path d="M92.088 132.063C92.088 132.063 85.4119 167.469 87.921 181.168" stroke="#0AC41E" stroke-width="2" stroke-miterlimit="10"/>
<path d="M103.923 138.455C103.923 138.455 98.9712 140.254 92.4951 150.889C86.0189 161.525 85.6266 170.322 85.6266 170.322L90.6373 171.561C90.6373 171.561 101.725 139.621 103.923 138.455Z" fill="#6DED02"/>
<path d="M99.0452 143.852C99.0452 143.852 88.7648 164.833 87.9359 173.65" stroke="#0AC41E" stroke-width="2" stroke-miterlimit="10"/>
<path d="M55 141.401C55 141.401 60.1957 141.256 68.574 147.924C76.9523 154.593 79.0173 161.749 79.0173 161.749L74.3396 164.431C74.3396 164.431 57.3758 141.638 55 141.401Z" fill="#6DED02"/>
<path d="M60.81 144.254C60.81 144.254 74.8873 158.237 77.3816 165.268" stroke="#0AC41E" stroke-width="2" stroke-miterlimit="10"/>
<path d="M96.2993 158.928L93.3388 203.065H73.3626L68.5518 157.61L96.2993 158.928Z" fill="#979797"/>
<path d="M95.9293 166.5L69.477 165.676L68.5518 157.61L96.2993 158.928L95.9293 162.553" stroke="#002F7A" stroke-width="2" stroke-miterlimit="10"/>
</g>
<defs>
<linearGradient id="paint0_linear" x1="183.235" y1="233.294" x2="183.481" y2="195.59" gradientUnits="userSpaceOnUse">
<stop stop-color="white" stop-opacity="0"/>
<stop offset="1" stop-color="#82A9FF" stop-opacity="0.21"/>
</linearGradient>
<clipPath id="clip0">
<rect width="1440" height="3267" fill="white" transform="translate(-245 -1656)"/>
</clipPath>
</defs>
</svg>
