<svg width="223" height="260" viewBox="0 0 223 260" fill="none" xmlns="http://www.w3.org/2000/svg">
<rect width="223" height="260" fill="#E5E5E5"/>
<g clip-path="url(#clip0)">
<rect width="1440" height="3267" transform="translate(-894 -2081)" fill="white"/>
<rect x="-894" y="-91" width="1440" height="441" fill="white"/>
<path d="M69.974 37H152.974V236H69.974V37Z" fill="#82A9FF" fill-opacity="0.21"/>
<g clip-path="url(#clip1)">
<path d="M133.48 79.0001C147.56 79.0001 158.974 67.4901 158.974 53.2917C158.974 39.0933 147.56 27.5833 133.48 27.5833C119.4 27.5833 107.985 39.0933 107.985 53.2917C107.985 67.4901 119.4 79.0001 133.48 79.0001Z" fill="#F3F2FF"/>
<path d="M133.48 53.2915L135.614 78.9077C134.913 78.9692 134.181 78.9999 133.48 78.9999C119.391 78.9999 107.985 67.4988 107.985 53.2915H133.48Z" fill="#B5B9FF"/>
<path d="M133.48 53.2917H107.985C107.985 48.6175 109.236 44.22 111.401 40.4375L133.48 53.2917Z" fill="#D9DAFF"/>
<path d="M133.236 53.7221L108.931 39.5763L109.175 39.1458C111.645 34.8405 115.213 31.2733 119.482 28.7825C123.599 26.3838 128.387 25 133.48 25H133.968V54.1219L133.236 53.7221ZM110.242 39.2073L132.992 52.4613V25.9841C128.234 26.0763 123.782 27.3679 119.94 29.6128C115.975 31.9191 112.621 35.2403 110.242 39.2073Z" fill="white"/>
<path d="M118.323 35.794L109.541 30.6892H75.4772V29.8281H109.754L118.75 35.0559L118.323 35.794Z" fill="#EEEDFF"/>
<path d="M109.815 51.139L102.832 49.2631H75.3857V48.4021H102.954L110.029 50.3087L109.815 51.139Z" fill="#EEEDFF"/>
<path d="M116.158 70.1126L113.597 72.6958H74.7758V71.8655H113.261L115.579 69.5283L116.158 70.1126Z" fill="#EEEDFF"/>
<path d="M64.0413 27.2756H67.9143C68.1582 27.2756 68.3717 27.4909 68.3717 27.7369V31.6424C68.3717 31.8884 68.1582 32.1037 67.9143 32.1037H64.0413C63.7974 32.1037 63.5839 31.8884 63.5839 31.6424V27.7369C63.5839 27.4909 63.7974 27.2756 64.0413 27.2756Z" fill="#EEEDFF"/>
<path d="M69.561 27.2756H73.434C73.6779 27.2756 73.8914 27.4909 73.8914 27.7369V31.6424C73.8914 31.8884 73.6779 32.1037 73.434 32.1037H69.561C69.3171 32.1037 69.1036 31.8884 69.1036 31.6424V27.7369C69.1036 27.4909 69.2866 27.2756 69.561 27.2756Z" fill="#EEEDFF"/>
<path d="M64.7427 46.7107H68.6157C68.8596 46.7107 69.0731 46.926 69.0731 47.172V51.0774C69.0731 51.3234 68.8596 51.5387 68.6157 51.5387H64.7427C64.4988 51.5387 64.2853 51.3234 64.2853 51.0774V47.172C64.2853 46.926 64.4988 46.7107 64.7427 46.7107Z" fill="#D9DAFF"/>
<path d="M63.4314 69.344H67.3044C67.5483 69.344 67.7618 69.5593 67.7618 69.8053V73.7107C67.7618 73.9567 67.5483 74.172 67.3044 74.172H63.4314C63.1875 74.172 62.974 73.9567 62.974 73.7107V69.8053C62.974 69.5593 63.1875 69.344 63.4314 69.344Z" fill="#B5B9FF"/>
<path d="M68.9511 69.344H72.8241C73.068 69.344 73.2815 69.5593 73.2815 69.8053V73.7107C73.2815 73.9567 73.068 74.172 72.8241 74.172H68.9511C68.7072 74.172 68.4937 73.9567 68.4937 73.7107V69.8053C68.4937 69.5593 68.6767 69.344 68.9511 69.344Z" fill="#B5B9FF"/>
</g>
<g clip-path="url(#clip2)">
<path d="M72.1819 67.0566C75.5499 66.9616 78.3512 69.6221 78.4466 73.0063C78.5224 75.6938 76.8533 78.032 74.4998 78.945C76.9969 81.365 78.6277 84.706 78.7343 88.4883C78.8213 91.5739 77.8611 94.44 76.2416 96.7768C76.3407 96.774 76.4893 96.7698 76.5883 96.767C84.0178 96.5576 90.2316 102.459 90.442 109.924C90.6524 117.389 84.7809 123.631 77.3514 123.841C69.922 124.05 63.7082 118.149 63.4978 110.684C63.4122 107.648 64.3242 104.833 65.8956 102.547C65.747 102.551 65.5984 102.556 65.4498 102.56C57.8703 102.724 51.6056 96.7739 51.3924 89.2092C51.1792 81.6445 57.0988 75.3513 64.6273 75.1391C65.2712 75.1209 65.9165 75.1525 66.5632 75.2339C66.3483 74.6423 66.2324 74.0479 66.2127 73.3511C66.1669 69.9655 68.8139 67.1515 72.1819 67.0566ZM94.7074 97.7007C96.5895 97.6477 98.1175 99.0989 98.1708 100.99C98.2241 102.881 96.7803 104.416 94.8982 104.469C93.0161 104.522 91.4881 103.071 91.4348 101.18C91.3815 99.2887 92.8253 97.7538 94.7074 97.7007ZM86.0949 126.284C87.4818 126.245 88.6532 127.357 88.6925 128.751C88.7318 130.144 87.6248 131.321 86.238 131.36C84.8512 131.399 83.6797 130.287 83.6404 128.893C83.6012 127.5 84.7081 126.323 86.0949 126.284Z" fill="#DBD9FF"/>
<path d="M120.799 47.357L109.339 50.5191C109.339 50.5191 91.8204 63.8632 73.386 90.4321L74.0313 113.325C88.5624 94.238 105.955 74.6715 123.038 63.4813L120.799 47.357Z" fill="#DBD9FF"/>
<path d="M169.926 0.000129866C169.926 0.000129866 171.246 20.4338 138.87 51.8286C138.87 51.8286 138.893 61.4408 137.449 62.9757C136.005 64.5106 127.697 72.2159 127.697 72.2159C127.697 72.2159 126.375 72.8011 125.997 71.716C125.62 70.6308 123.885 61.8638 123.885 61.8638L123.04 63.5313C123.04 63.5313 120.494 64.649 115.347 59.6639C115.347 59.6639 113.575 61.8556 111.642 61.8602C111.539 59.9705 113.615 58.0192 113.615 58.0192C108.372 53.1365 109.339 50.5192 109.339 50.5192L110.948 49.5773C110.948 49.5773 102.09 48.3328 101.04 48.0137C99.9406 47.6961 100.448 46.337 100.448 46.337C100.448 46.337 107.636 37.5675 109.08 36.0326C110.523 34.4976 120.076 33.9794 120.076 33.9794C149.397 -0.267947 169.926 0.000129866 169.926 0.000129866Z" fill="white"/>
<path d="M169.926 0.00018231C169.926 0.00018231 171.245 20.4339 138.869 51.8286C138.869 51.8286 138.893 61.4408 137.449 62.9758C136.005 64.5107 127.696 72.216 127.696 72.216C127.696 72.216 126.374 72.8011 125.997 71.716C125.619 70.6309 123.885 61.8638 123.885 61.8638L123.04 63.5313C123.04 63.5313 121.375 64.2755 118.038 61.929C145.95 49.7862 169.926 0.00018231 169.926 0.00018231Z" fill="#DBD9FF"/>
<path d="M124.202 60.809C121.999 60.0244 119.782 58.7421 117.801 57.0546C123.428 50.9191 131.656 40.377 131.656 40.377C126.091 45.166 119.537 51.8257 116.069 55.41C114.333 53.616 112.885 51.4653 111.925 49.0518L110.947 49.5277L109.337 50.4696C109.337 50.4696 108.37 53.0868 113.613 57.9696C113.613 57.9696 111.536 59.871 111.64 61.8106C113.523 61.8073 115.345 59.6142 115.345 59.6142C120.492 64.5993 123.038 63.4816 123.038 63.4816L123.884 61.8141L124.202 60.809Z" fill="#6DED02"/>
<path d="M124.202 60.8089L123.885 61.8638C123.885 61.8638 125.621 70.6806 125.997 71.7159C126.374 72.8011 127.696 72.2159 127.696 72.2159C127.696 72.2159 136.005 64.5106 137.449 62.9757C138.892 61.4407 138.869 51.8286 138.869 51.8286C136.072 54.597 125.902 61.3088 125.902 61.3088C125.303 61.1763 124.753 60.9926 124.202 60.8089Z" fill="#6DED02"/>
<path d="M111.336 47.5242C112.329 44.0595 120.026 33.9807 120.026 33.9807C120.026 33.9807 110.473 34.4989 109.03 36.0339C107.586 37.5688 100.398 46.3383 100.398 46.3383C100.398 46.3383 99.8907 47.6974 100.99 48.015C102.09 48.3327 110.899 49.5786 110.899 49.5786L111.876 49.1028C111.712 48.5595 111.499 48.0177 111.336 47.5242Z" fill="#6DED02"/>
<path d="M150.984 6.8097C155.675 13.2023 160.742 17.0939 164.221 19.1873C170.373 7.06012 169.926 5.15999e-05 169.926 5.15999e-05C169.926 5.15999e-05 162.835 -0.0989164 150.984 6.8097Z" fill="#6DED02"/>
<path d="M160.633 16.7483C161.95 17.7572 163.113 18.5711 164.172 19.1888C170.373 7.06019 169.926 0.000118322 169.926 0.000118322C169.926 0.000118322 166.46 7.17048 160.633 16.7483Z" fill="#2F70FE"/>
<path d="M142.522 35.4384C146.078 35.3381 148.879 32.3602 148.778 28.787C148.677 25.2138 145.713 22.3985 142.157 22.4987C138.601 22.5989 135.8 25.5768 135.9 29.15C136.001 32.7232 138.966 35.5386 142.522 35.4384Z" fill="#6DED02"/>
<path d="M142.488 34.2441C145.388 34.1624 147.672 31.7343 147.589 28.8207C147.507 25.9072 145.09 23.6116 142.191 23.6933C139.291 23.7751 137.007 26.2032 137.089 29.1167C137.171 32.0302 139.588 34.3259 142.488 34.2441Z" fill="white"/>
<path d="M145.36 25.3473C147.448 27.3306 147.542 30.665 145.571 32.8125C144.993 33.4265 144.263 33.8953 143.477 34.1665C144.462 33.9395 145.439 33.4139 146.161 32.6464C148.134 30.5487 148.04 27.2143 145.95 25.1813C144.473 23.7785 142.43 23.3878 140.614 24.0367C142.288 23.6408 144.036 24.0896 145.36 25.3473Z" fill="#DBD9FF"/>
<path d="M147.076 33.4674C144.622 36.0767 140.511 36.1926 137.913 33.7256C136.436 32.3228 135.787 30.3986 135.884 28.553C135.399 30.7084 136.059 33.0308 137.742 34.6768C140.339 37.1438 144.45 37.0279 146.905 34.4185C147.963 33.2929 148.568 31.8813 148.676 30.4338C148.458 31.4859 147.893 32.5478 147.076 33.4674Z" fill="#DBD9FF"/>
<path d="M119.727 58.5442L132.134 39.7159L130.787 41.1982C131.078 40.941 131.368 40.6838 131.658 40.4266C131.658 40.4266 123.428 50.9189 117.802 57.1042C118.411 57.5851 119.069 58.0646 119.727 58.5442Z" fill="#DBD9FF"/>
<path d="M116.761 34.2221L108.159 49.1079C109.752 49.3619 110.996 49.5261 110.996 49.5261L111.974 49.0502C111.762 48.5581 111.598 48.0149 111.434 47.4716C112.427 44.0069 120.123 33.9281 120.123 33.9281C120.123 33.9281 118.591 34.0709 116.761 34.2221Z" fill="#2F70FE"/>
<path d="M138.869 51.8285C136.072 54.5969 125.902 61.3088 125.902 61.3088C125.353 61.1748 124.802 60.9911 124.252 60.8074L123.934 61.8623C123.934 61.8623 124.34 63.9428 124.799 66.1712L138.842 54.3694C138.849 52.875 138.869 51.8285 138.869 51.8285Z" fill="#2F70FE"/>
<path d="M111.527 33.1741C111.527 33.1741 88.0251 52.3151 76.6924 70.5652C76.742 70.5638 85.3854 48.3551 111.527 33.1741Z" fill="white"/>
</g>
<path fill-rule="evenodd" clip-rule="evenodd" d="M121.759 234.549C134.776 237.978 157.141 239.13 185.621 238.952C212.053 238.971 222.644 241.689 222.247 246.463C219.181 253.866 175.481 257.652 100.479 257.809C38.5645 258.002 9.70117 253.564 1.36391 245.892C-11.2984 232.679 81.8398 224.209 121.759 234.549Z" fill="url(#paint0_linear)"/>
<g clip-path="url(#clip3)">
<path d="M111.484 15.0364C111.484 15.0364 122.368 13.5226 124.554 12.0087C124.554 12.0087 129.073 12.0087 129.461 14.1086C129.461 14.1086 126.838 17.2828 130.142 22.2638C130.142 22.2638 130.627 20.0663 132.619 19.8709L132.328 12.1064C132.328 12.1064 132.814 6.97889 128.295 4.92788C123.777 2.87688 113.865 4.63488 111.144 7.76023L110.124 10.7879H109.298C109.298 10.7391 108.083 14.5969 111.484 15.0364Z" fill="url(#paint1_linear)"/>
<path d="M129.51 14.0597C129.51 14.0597 126.886 17.2339 130.19 22.2149C130.19 22.2149 130.676 20.0174 132.668 19.822L132.377 12.5947C130.53 12.3505 129.51 14.0597 129.51 14.0597Z" fill="#4F4387"/>
<path d="M118.626 43.7016C118.746 43.8619 118.746 43.8619 118.746 43.8618L118.747 43.8615L118.748 43.8603L118.755 43.8556L118.779 43.837L118.876 43.7645C118.961 43.7009 119.085 43.6074 119.244 43.4876C119.561 43.2481 120.015 42.9035 120.563 42.4831C121.66 41.6424 123.132 40.4983 124.637 39.2853C126.141 38.0727 127.68 36.7894 128.908 35.6706C129.521 35.1113 130.059 34.5911 130.477 34.14C130.761 33.8333 130.997 33.5509 131.163 33.3051C131.706 34.1979 132.384 35.0533 133.096 35.8996C133.057 35.9563 133.005 36.0318 132.941 36.1254C132.784 36.3572 132.555 36.7006 132.269 37.1477C131.698 38.039 130.898 39.343 129.976 40.9993L123.135 49.1169L118.333 44.1486L118.212 44.0232L118.071 44.1263L115.183 46.241L115.649 42.8761L115.745 42.8761L115.764 42.6977L116 40.5235C116.163 40.7458 116.33 40.975 116.497 41.2049C117.263 42.2555 118.04 43.3227 118.474 43.8314L118.596 43.974L118.746 43.8619L118.626 43.7016Z" fill="white" stroke="black" stroke-width="0.4"/>
<path d="M123.145 49.4152L118.189 44.3365L114.788 46.827C113.428 48.3409 103.953 59.2308 103.176 68.6068C102.35 78.7154 103.176 99.5184 100.455 109.383C100.212 110.311 99.969 111.19 99.7261 112.069C101.329 112.801 103.613 113.631 106.042 113.827C109.638 114.071 119.987 113.485 124.894 113.143C122.368 104.695 119.55 92.8771 119.112 80.6687C118.529 64.4071 125.817 48.8781 130.19 41.1135L123.145 49.4152Z" fill="white"/>
<path d="M130.142 41.0645C125.769 48.8779 118.481 64.3581 119.064 80.6197C119.501 92.8281 122.319 104.646 124.846 113.094C125.963 116.757 126.983 119.784 127.809 121.933L130.725 121.542C130.725 121.542 130.725 121.542 130.773 121.493C132.085 120.419 133.3 119.296 134.417 118.026C144.28 106.795 144.815 89.0191 144.815 89.0191C136.604 54.8844 146.515 44.6782 146.515 44.6782C146.515 44.6782 138.304 41.1622 133.397 35.8394C133.348 35.8882 132.036 37.7927 130.142 41.0645Z" fill="#36336B"/>
<path d="M127.664 121.493C127.712 121.689 127.809 121.835 127.858 121.982L130.773 121.591C130.773 121.591 130.773 121.591 130.822 121.542C132.134 120.468 133.348 119.345 134.466 118.075C144.329 106.843 144.863 89.0679 144.863 89.0679C139.519 66.751 141.851 54.6891 144.135 48.9756C144.135 48.9756 136.118 59.6701 138.353 99.9578C138.304 99.9578 138.839 113.875 127.664 121.493Z" fill="#27254D"/>
<path d="M146.467 44.7271C146.467 44.7271 136.555 54.9333 144.766 89.0679C144.766 89.0679 144.232 106.843 134.369 118.075C137.187 119.882 141.9 122.519 146.078 123.203C148.313 120.126 150.645 116.708 151.277 115.194L159.925 95.1233C159.925 95.1233 155.018 61.4281 155.018 48.1454C155.067 48.1454 152.006 45.8991 146.467 44.7271Z" fill="#36336B"/>
<path d="M138.79 120.614C141.074 121.786 143.697 122.812 146.127 123.251C148.362 120.175 150.694 116.757 151.325 115.243L159.974 95.1722C159.974 95.1722 155.067 61.4771 155.067 48.1943C155.067 48.1943 153.561 47.12 150.791 46.0457C152.151 54.0055 153.366 64.7489 151.034 68.0696C147.196 73.5389 160.946 86.3821 155.261 93.463C151.228 98.4929 141.754 111.092 138.79 120.614Z" fill="#27254D"/>
<path d="M146.078 123.252C141.9 122.519 137.187 119.882 134.369 118.124C133.3 119.394 132.085 120.517 130.725 121.591C130.725 121.591 135.243 126.914 139.762 129.014L141.365 129.551C141.414 129.551 143.697 126.572 146.078 123.252Z" fill="white"/>
<path d="M101.038 63.284C101.038 63.284 98.8029 81.1571 97.4911 85.9916C97.4911 85.9916 91.3691 104.793 92.7296 128.135L94.8674 127.988C94.8674 127.988 97.2482 120.81 99.7261 112.069C99.969 111.19 100.212 110.311 100.455 109.383C103.176 99.5185 102.301 78.7154 103.176 68.6069C103.953 59.182 113.428 48.3409 114.788 46.8271C114.885 46.7294 114.934 46.6318 114.934 46.6318L115.468 42.7739C114.497 43.4088 106.091 48.9758 104.828 50.1966C104.002 51.0268 102.884 57.5705 101.038 63.284Z" fill="#36336B"/>
<path d="M97.4911 85.9915C98.8029 81.157 101.038 63.2839 101.038 63.2839C100.018 66.5069 98.7058 69.437 97.1024 71.0485C97.1024 71.0485 86.2189 71.2926 78.5907 65.8721C78.5907 65.8721 76.4529 68.4115 76.1128 73.8808L77.2303 79.1548C77.2303 79.2037 90.203 86.8705 97.4911 85.9915Z" fill="#36336B"/>
<path d="M97.4911 85.9915C98.8029 81.157 101.038 63.2839 101.038 63.2839C100.018 66.5069 98.7058 69.437 97.1024 71.0485C97.1024 71.0485 97.6854 78.1782 96.0335 82.036C96.0335 82.036 83.2551 79.8873 76.5015 75.5412L77.2303 79.1548C77.2303 79.2037 90.203 86.8705 97.4911 85.9915Z" fill="#27254D"/>
<path d="M77.8935 66.0356C77.8729 66.067 77.8516 66.1 77.8295 66.1348C77.6109 66.4785 77.3207 66.9895 77.0212 67.6737C76.5024 68.8595 75.9572 70.5625 75.7074 72.8131L71.5729 68.6577C71.7305 66.5528 72.5502 65.0603 73.3374 64.0865C73.7458 63.5814 74.146 63.2153 74.4413 62.9772C74.4901 62.9379 74.5359 62.9022 74.5784 62.8699L74.7637 63.0748C75.6984 64.192 76.7532 65.191 77.8935 66.0356ZM74.9079 62.6409C74.9081 62.6408 74.9082 62.6407 74.908 62.6408L74.9079 62.6409Z" fill="white" stroke="black"/>
<path d="M72.6083 63.4091C71.7492 64.4719 70.8674 66.0697 70.6468 68.2765C70.5341 68.2882 70.4184 68.3078 70.3037 68.3315C69.9776 68.3987 69.6016 68.5111 69.2327 68.6226L69.2148 68.628C68.4493 68.8595 67.72 69.08 67.1853 69.0834C67.1323 69.0794 67.028 69.0533 66.8639 68.9722C66.6988 68.8906 66.5062 68.77 66.2926 68.6158C65.8657 68.3074 65.3938 67.8929 64.9483 67.4693C64.5403 67.0812 64.1626 66.6932 63.8733 66.3869L64.554 66.2058L66.3351 67.0113L66.7918 67.2179L66.996 66.7633C66.9958 66.7638 66.9957 66.764 66.9958 66.7638L66.9961 66.7633L66.9983 66.7586C67.0014 66.7524 67.0071 66.7409 67.0159 66.7246C67.0333 66.6919 67.0626 66.6401 67.1055 66.5728C67.1913 66.4382 67.3314 66.2423 67.5404 66.0157C67.9571 65.5638 68.6519 64.985 69.7467 64.5265L70.0688 64.3916L70.053 64.0427L70.053 64.0427V64.0427L70.053 64.0425L70.053 64.0415L70.0528 64.0372L70.0521 64.0198L70.0493 63.9511C70.047 63.891 70.0438 63.8035 70.0404 63.6943C70.0337 63.4757 70.0262 63.1713 70.0232 62.8279C70.0171 62.1344 70.0298 61.3061 70.0989 60.7039L70.1652 60.1264L69.5848 60.1472L69.5846 60.1472L69.5845 60.1472L69.5845 60.1472L69.5842 60.1472L69.5809 60.1473L69.5628 60.1477C69.546 60.148 69.52 60.1483 69.4859 60.1482C69.4176 60.1479 69.3174 60.146 69.1945 60.1393C68.9471 60.1257 68.615 60.0931 68.2688 60.0179C68.1776 59.9981 68.0883 59.976 68.0014 59.9515C68.7334 59.963 69.4576 59.9004 70.0807 59.818C70.6737 59.7396 71.1912 59.6409 71.5608 59.5617C71.6691 59.5385 71.765 59.5169 71.8465 59.498L73.9729 62.0626C73.9375 62.09 73.9007 62.1191 73.8624 62.1499C73.5216 62.4246 73.0685 62.8399 72.6083 63.4091Z" fill="white" stroke="black"/>
<path d="M66.6545 60.4505C67.0916 60.725 67.5889 60.8824 68.0044 60.976C68.3816 61.0609 68.7378 61.1036 69.0116 61.1251C68.9843 61.5618 68.9745 62.0307 68.9734 62.4606L68.4942 62.3559L65.9796 61.8065L66.282 61.4688L66.2899 61.46L66.2973 61.4509L65.9095 61.1352C66.2973 61.4509 66.2975 61.4507 66.2976 61.4505L66.2979 61.4501L66.2986 61.4493L66.3 61.4476L66.3033 61.4434L66.3118 61.4325C66.3182 61.424 66.3262 61.4133 66.3353 61.4005C66.3536 61.3747 66.3769 61.3399 66.4026 61.2969C66.4537 61.2114 66.5162 61.0897 66.5663 60.9386C66.6123 60.7998 66.6482 60.6345 66.6545 60.4505ZM68.7974 63.1307L68.9748 62.8767C68.978 63.2172 68.9855 63.5165 68.9923 63.7322C68.9925 63.7375 68.9926 63.7427 68.9928 63.7479C68.6013 63.9341 68.2561 64.1349 67.953 64.3394L68.7974 63.1307ZM66.0838 65.8221L66.4335 65.7381C66.3836 65.8026 66.3389 65.8633 66.2993 65.9196L66.0838 65.8221Z" fill="white" stroke="black"/>
<path d="M66.7841 65.1395L68.3875 62.8443L65.035 62.1118L63.4802 62.649L62.9457 66.1162L64.5491 65.6767L66.7841 65.1395Z" fill="white"/>
<path d="M62.552 60.4595L65.7036 60.4194C65.7008 60.4952 65.6856 60.5637 65.6657 60.6237C65.6583 60.6462 65.6502 60.6672 65.642 60.6866L63.0473 61.1833C62.9203 61.066 62.7967 60.9458 62.6931 60.8378C62.6165 60.7579 62.5561 60.6903 62.515 60.639C62.5065 60.6284 62.4997 60.6196 62.4943 60.6125C62.5017 60.5799 62.5174 60.5341 62.5433 60.478C62.5462 60.4718 62.5491 60.4657 62.552 60.4595ZM62.4898 60.6418C62.4897 60.6418 62.4897 60.6408 62.4898 60.6388C62.4899 60.6407 62.4898 60.6417 62.4898 60.6418Z" fill="white" stroke="black"/>
<path d="M99.7261 112.069C97.2482 120.81 94.8674 127.988 94.8674 127.988C94.8674 127.988 88.1138 153.87 87.9194 176.871C87.9194 176.871 100.649 196.306 98.6086 227.462C98.6086 227.462 104.099 233.518 113.185 230.685C113.185 230.685 114.302 187.858 106.48 176.968C106.48 176.968 108.326 164.369 113.088 160.121C113.088 160.121 114.448 175.455 119.355 183.121C119.355 183.121 127.178 212.275 120.376 231.662C120.376 231.662 120.376 232.101 120.278 232.785C123.777 235.422 132.036 235.666 132.036 235.666C132.036 235.666 146.953 200.311 133.203 173.55C133.203 173.55 131.842 148.84 138.984 132.676L136.458 132.969C134.126 135.069 131.988 135.997 131.988 135.997L126.109 126.426C126.109 126.426 126.06 126.426 122.368 126.963C118.675 127.5 119.452 125.302 119.452 125.302C121.347 125.107 126.546 122.177 126.546 122.177L127.858 121.982C127.081 119.833 126.012 116.805 124.894 113.143C120.035 113.485 109.638 114.071 106.042 113.827C103.564 113.631 101.281 112.801 99.7261 112.069Z" fill="#36336B"/>
<path d="M128.781 235.324C130.627 235.569 131.988 235.569 131.988 235.569C131.988 235.569 146.904 200.213 133.154 173.452C133.154 173.452 131.794 148.743 138.936 132.579L136.409 132.872C134.563 134.532 132.862 135.46 132.231 135.802C129.753 143.713 126.498 157.972 128.684 173.257C128.684 173.257 138.401 211.494 128.684 234.592C128.684 234.641 128.733 234.885 128.781 235.324Z" fill="#27254D"/>
<path d="M108.52 231.369C109.929 231.369 111.484 231.125 113.185 230.588C113.185 230.588 114.302 187.761 106.48 176.871C106.48 176.871 108.326 164.272 113.088 160.023C113.088 160.023 111.921 140.734 112.116 134.581C112.116 134.581 99.8718 154.7 101.961 175.113C101.913 175.161 108.86 208.417 108.52 231.369Z" fill="#27254D"/>
<path d="M131.988 235.569C131.988 235.569 123.728 235.325 120.23 232.688C119.938 234.446 118.724 237.815 114.351 239.573C113.379 241.722 110.221 244.017 110.221 244.017C110.221 244.017 104.779 245.433 104.439 247.484C104.148 249.584 104.099 249.828 104.099 249.828C104.099 249.828 122.222 253.539 127.955 247.679L128.149 248.217C128.149 248.217 132.377 248.412 133.445 246.752C133.445 246.752 134.806 239.231 131.988 235.569Z" fill="#36336B"/>
<path d="M131.988 235.569C131.988 235.569 130.627 235.52 128.781 235.325C127.615 235.178 126.303 234.983 124.991 234.641C123.194 234.201 121.444 233.567 120.278 232.688C120.181 233.225 119.987 233.908 119.695 234.641C119.598 234.836 119.501 235.08 119.404 235.276C119.501 235.373 119.598 235.422 119.695 235.52C121.444 236.838 124.36 238.206 129.267 238.596C129.559 241.233 129.85 244.847 129.607 248.217C130.919 248.119 132.814 247.826 133.445 246.8C133.445 246.752 134.806 239.231 131.988 235.569Z" fill="#27254D"/>
<path d="M114.351 239.573C114.497 238.108 113.185 230.636 113.185 230.636C104.099 233.469 98.6086 227.413 98.6086 227.413C98.6086 227.413 95.742 237.815 87.3364 238.645C78.9309 239.475 78.0077 238.987 77.2789 241.868C77.2789 241.868 90.0087 247.679 100.989 242.698C100.989 242.698 104.585 242.552 104.779 244.017L110.221 243.968C110.172 244.017 113.379 241.722 114.351 239.573Z" fill="#36336B"/>
<mask id="path-56-inside-1" fill="white">
<path fill-rule="evenodd" clip-rule="evenodd" d="M111.603 16.3061C111.596 16.3062 111.588 16.3062 111.581 16.3062L111.538 15.1342L111.533 15.0365C111.533 15.0365 111.533 15.0364 111.535 15.0363L111.533 14.9876C111.533 14.9876 117.509 14.1575 121.493 13.0831C122.902 12.6925 124.02 12.3018 124.603 11.9111C124.603 11.9111 125.769 11.9111 126.983 12.2041C128.149 12.4483 129.316 12.9855 129.51 14.011C129.51 14.011 129.501 14.0219 129.485 14.0434C129.495 14.0808 129.503 14.1188 129.51 14.1575C129.51 14.1575 128.545 15.3427 128.522 17.3754C128.537 18.6716 128.937 20.296 130.19 22.1662C130.109 22.0934 130.031 22.0208 129.955 21.9484C130.03 22.0687 130.108 22.1902 130.19 22.3127C130.19 22.3127 130.725 20.0664 132.668 19.9199C134.001 20.1877 133.993 21.6392 133.982 23.7891V23.7895V23.7899C133.981 23.9914 133.98 24.1991 133.98 24.4125C133.98 26.9031 131.162 28.5634 131.162 28.5634L131.162 32.1075C130.142 34.305 118.626 42.8997 118.626 42.8997C117.995 42.2161 116.78 40.5069 115.857 39.1884L116.152 36.7041C115.813 36.4314 114.948 35.7051 114.448 35.0094C113.816 34.1304 112.359 28.3192 112.359 28.3192L111.873 21.1895L111.603 16.3061ZM111.824 21.1406L112.31 28.2703C111.387 28.1238 110.464 22.5568 110.464 21.9708C110.464 21.3359 111.824 21.1406 111.824 21.1406Z"/>
</mask>
<path fill-rule="evenodd" clip-rule="evenodd" d="M111.603 16.3061C111.596 16.3062 111.588 16.3062 111.581 16.3062L111.538 15.1342L111.533 15.0365C111.533 15.0365 111.533 15.0364 111.535 15.0363L111.533 14.9876C111.533 14.9876 117.509 14.1575 121.493 13.0831C122.902 12.6925 124.02 12.3018 124.603 11.9111C124.603 11.9111 125.769 11.9111 126.983 12.2041C128.149 12.4483 129.316 12.9855 129.51 14.011C129.51 14.011 129.501 14.0219 129.485 14.0434C129.495 14.0808 129.503 14.1188 129.51 14.1575C129.51 14.1575 128.545 15.3427 128.522 17.3754C128.537 18.6716 128.937 20.296 130.19 22.1662C130.109 22.0934 130.031 22.0208 129.955 21.9484C130.03 22.0687 130.108 22.1902 130.19 22.3127C130.19 22.3127 130.725 20.0664 132.668 19.9199C134.001 20.1877 133.993 21.6392 133.982 23.7891V23.7895V23.7899C133.981 23.9914 133.98 24.1991 133.98 24.4125C133.98 26.9031 131.162 28.5634 131.162 28.5634L131.162 32.1075C130.142 34.305 118.626 42.8997 118.626 42.8997C117.995 42.2161 116.78 40.5069 115.857 39.1884L116.152 36.7041C115.813 36.4314 114.948 35.7051 114.448 35.0094C113.816 34.1304 112.359 28.3192 112.359 28.3192L111.873 21.1895L111.603 16.3061ZM111.824 21.1406L112.31 28.2703C111.387 28.1238 110.464 22.5568 110.464 21.9708C110.464 21.3359 111.824 21.1406 111.824 21.1406Z" fill="white"/>
<path d="M111.581 16.3062L110.582 16.343L110.617 17.3062H111.581V16.3062ZM111.603 16.3061L112.601 16.251L112.549 15.3056L111.602 15.3061L111.603 16.3061ZM111.538 15.1342L112.537 15.0974L112.537 15.0882L112.537 15.079L111.538 15.1342ZM111.533 15.0365L111.395 14.046L110.483 14.1728L110.534 15.0917L111.533 15.0365ZM111.535 15.0363L111.673 16.0267L112.567 15.9019L112.534 14.9994L111.535 15.0363ZM111.533 14.9876L111.395 13.9972L110.5 14.1215L110.533 15.0245L111.533 14.9876ZM121.493 13.0831L121.753 14.0487L121.76 14.0468L121.493 13.0831ZM124.603 11.9111V10.9111H124.299L124.046 11.0804L124.603 11.9111ZM126.983 12.2041L126.749 13.1763L126.764 13.1798L126.778 13.1829L126.983 12.2041ZM129.51 14.011L130.285 14.6423L130.579 14.2817L130.492 13.8248L129.51 14.011ZM129.485 14.0434L128.684 13.445L128.397 13.8291L128.517 14.2933L129.485 14.0434ZM129.51 14.1575L130.285 14.7888L130.576 14.4321L130.494 13.9795L129.51 14.1575ZM128.522 17.3754L127.522 17.3642L127.522 17.3754L127.522 17.3866L128.522 17.3754ZM130.19 22.1662L129.521 22.9093L131.021 21.6096L130.19 22.1662ZM129.955 21.9484L130.644 21.224L129.106 22.4766L129.955 21.9484ZM130.19 22.3127L129.359 22.8692L130.633 24.7709L131.163 22.5442L130.19 22.3127ZM132.668 19.9199L132.865 18.9395L132.73 18.9123L132.593 18.9227L132.668 19.9199ZM133.982 23.7891L132.982 23.784V23.7891H133.982ZM133.982 23.7899L134.982 23.7951V23.7899H133.982ZM131.162 28.5634L130.654 27.7018L130.162 27.9919L130.162 28.5634L131.162 28.5634ZM131.162 32.1075L132.069 32.5286L132.162 32.3283V32.1075L131.162 32.1075ZM118.626 42.8997L117.892 43.5783L118.503 44.2397L119.225 43.7011L118.626 42.8997ZM115.857 39.1884L114.864 39.0704L114.819 39.4493L115.038 39.7619L115.857 39.1884ZM116.152 36.7041L117.145 36.822L117.21 36.2719L116.779 35.9248L116.152 36.7041ZM114.448 35.0094L113.636 35.593H113.636L114.448 35.0094ZM112.359 28.3192L111.361 28.3872L111.367 28.4761L111.389 28.5625L112.359 28.3192ZM111.873 21.1895L110.874 21.2447L110.875 21.2575L111.873 21.1895ZM112.31 28.2703L112.153 29.2579L113.393 29.4547L113.308 28.2023L112.31 28.2703ZM111.824 21.1406L112.822 21.0726L112.749 19.9976L111.682 20.1507L111.824 21.1406ZM111.581 17.3062C111.589 17.3062 111.596 17.3062 111.603 17.3061L111.602 15.3061C111.595 15.3062 111.588 15.3062 111.581 15.3062V17.3062ZM110.539 15.1711L110.582 16.343L112.581 16.2693L112.537 15.0974L110.539 15.1711ZM110.534 15.0917L110.54 15.1894L112.537 15.079L112.531 14.9813L110.534 15.0917ZM111.396 14.0458C111.396 14.0459 111.395 14.046 111.395 14.046C111.395 14.046 111.395 14.046 111.395 14.046C111.395 14.046 111.395 14.046 111.395 14.046C111.395 14.046 111.395 14.046 111.395 14.046C111.395 14.046 111.395 14.046 111.395 14.046C111.395 14.046 111.395 14.046 111.395 14.046C111.395 14.046 111.395 14.046 111.395 14.046C111.395 14.046 111.395 14.046 111.395 14.046C111.395 14.046 111.395 14.046 111.395 14.046C111.395 14.046 111.395 14.046 111.533 15.0365C111.671 16.027 111.671 16.027 111.671 16.027C111.671 16.027 111.671 16.027 111.671 16.027C111.671 16.027 111.671 16.027 111.671 16.027C111.671 16.027 111.671 16.027 111.671 16.027C111.671 16.027 111.671 16.027 111.671 16.027C111.671 16.027 111.671 16.027 111.671 16.027C111.671 16.027 111.671 16.027 111.671 16.027C111.671 16.027 111.671 16.027 111.671 16.0269C111.671 16.0269 111.671 16.0269 111.671 16.0269C111.671 16.0268 111.672 16.0268 111.673 16.0267L111.396 14.0458ZM110.533 15.0245L110.535 15.0731L112.534 14.9994L112.532 14.9508L110.533 15.0245ZM121.233 12.1176C119.287 12.6423 116.834 13.1121 114.85 13.4527C113.861 13.6223 112.996 13.7586 112.379 13.8525C112.07 13.8994 111.823 13.9357 111.654 13.9602C111.569 13.9725 111.504 13.9818 111.46 13.988C111.439 13.9911 111.422 13.9934 111.411 13.9949C111.406 13.9957 111.401 13.9963 111.399 13.9966C111.397 13.9968 111.397 13.997 111.396 13.9971C111.396 13.9971 111.395 13.9971 111.395 13.9971C111.395 13.9972 111.395 13.9972 111.395 13.9972C111.395 13.9972 111.395 13.9972 111.533 14.9876C111.67 15.9781 111.67 15.9781 111.67 15.9781C111.671 15.9781 111.671 15.9781 111.671 15.9781C111.671 15.978 111.671 15.978 111.672 15.9779C111.673 15.9778 111.674 15.9777 111.675 15.9774C111.678 15.977 111.683 15.9764 111.689 15.9755C111.701 15.9739 111.718 15.9714 111.741 15.9682C111.787 15.9617 111.854 15.9521 111.941 15.9395C112.114 15.9144 112.365 15.8775 112.679 15.8298C113.306 15.7344 114.184 15.5961 115.188 15.4239C117.188 15.0807 119.715 14.5983 121.753 14.0487L121.233 12.1176ZM124.046 11.0804C123.617 11.3678 122.655 11.7234 121.226 12.1195L121.76 14.0468C123.15 13.6616 124.422 13.2358 125.159 12.7419L124.046 11.0804ZM127.218 11.232C126.545 11.0696 125.895 10.9904 125.42 10.9512C125.18 10.9314 124.981 10.9214 124.839 10.9163C124.769 10.9138 124.712 10.9125 124.672 10.9118C124.652 10.9115 124.636 10.9113 124.624 10.9112C124.618 10.9112 124.614 10.9112 124.61 10.9111C124.608 10.9111 124.607 10.9111 124.605 10.9111C124.605 10.9111 124.604 10.9111 124.604 10.9111C124.604 10.9111 124.603 10.9111 124.603 10.9111C124.603 10.9111 124.603 10.9111 124.603 10.9111C124.603 10.9111 124.603 10.9111 124.603 11.9111C124.603 12.9111 124.603 12.9111 124.602 12.9111C124.602 12.9111 124.602 12.9111 124.602 12.9111C124.602 12.9111 124.602 12.9111 124.602 12.9111C124.602 12.9111 124.602 12.9111 124.602 12.9111C124.601 12.9111 124.602 12.9111 124.602 12.9111C124.603 12.9111 124.605 12.9111 124.608 12.9112C124.614 12.9112 124.624 12.9113 124.638 12.9116C124.667 12.912 124.711 12.913 124.768 12.9151C124.883 12.9192 125.051 12.9275 125.255 12.9444C125.667 12.9784 126.208 13.0457 126.749 13.1763L127.218 11.232ZM130.492 13.8248C130.327 12.9527 129.754 12.3557 129.147 11.9703C128.547 11.5891 127.836 11.3609 127.188 11.2254L126.778 13.1829C127.297 13.2915 127.752 13.454 128.075 13.6588C128.391 13.8594 128.498 14.0438 128.527 14.1972L130.492 13.8248ZM130.286 14.6419C130.29 14.637 130.292 14.6345 130.292 14.6346C130.292 14.6346 130.291 14.6352 130.29 14.6365C130.29 14.6372 130.289 14.638 130.288 14.639C130.288 14.6394 130.287 14.64 130.287 14.6405C130.287 14.6408 130.286 14.6411 130.286 14.6414C130.286 14.6416 130.286 14.6417 130.286 14.6419C130.286 14.6419 130.286 14.642 130.286 14.6421C130.286 14.6421 130.286 14.6422 130.286 14.6422C130.285 14.6422 130.285 14.6423 130.285 14.6423C130.285 14.6423 130.285 14.6423 129.51 14.011C128.734 13.3796 128.734 13.3796 128.734 13.3797C128.734 13.3797 128.734 13.3797 128.734 13.3797C128.734 13.3798 128.734 13.3798 128.734 13.3798C128.734 13.3799 128.734 13.38 128.734 13.3801C128.734 13.3803 128.734 13.3804 128.734 13.3806C128.733 13.3809 128.733 13.3813 128.733 13.3817C128.732 13.3824 128.732 13.3832 128.731 13.384C128.73 13.3857 128.728 13.3875 128.726 13.3895C128.723 13.3935 128.72 13.3982 128.715 13.4037C128.707 13.4146 128.696 13.4284 128.684 13.445L130.286 14.6419ZM130.494 13.9795C130.483 13.9166 130.469 13.8546 130.453 13.7936L128.517 14.2933C128.52 14.3069 128.523 14.321 128.526 14.3355L130.494 13.9795ZM129.522 17.3866C129.532 16.5288 129.74 15.8583 129.939 15.4095C130.038 15.1849 130.135 15.0169 130.203 14.9108C130.236 14.8579 130.262 14.8208 130.277 14.8001C130.285 14.7898 130.29 14.7836 130.291 14.7817C130.292 14.7808 130.292 14.7809 130.291 14.782C130.29 14.7826 130.29 14.7835 130.289 14.7846C130.288 14.7852 130.288 14.7858 130.287 14.7865C130.287 14.7869 130.287 14.7872 130.286 14.7876C130.286 14.7878 130.286 14.7881 130.286 14.7882C130.286 14.7885 130.285 14.7888 129.51 14.1575C128.734 13.5262 128.734 13.5265 128.734 13.5268C128.734 13.5269 128.734 13.5273 128.733 13.5275C128.733 13.528 128.733 13.5284 128.732 13.5289C128.731 13.5299 128.731 13.531 128.73 13.5321C128.728 13.5344 128.726 13.537 128.723 13.5399C128.719 13.5457 128.713 13.5527 128.707 13.5609C128.694 13.5773 128.678 13.5986 128.659 13.6247C128.622 13.6768 128.572 13.7481 128.515 13.838C128.401 14.0177 128.255 14.2731 128.111 14.5988C127.821 15.2508 127.536 16.1893 127.522 17.3642L129.522 17.3866ZM131.021 21.6096C129.868 19.8878 129.534 18.4508 129.522 17.3642L127.522 17.3866C127.539 18.8924 128.007 20.7042 129.359 22.7227L131.021 21.6096ZM129.265 22.6727C129.348 22.7516 129.433 22.8305 129.521 22.9093L130.859 21.423C130.785 21.3563 130.713 21.29 130.644 21.224L129.265 22.6727ZM131.021 21.7562C130.945 21.6429 130.873 21.5309 130.804 21.4202L129.106 22.4766C129.187 22.6066 129.271 22.7375 129.359 22.8692L131.021 21.7562ZM132.593 18.9227C131.194 19.0281 130.333 19.9009 129.862 20.6266C129.624 20.992 129.467 21.3457 129.369 21.6058C129.319 21.7372 129.283 21.8484 129.259 21.93C129.246 21.9709 129.237 22.0047 129.23 22.0302C129.227 22.043 129.224 22.0537 129.222 22.0622C129.221 22.0665 129.22 22.0703 129.219 22.0734C129.219 22.075 129.218 22.0765 129.218 22.0778C129.218 22.0784 129.218 22.079 129.218 22.0796C129.218 22.0799 129.218 22.0803 129.217 22.0805C129.217 22.0809 129.217 22.0812 130.19 22.3127C131.163 22.5442 131.163 22.5445 131.163 22.5449C131.163 22.545 131.163 22.5454 131.163 22.5456C131.163 22.546 131.162 22.5465 131.162 22.5468C131.162 22.5476 131.162 22.5482 131.162 22.5487C131.162 22.5497 131.162 22.5502 131.162 22.5503C131.161 22.5503 131.162 22.5484 131.163 22.5447C131.165 22.5372 131.169 22.5226 131.175 22.5018C131.188 22.46 131.209 22.3945 131.239 22.313C131.302 22.1474 131.4 21.9303 131.539 21.7158C131.821 21.2818 132.199 20.9581 132.743 20.917L132.593 18.9227ZM134.982 23.7943C134.987 22.7704 135 21.7236 134.8 20.9102C134.695 20.4816 134.514 20.0372 134.181 19.6663C133.833 19.2803 133.383 19.0436 132.865 18.9395L132.471 20.9003C132.619 20.9301 132.668 20.9752 132.694 21.0039C132.733 21.0477 132.8 21.1508 132.858 21.3872C132.985 21.904 132.988 22.6579 132.982 23.784L134.982 23.7943ZM134.982 23.7895V23.7891H132.982V23.7895H134.982ZM134.982 23.7899V23.7895H132.982V23.7899H134.982ZM134.98 24.4125C134.98 24.2021 134.981 23.997 134.982 23.7951L132.982 23.7847C132.981 23.9859 132.98 24.1961 132.98 24.4125H134.98ZM131.162 28.5634C131.67 29.425 131.67 29.4248 131.67 29.4246C131.67 29.4246 131.671 29.4244 131.671 29.4242C131.671 29.424 131.672 29.4237 131.672 29.4234C131.673 29.4227 131.675 29.422 131.676 29.4211C131.679 29.4194 131.682 29.4173 131.687 29.4147C131.695 29.4097 131.706 29.4029 131.72 29.3946C131.747 29.3778 131.784 29.3545 131.829 29.3247C131.92 29.2654 132.046 29.18 132.195 29.0702C132.492 28.8519 132.889 28.5307 133.289 28.1181C134.067 27.3162 134.98 26.0395 134.98 24.4125H132.98C132.98 25.2761 132.484 26.0749 131.853 26.7257C131.549 27.0395 131.241 27.289 131.009 27.4599C130.894 27.5447 130.8 27.6085 130.737 27.6496C130.705 27.6702 130.682 27.6849 130.667 27.6937C130.66 27.6981 130.656 27.701 130.653 27.7024C130.652 27.703 130.652 27.7033 130.652 27.7033C130.652 27.7032 130.652 27.7031 130.653 27.7028C130.653 27.7027 130.653 27.7026 130.653 27.7024C130.653 27.7023 130.654 27.7022 130.654 27.7021C130.654 27.702 130.654 27.7018 131.162 28.5634ZM132.162 32.1075L132.162 28.5634L130.162 28.5634L130.162 32.1075L132.162 32.1075ZM118.626 42.8997C119.225 43.7011 119.225 43.7011 119.225 43.701C119.225 43.7009 119.225 43.7008 119.225 43.7006C119.226 43.7003 119.226 43.6999 119.227 43.6994C119.228 43.6983 119.231 43.6966 119.233 43.6945C119.239 43.6902 119.248 43.6839 119.259 43.6756C119.281 43.659 119.314 43.6345 119.356 43.6025C119.442 43.5384 119.567 43.4444 119.726 43.3241C120.044 43.0835 120.5 42.7377 121.05 42.316C122.15 41.4729 123.628 40.3246 125.139 39.1062C126.648 37.8897 128.201 36.5948 129.446 35.4599C130.068 34.8932 130.625 34.3561 131.064 33.8817C131.48 33.4329 131.869 32.9587 132.069 32.5286L130.255 31.6864C130.199 31.8057 130.006 32.0808 129.597 32.5226C129.211 32.9389 128.7 33.4338 128.099 33.9818C126.898 35.0765 125.381 36.3423 123.884 37.5491C122.389 38.7541 120.925 39.8919 119.833 40.7289C119.288 41.1473 118.836 41.4901 118.521 41.7281C118.363 41.8471 118.24 41.9399 118.156 42.0029C118.114 42.0343 118.082 42.0583 118.06 42.0744C118.05 42.0824 118.041 42.0885 118.036 42.0925C118.033 42.0945 118.031 42.096 118.03 42.097C118.029 42.0974 118.029 42.0978 118.029 42.098C118.029 42.0982 118.028 42.0982 118.028 42.0983C118.028 42.0983 118.028 42.0983 118.626 42.8997ZM115.038 39.7619C115.941 41.0526 117.203 42.8323 117.892 43.5783L119.361 42.2211C118.787 41.5998 117.619 39.9612 116.676 38.6148L115.038 39.7619ZM115.159 36.5861L114.864 39.0704L116.85 39.3063L117.145 36.822L115.159 36.5861ZM113.636 35.593C114.224 36.4111 115.188 37.212 115.525 37.4834L116.779 35.9248C116.438 35.6508 115.672 34.9992 115.26 34.4259L113.636 35.593ZM112.359 28.3192C111.389 28.5625 111.389 28.5626 111.389 28.5627C111.389 28.5627 111.389 28.5628 111.389 28.5629C111.389 28.5631 111.389 28.5634 111.389 28.5638C111.389 28.5646 111.39 28.5658 111.39 28.5672C111.391 28.5702 111.392 28.5746 111.393 28.5803C111.396 28.5916 111.4 28.6084 111.406 28.6301C111.417 28.6737 111.433 28.7373 111.454 28.8185C111.495 28.9808 111.555 29.2132 111.629 29.4947C111.777 30.0572 111.98 30.8179 112.204 31.6076C112.428 32.3952 112.674 33.2219 112.907 33.9129C113.024 34.2577 113.14 34.5797 113.252 34.8511C113.355 35.1006 113.484 35.3814 113.636 35.593L115.26 34.4259C115.264 34.432 115.249 34.4105 115.215 34.3426C115.184 34.2796 115.145 34.1952 115.101 34.0881C115.013 33.8734 114.912 33.5972 114.803 33.2736C114.585 32.6278 114.348 31.8369 114.129 31.0618C113.909 30.2888 113.709 29.5418 113.564 28.9872C113.491 28.7102 113.432 28.4817 113.391 28.3228C113.371 28.2433 113.355 28.1813 113.345 28.1393C113.339 28.1183 113.335 28.1023 113.333 28.0916C113.331 28.0863 113.33 28.0823 113.33 28.0796C113.329 28.0783 113.329 28.0774 113.329 28.0767C113.329 28.0764 113.329 28.0762 113.329 28.0761C113.329 28.076 113.329 28.076 113.329 28.0759C113.329 28.0759 113.329 28.0759 112.359 28.3192ZM110.875 21.2575L111.361 28.3872L113.356 28.2512L112.871 21.1215L110.875 21.2575ZM110.604 16.3613L110.874 21.2447L112.871 21.1343L112.601 16.251L110.604 16.3613ZM113.308 28.2023L112.822 21.0726L110.827 21.2086L111.312 28.3383L113.308 28.2023ZM109.464 21.9708C109.464 22.2169 109.539 22.7635 109.636 23.3459C109.74 23.9697 109.888 24.7465 110.067 25.5126C110.244 26.2706 110.459 27.0532 110.701 27.6717C110.821 27.9766 110.964 28.2867 111.138 28.5431C111.275 28.7447 111.598 29.1697 112.153 29.2579L112.467 27.2826C112.792 27.3342 112.884 27.5533 112.793 27.42C112.74 27.3416 112.66 27.1882 112.563 26.9415C112.373 26.4566 112.184 25.7834 112.015 25.0581C111.847 24.3408 111.707 23.6068 111.609 23.0175C111.56 22.723 111.522 22.4691 111.497 22.2751C111.469 22.0583 111.464 21.9696 111.464 21.9708H109.464ZM111.824 21.1406C111.682 20.1507 111.682 20.1508 111.682 20.1508C111.682 20.1508 111.681 20.1508 111.681 20.1509C111.681 20.1509 111.68 20.151 111.68 20.151C111.679 20.1511 111.678 20.1513 111.678 20.1514C111.676 20.1517 111.673 20.152 111.671 20.1524C111.666 20.1532 111.659 20.1541 111.652 20.1554C111.637 20.1578 111.616 20.1611 111.592 20.1655C111.542 20.1742 111.475 20.187 111.396 20.2047C111.24 20.2391 111.021 20.2955 110.791 20.3819C110.573 20.464 110.284 20.5963 110.032 20.8088C109.773 21.0268 109.464 21.4129 109.464 21.9708H111.464C111.464 22.2112 111.324 22.3348 111.321 22.3376C111.318 22.3404 111.329 22.3303 111.364 22.3118C111.398 22.2939 111.442 22.2739 111.497 22.2533C111.608 22.2115 111.728 22.1794 111.828 22.1574C111.876 22.1468 111.915 22.1394 111.94 22.1349C111.953 22.1327 111.961 22.1312 111.966 22.1305C111.968 22.1301 111.97 22.1299 111.97 22.1299C111.97 22.1299 111.97 22.13 111.969 22.1301C111.969 22.1301 111.968 22.1301 111.968 22.1302C111.968 22.1302 111.967 22.1303 111.967 22.1303C111.967 22.1303 111.967 22.1304 111.967 22.1304C111.967 22.1304 111.966 22.1304 111.824 21.1406Z" fill="black" mask="url(#path-56-inside-1)"/>
<path d="M126.935 47.2666C128.052 44.8737 129.17 42.7739 130.142 41.0647L126.935 44.8737L123.145 49.3664L121.493 47.6572L118.189 44.2877L114.788 46.7294L117.946 45.2644L121.493 48.4874L123.874 50.6849L126.449 48.2921C126.643 47.9991 126.789 47.6572 126.935 47.2666Z" fill="#0AC41E"/>
<path d="M101.718 116.561C103.079 116.952 104.682 117.391 106.528 117.733C110.464 118.466 115.517 118.905 121.493 118.368C123.048 118.222 124.651 118.026 126.352 117.782V117.733C125.914 116.366 125.38 114.803 124.894 113.143C123.922 113.192 122.756 113.289 121.493 113.338C121.25 113.338 120.959 113.387 120.667 113.387C115.468 113.68 108.763 114.022 106.042 113.827C105.265 113.778 104.536 113.68 103.856 113.485C102.253 113.143 100.844 112.557 99.7261 112.069C99.386 113.241 99.0459 114.413 98.7543 115.487C99.5317 115.829 100.552 116.171 101.718 116.561Z" fill="#27254D"/>
<path d="M113.136 230.636C111.484 231.174 109.929 231.369 108.472 231.418C102.204 231.467 98.56 227.462 98.56 227.462C98.56 227.462 98.3171 228.439 97.6854 229.806C99.6289 231.613 102.884 233.518 108.423 234.299C108.326 236.936 108.083 239.426 107.694 241.673C107.549 242.503 107.403 243.333 107.208 244.066H110.172C110.172 244.066 111.63 243.04 112.845 241.673C113.428 241.038 114.011 240.305 114.302 239.622C114.399 238.987 114.156 237.034 113.865 235.178C113.865 235.031 113.816 234.885 113.816 234.69C113.525 232.541 113.136 230.636 113.136 230.636Z" fill="#27254D"/>
<path d="M100.698 112.508C106.334 105.916 103.419 80.913 103.905 69.9254C103.953 68.5093 104.099 67.3373 104.293 66.4582C105.557 60.7936 111.824 51.3199 115.031 46.6807L114.837 46.7783L114.788 46.8272C113.428 48.341 103.953 59.2309 103.176 68.6069C103.176 68.6558 103.176 68.7046 103.176 68.8023C102.35 79.0085 103.176 99.5674 100.503 109.383C100.261 110.311 100.018 111.19 99.7747 112.069C100.018 112.215 100.358 112.362 100.698 112.508Z" fill="#0AC41E"/>
<path d="M77.619 65.1396C76.5987 66.4582 75.2382 68.8022 74.558 72.3182L76.1128 73.9297C76.4529 68.4603 78.5907 65.921 78.5907 65.921C78.2506 65.628 77.9591 65.3838 77.619 65.1396Z" fill="#EEEDFF"/>
<path d="M134.428 118.799C134.434 118.792 134.441 118.785 134.447 118.778L134.452 118.773C134.453 118.771 134.455 118.769 134.457 118.767C134.771 118.96 135.121 119.171 135.467 119.38L135.471 119.382L135.471 119.382L135.473 119.384C138.15 120.98 141.803 122.861 145.234 123.6C144.86 124.132 144.475 124.647 144.1 125.149C144.099 125.149 144.099 125.149 144.099 125.15C143.985 125.116 143.881 125.09 143.784 125.065C141.785 124.442 140.127 123.679 138.808 122.874C136.569 121.496 135.227 119.993 134.428 118.799Z" fill="#F3F2FF" stroke="black"/>
</g>
</g>
<defs>
<linearGradient id="paint0_linear" x1="115.428" y1="261.217" x2="114.873" y2="236.646" gradientUnits="userSpaceOnUse">
<stop stop-color="white" stop-opacity="0"/>
<stop offset="1" stop-color="#82A9FF" stop-opacity="0.21"/>
</linearGradient>
<linearGradient id="paint1_linear" x1="120.862" y1="10.1019" x2="120.862" y2="0.292938" gradientUnits="userSpaceOnUse">
<stop stop-color="#36336B"/>
<stop offset="1" stop-color="#4F4387"/>
</linearGradient>
<clipPath id="clip0">
<rect width="1440" height="3267" fill="white" transform="translate(-894 -2081)"/>
</clipPath>
<clipPath id="clip1">
<rect width="96" height="54" fill="white" transform="translate(62.974 25)"/>
</clipPath>
<clipPath id="clip2">
<rect width="121" height="129" fill="white" transform="translate(48.974 3.40918) rotate(-1.61455)"/>
</clipPath>
<clipPath id="clip3">
<rect width="98" height="247" fill="white" transform="translate(61.974 4)"/>
</clipPath>
</defs>
</svg>
