<svg width="340" height="226" viewBox="0 0 340 226" fill="none" xmlns="http://www.w3.org/2000/svg">
<rect width="340" height="226" fill="#E5E5E5"/>
<g clip-path="url(#clip0)">
<rect width="1440" height="3267" transform="translate(-1011 -429)" fill="white"/>
<path d="M-1010 -349H430V226H-1010V-349Z" fill="#2F70FE"/>
<g style="mix-blend-mode:luminosity">
<path opacity="0.4" d="M234.266 56.8433L230.738 60.7101L211.424 81.8386L207.896 72.2677L115.566 93.2039C110.337 94.3789 104.811 93.6953 100.174 91.3026L99.6313 91.0249C93.7852 87.9912 86.4836 87.9699 80.6128 91.0035L47.1886 108.244L42.4031 96.6862L39.9611 90.7899L86.237 73.7418C92.5271 71.4132 99.73 71.8832 105.576 74.9595C109.548 77.7154 114.506 79.0186 119.489 78.7195C120.623 78.6554 121.758 78.5059 122.893 78.2495L201.532 61.5005L196.475 51.6733L234.266 56.8433Z" fill="#6457A4"/>
<path opacity="0.4" d="M309.766 3.72882L306.821 30.5594L297.853 24.1895L233.513 85.2588C229.862 88.7086 224.796 90.7382 219.402 90.9151L218.772 90.9377C211.962 91.1463 205.821 94.5684 202.799 99.8801L185.572 130.095L174.301 122.651L202.001 86.1995C205.826 81.1752 212.22 78.1708 219.227 78.1067C224.412 78.6326 229.506 77.4271 233.521 74.817C234.453 74.217 235.298 73.5389 236.103 72.8071L291.843 20.792L281.039 14.5617L309.766 3.72882Z" fill="white"/>
<path opacity="0.5" d="M150.15 211.707C150.15 211.707 151.26 207.221 145.488 206.772C145.488 206.772 144.477 210.511 150.15 211.707Z" fill="#6457A4"/>
<path d="M150.397 213.374C150.397 213.374 154.787 214.185 155.207 209.934C155.207 209.913 151.531 209.186 150.397 213.374Z" fill="#6457A4"/>
<path d="M150.076 211.109C150.076 211.109 151.309 216.642 150.347 219.398" stroke="#6457A4" stroke-miterlimit="10" stroke-linecap="round" stroke-linejoin="round"/>
<path d="M206.342 204.593C206.342 204.593 201.137 203.738 202.913 198.932C202.913 198.932 207.28 199.594 206.342 204.593Z" fill="#6457A4"/>
<path opacity="0.5" d="M206.959 199.167C207.156 198.974 206.589 197.863 206.49 197.628C205.602 195.193 206.416 191.903 208.932 190.365C209.031 191.369 209.105 192.33 209.376 193.313C209.82 194.851 209.623 195.706 208.636 196.987C208.094 197.757 207.674 198.483 206.959 199.167Z" fill="#6457A4"/>
<path opacity="0.5" d="M206.268 209.186C206.268 209.186 205.158 204.7 210.93 204.251C210.93 204.251 211.966 207.99 206.268 209.186Z" fill="#6457A4"/>
<path d="M206.219 213.33C206.219 213.33 201.828 214.142 201.409 209.891C201.384 209.87 205.06 209.143 206.219 213.33Z" fill="#6457A4"/>
<path d="M208.266 191.903C208.266 191.903 205.331 203.354 206.293 219.355" stroke="#6457A4" stroke-miterlimit="10" stroke-linecap="round" stroke-linejoin="round"/>
<path d="M263.57 175.773C263.57 175.773 265.766 171.586 260.216 170.09C260.216 170.09 258.316 173.551 263.57 175.773Z" fill="#6457A4"/>
<path opacity="0.5" d="M264.804 184.426C264.754 184.234 265.667 183.678 265.815 183.55C267.517 182.226 268.504 179.726 267.517 177.825C266.974 178.466 266.506 179.085 265.84 179.662C264.828 180.538 264.557 181.179 264.631 182.396C264.705 183.08 264.631 183.721 264.804 184.426Z" fill="#6457A4"/>
<path opacity="0.5" d="M265.939 208.289C265.939 208.289 267.049 203.803 261.276 203.354C261.276 203.354 260.265 207.093 265.939 208.289Z" fill="#6457A4"/>
<path d="M265.766 192.48C265.766 192.48 265.642 187.887 259.895 188.635C259.87 188.656 259.92 192.502 265.766 192.48Z" fill="#6457A4"/>
<path d="M266.086 201.11C266.086 201.11 271.291 200.234 269.491 195.449C269.515 195.449 265.149 196.111 266.086 201.11Z" fill="#6457A4"/>
<path d="M266.012 212.199C266.012 212.199 270.403 213.01 270.823 208.759C270.823 208.759 267.147 208.033 266.012 212.199Z" fill="#6457A4"/>
<path d="M263.176 174.62C263.176 174.62 267.961 193.035 265.494 219.355" stroke="#6457A4" stroke-miterlimit="10" stroke-linecap="round" stroke-linejoin="round"/>
<path d="M331.702 175.773C331.702 175.773 329.506 171.586 335.056 170.09C335.032 170.09 336.956 173.551 331.702 175.773Z" fill="#6457A4"/>
<path opacity="0.5" d="M330.468 184.426C330.517 184.234 329.605 183.678 329.457 183.55C327.755 182.226 326.768 179.726 327.755 177.825C328.297 178.466 328.766 179.085 329.432 179.662C330.443 180.538 331.924 181.179 331.85 182.396C331.776 183.08 330.616 183.721 330.468 184.426Z" fill="#6457A4"/>
<path opacity="0.5" d="M333.477 166.288C333.527 166.096 332.614 165.541 332.466 165.412C330.764 164.088 329.778 161.588 330.764 159.687C331.307 160.328 331.775 160.947 332.441 161.524C333.453 162.4 333.724 163.041 333.65 164.259C333.576 164.964 333.65 165.605 333.477 166.288Z" fill="#6457A4"/>
<path opacity="0.5" d="M329.333 208.289C329.333 208.289 328.223 203.803 333.996 203.354C333.996 203.354 335.007 207.093 329.333 208.289Z" fill="#6457A4"/>
<path d="M329.703 192.48C329.703 192.48 329.827 187.887 335.574 188.635C335.574 188.656 336.092 192.502 329.703 192.48Z" fill="#6457A4"/>
<path d="M334.538 158.277C334.538 158.277 333.182 153.834 338.929 153.15C338.929 153.171 340.656 156.718 334.538 158.277Z" fill="#6457A4"/>
<path d="M329.161 201.11C329.161 201.11 323.956 200.234 325.757 195.449C325.757 195.449 330.123 196.111 329.161 201.11Z" fill="#6457A4"/>
<path d="M329.259 212.199C329.259 212.199 324.869 213.01 324.449 208.759C324.425 208.759 328.1 208.033 329.259 212.199Z" fill="#6457A4"/>
<path opacity="0.5" d="M336.364 147.425C336.364 147.425 334.292 143.344 339.694 141.956C339.694 141.956 341.494 145.331 336.364 147.425Z" fill="#6457A4"/>
<path d="M336.783 146.42C336.783 146.42 327.286 193.057 329.753 219.355" stroke="#6457A4" stroke-miterlimit="10" stroke-linecap="round" stroke-linejoin="round"/>
<path opacity="0.2" d="M137.15 182.354H105.675V219.398H137.15V182.354Z" fill="#6457A4"/>
<path opacity="0.5" d="M113.248 177.909L105.675 182.353H137.126L144.699 177.909H113.248Z" fill="#6457A4"/>
<path d="M137.126 219.397L144.699 214.953V177.909L137.126 182.353V219.397Z" fill="#4E4688"/>
<path opacity="0.2" d="M189.396 165.52H157.92V219.398H189.396V165.52Z" fill="#6457A4"/>
<path opacity="0.5" d="M165.493 161.333L157.92 165.52H189.371L196.944 161.333H165.493Z" fill="#6457A4"/>
<path d="M189.371 219.398L196.944 213.417V163.426V161.333L189.371 165.52V219.398Z" fill="#4E4688"/>
<path opacity="0.2" d="M249.411 140.204H217.936V219.292H249.411V140.204Z" fill="#6457A4"/>
<path opacity="0.5" d="M225.509 135.995L217.936 140.203H249.411L256.984 135.995H225.509Z" fill="#6457A4"/>
<path d="M249.411 219.398L256.984 213.416V138.11V135.995L249.411 140.203V219.398Z" fill="#4E4688"/>
<path opacity="0.2" d="M308.687 109.483H277.212V219.398H308.687V109.483Z" fill="#6457A4"/>
<path d="M284.784 105.296L277.212 109.483H308.662L316.235 105.296H284.784Z" fill="#4E4688"/>
<path d="M308.662 219.398L316.235 213.416V107.39V105.296L308.662 109.483V219.398Z" fill="#4E4688"/>
<path d="M292.604 172.761C297.549 172.761 301.558 169.289 301.558 165.006C301.558 160.723 297.549 157.251 292.604 157.251C287.658 157.251 283.65 160.723 283.65 165.006C283.65 169.289 287.658 172.761 292.604 172.761Z" fill="#FCB713"/>
<path d="M292.184 169.556C291.79 169.534 291.444 169.47 291.148 169.406C290.852 169.321 290.581 169.235 290.359 169.129C290.137 169.022 289.94 168.936 289.816 168.829C289.668 168.723 289.57 168.659 289.496 168.616C289.422 168.552 289.372 168.509 289.372 168.466C289.348 168.424 289.372 168.338 289.446 168.253L289.989 167.505C290.038 167.419 290.112 167.377 290.211 167.377C290.31 167.377 290.408 167.419 290.556 167.526C290.778 167.676 291.025 167.825 291.321 167.954C291.617 168.082 291.913 168.167 292.209 168.21V165.817C291.888 165.71 291.543 165.561 291.222 165.433C290.902 165.283 290.581 165.112 290.31 164.899C290.038 164.685 289.816 164.429 289.644 164.151C289.471 163.852 289.397 163.51 289.397 163.104C289.397 162.805 289.446 162.527 289.57 162.271C289.668 162.014 289.841 161.758 290.088 161.566C290.31 161.352 290.606 161.181 290.976 161.053C291.321 160.904 291.74 160.818 292.234 160.797V160.412C292.234 160.348 292.258 160.284 292.308 160.241C292.357 160.199 292.431 160.177 292.505 160.177H292.678C292.752 160.177 292.826 160.199 292.875 160.241C292.925 160.284 292.949 160.348 292.949 160.412V160.818C293.27 160.84 293.566 160.882 293.837 160.968C294.109 161.032 294.355 161.117 294.577 161.203C294.799 161.288 294.972 161.374 295.12 161.459C295.268 161.545 295.367 161.587 295.441 161.63C295.515 161.673 295.564 161.737 295.564 161.822C295.589 161.908 295.564 161.972 295.515 162.036L294.947 162.741C294.824 162.89 294.701 162.912 294.553 162.848C294.355 162.741 294.109 162.613 293.837 162.484C293.566 162.356 293.27 162.249 292.925 162.185V164.429C293.245 164.535 293.566 164.685 293.911 164.834C294.257 164.984 294.577 165.176 294.873 165.39C295.169 165.604 295.391 165.881 295.589 166.18C295.786 166.479 295.885 166.821 295.885 167.227C295.885 167.889 295.638 168.466 295.12 168.915C294.602 169.364 293.887 169.62 292.925 169.663V170.944C292.925 171.008 292.9 171.073 292.85 171.094C292.801 171.137 292.727 171.158 292.653 171.158C292.579 171.158 292.48 171.158 292.357 171.137C292.258 171.115 292.209 171.051 292.209 170.944V169.556H292.184ZM292.184 162.079C291.814 162.121 291.543 162.228 291.37 162.378C291.198 162.549 291.099 162.741 291.099 162.976C291.099 163.232 291.198 163.424 291.37 163.595C291.543 163.745 291.814 163.916 292.184 164.087V162.079ZM292.9 168.21C293.221 168.167 293.492 168.082 293.689 167.932C293.887 167.783 293.985 167.569 293.985 167.291C293.985 167.056 293.911 166.821 293.739 166.608C293.566 166.394 293.295 166.202 292.9 166.031V168.21Z" fill="#F6F7F7"/>
<path opacity="0.9" d="M242.357 164.365C242.357 168.937 239.495 172.633 235.968 172.633C235.844 172.633 235.721 172.633 235.573 172.611H232.761C233.304 172.611 233.822 172.526 234.34 172.355C235.055 172.12 235.721 171.736 236.313 171.202C238.015 169.727 239.125 167.207 239.125 164.344C239.125 161.481 238.015 158.982 236.313 157.486C235.721 156.973 235.055 156.589 234.34 156.333C233.822 156.162 233.304 156.076 232.736 156.076H235.918C236.042 156.076 236.165 156.076 236.288 156.098C239.692 156.354 242.357 159.964 242.357 164.365Z" fill="#F37C20"/>
<path d="M239.174 164.366C239.174 167.228 238.064 169.728 236.362 171.223C235.77 171.736 235.104 172.142 234.389 172.377C233.896 172.548 233.353 172.633 232.81 172.633C232.712 172.633 232.613 172.633 232.514 172.633C229.135 172.441 226.421 168.809 226.421 164.387C226.421 159.965 229.11 156.333 232.514 156.141C232.613 156.141 232.712 156.141 232.81 156.141C233.353 156.141 233.896 156.226 234.414 156.397C235.129 156.632 235.795 157.017 236.387 157.551C238.04 158.982 239.174 161.503 239.174 164.366Z" fill="#FCB713"/>
<path d="M232.489 169.194C232.218 169.172 231.971 169.108 231.749 169.023C231.527 168.937 231.355 168.83 231.182 168.745C231.009 168.659 230.886 168.531 230.787 168.424C230.689 168.318 230.615 168.232 230.565 168.189C230.516 168.125 230.491 168.061 230.467 168.019C230.442 167.976 230.467 167.89 230.516 167.805L230.911 167.014C230.96 166.929 231.009 166.886 231.059 166.886C231.133 166.886 231.207 166.929 231.305 167.057C231.453 167.228 231.651 167.378 231.848 167.506C232.045 167.634 232.267 167.719 232.489 167.762V165.199C232.243 165.07 232.021 164.942 231.774 164.771C231.527 164.622 231.33 164.429 231.133 164.194C230.935 163.981 230.787 163.703 230.664 163.404C230.541 163.105 230.491 162.72 230.491 162.293C230.491 161.973 230.541 161.674 230.615 161.396C230.689 161.118 230.812 160.862 230.985 160.627C231.157 160.413 231.355 160.221 231.601 160.071C231.848 159.922 232.144 159.836 232.489 159.794V159.366C232.489 159.302 232.514 159.238 232.539 159.195C232.588 159.153 232.613 159.131 232.687 159.131H232.81C232.859 159.131 232.909 159.153 232.958 159.195C232.983 159.238 233.007 159.302 233.007 159.366V159.794C233.229 159.815 233.451 159.879 233.649 159.943C233.846 160.007 234.019 160.093 234.192 160.2C234.34 160.285 234.488 160.37 234.586 160.456C234.685 160.541 234.759 160.605 234.808 160.648C234.858 160.691 234.882 160.755 234.907 160.84C234.907 160.926 234.907 161.011 234.882 161.075L234.488 161.845C234.389 161.994 234.315 162.037 234.216 161.951C234.068 161.823 233.896 161.695 233.698 161.567C233.501 161.417 233.279 161.332 233.057 161.246V163.639C233.279 163.767 233.526 163.895 233.772 164.066C234.019 164.237 234.241 164.429 234.438 164.664C234.636 164.899 234.808 165.177 234.956 165.498C235.104 165.818 235.154 166.181 235.154 166.609C235.154 167.335 234.981 167.912 234.611 168.403C234.241 168.873 233.723 169.151 233.057 169.194V170.561C233.057 170.625 233.032 170.689 233.007 170.732C232.958 170.774 232.909 170.796 232.859 170.796C232.81 170.796 232.736 170.774 232.662 170.753C232.588 170.732 232.539 170.668 232.539 170.561V169.194H232.489ZM232.489 161.246C232.243 161.289 232.045 161.396 231.922 161.567C231.799 161.738 231.725 161.951 231.725 162.208C231.725 162.464 231.799 162.678 231.922 162.849C232.045 163.02 232.243 163.19 232.489 163.361V161.246ZM233.007 167.784C233.229 167.741 233.427 167.655 233.575 167.506C233.723 167.356 233.797 167.121 233.797 166.822C233.797 166.566 233.747 166.331 233.624 166.096C233.501 165.861 233.303 165.669 233.032 165.476V167.784H233.007Z" fill="#F6F7F7"/>
<path opacity="0.9" d="M300.201 198.29C300.201 202.862 297.34 206.558 293.812 206.558C293.689 206.558 293.566 206.558 293.418 206.537H290.606C291.148 206.537 291.666 206.451 292.184 206.28C292.9 206.045 293.566 205.661 294.158 205.127C295.86 203.653 296.97 201.132 296.97 198.269C296.97 195.406 295.86 192.907 294.158 191.411C293.566 190.899 292.9 190.514 292.184 190.258C291.666 190.087 291.148 190.001 290.581 190.001H293.763C293.886 190.001 294.01 190.001 294.133 190.023C297.537 190.279 300.201 193.89 300.201 198.29Z" fill="#F37C20"/>
<path d="M297.019 198.291C297.019 201.154 295.909 203.653 294.207 205.149C293.615 205.661 292.949 206.067 292.234 206.302C291.74 206.473 291.198 206.559 290.655 206.559C290.556 206.559 290.458 206.559 290.359 206.559C286.98 206.366 284.266 202.734 284.266 198.312C284.266 193.89 286.955 190.258 290.359 190.066C290.458 190.066 290.556 190.066 290.655 190.066C291.198 190.066 291.74 190.151 292.258 190.322C292.974 190.557 293.64 190.942 294.232 191.476C295.909 192.907 297.019 195.428 297.019 198.291Z" fill="#FCB713"/>
<path d="M290.334 203.12C290.063 203.098 289.816 203.034 289.594 202.949C289.372 202.863 289.2 202.757 289.027 202.671C288.854 202.564 288.731 202.458 288.632 202.351C288.534 202.244 288.46 202.158 288.41 202.116C288.361 202.052 288.336 201.988 288.312 201.945C288.287 201.902 288.312 201.817 288.361 201.731L288.756 200.941C288.805 200.855 288.854 200.813 288.904 200.813C288.978 200.813 289.052 200.855 289.15 200.984C289.298 201.154 289.496 201.304 289.693 201.432C289.89 201.56 290.112 201.646 290.334 201.688V199.125C290.088 198.997 289.866 198.869 289.619 198.698C289.372 198.548 289.175 198.356 288.978 198.121C288.78 197.907 288.632 197.629 288.509 197.33C288.386 197.031 288.336 196.647 288.336 196.219C288.336 195.899 288.386 195.6 288.46 195.322C288.534 195.044 288.657 194.788 288.83 194.553C289.002 194.339 289.2 194.147 289.446 193.998C289.693 193.848 289.989 193.763 290.334 193.72V193.293C290.334 193.229 290.359 193.164 290.384 193.122C290.433 193.079 290.458 193.058 290.532 193.058H290.655C290.705 193.058 290.754 193.079 290.803 193.122C290.828 193.164 290.852 193.229 290.852 193.293V193.72C291.075 193.741 291.297 193.805 291.494 193.869C291.691 193.934 291.864 194.019 292.037 194.126C292.209 194.233 292.333 194.297 292.431 194.382C292.53 194.468 292.604 194.532 292.653 194.574C292.703 194.617 292.727 194.681 292.752 194.767C292.752 194.852 292.752 194.938 292.727 195.002L292.333 195.771C292.234 195.92 292.16 195.963 292.061 195.878C291.913 195.749 291.741 195.621 291.543 195.493C291.346 195.344 291.124 195.258 290.902 195.173V197.565C291.124 197.694 291.371 197.822 291.617 197.993C291.864 198.164 292.086 198.356 292.283 198.591C292.481 198.826 292.653 199.103 292.801 199.424C292.949 199.744 292.999 200.108 292.999 200.535C292.999 201.261 292.826 201.838 292.456 202.329C292.086 202.799 291.568 203.077 290.902 203.12V204.487C290.902 204.551 290.877 204.615 290.852 204.658C290.803 204.701 290.754 204.722 290.705 204.722C290.655 204.722 290.581 204.701 290.507 204.679C290.433 204.658 290.384 204.594 290.384 204.487V203.12H290.334ZM290.334 195.173C290.088 195.215 289.89 195.322 289.767 195.493C289.644 195.664 289.57 195.878 289.57 196.134C289.57 196.39 289.644 196.604 289.767 196.775C289.89 196.946 290.088 197.117 290.334 197.288V195.173ZM290.852 201.688C291.075 201.646 291.272 201.56 291.42 201.411C291.568 201.261 291.642 201.026 291.642 200.727C291.642 200.471 291.593 200.236 291.469 200.001C291.346 199.766 291.148 199.574 290.877 199.381V201.688H290.852Z" fill="#F6F7F7"/>
<path opacity="0.9" d="M179.603 191.903C179.603 196.774 178.073 200.726 176.199 200.726H173.041C173.609 200.726 174.176 200.384 174.645 199.765C175.311 198.932 175.853 197.607 176.199 195.984C176.445 194.766 176.593 193.377 176.593 191.903C176.593 190.429 176.445 189.04 176.199 187.823C175.853 186.199 175.311 184.875 174.645 184.041C174.176 183.443 173.609 183.08 173.041 183.08H176.199C178.073 183.08 179.603 187.032 179.603 191.903Z" fill="#F37C20"/>
<path d="M176.593 191.904C176.593 193.378 176.445 194.766 176.199 195.984C175.853 197.608 175.311 198.932 174.645 199.765C174.176 200.364 173.609 200.727 173.041 200.727H173.017C171.043 200.727 169.44 196.775 169.44 191.904C169.44 187.033 171.043 183.081 173.017 183.081H173.041C173.609 183.081 174.176 183.422 174.645 184.042C175.311 184.875 175.853 186.2 176.199 187.823C176.445 189.041 176.593 190.43 176.593 191.904Z" fill="#FCB713"/>
<path d="M172.844 197.074C172.696 197.052 172.548 196.988 172.425 196.881C172.301 196.796 172.203 196.689 172.104 196.582C172.005 196.475 171.931 196.369 171.882 196.24C171.833 196.134 171.783 196.048 171.759 195.984C171.734 195.92 171.709 195.856 171.709 195.792C171.709 195.728 171.709 195.664 171.734 195.557L171.956 194.724C171.981 194.638 172.005 194.574 172.055 194.574C172.079 194.574 172.129 194.638 172.203 194.745C172.301 194.916 172.4 195.087 172.499 195.215C172.622 195.365 172.721 195.45 172.844 195.493V192.758C172.721 192.63 172.573 192.48 172.449 192.31C172.326 192.139 172.203 191.946 172.079 191.711C171.981 191.476 171.882 191.199 171.808 190.857C171.734 190.536 171.709 190.13 171.709 189.66C171.709 189.319 171.734 188.998 171.783 188.699C171.833 188.4 171.907 188.122 171.981 187.887C172.079 187.652 172.178 187.46 172.326 187.289C172.474 187.14 172.647 187.033 172.819 186.99V186.541C172.819 186.477 172.819 186.413 172.844 186.349C172.869 186.306 172.893 186.264 172.918 186.264H172.992C173.017 186.264 173.041 186.285 173.066 186.349C173.091 186.392 173.091 186.456 173.091 186.541V187.011C173.214 187.033 173.337 187.097 173.436 187.182C173.559 187.268 173.658 187.353 173.732 187.439C173.831 187.545 173.88 187.631 173.954 187.716C174.003 187.802 174.053 187.866 174.077 187.909C174.102 187.951 174.127 188.015 174.127 188.122C174.127 188.208 174.127 188.293 174.102 188.379L173.88 189.19C173.831 189.361 173.781 189.404 173.732 189.297C173.658 189.169 173.559 189.02 173.461 188.87C173.362 188.72 173.239 188.614 173.091 188.528V191.092C173.214 191.22 173.337 191.37 173.485 191.54C173.633 191.711 173.757 191.925 173.855 192.181C173.979 192.438 174.077 192.737 174.151 193.079C174.225 193.42 174.275 193.826 174.275 194.275C174.275 195.044 174.176 195.685 173.979 196.176C173.781 196.689 173.485 196.967 173.115 197.031V198.484C173.115 198.548 173.115 198.612 173.091 198.676C173.066 198.719 173.041 198.74 173.017 198.74C172.992 198.74 172.943 198.719 172.893 198.697C172.844 198.676 172.819 198.612 172.819 198.484V197.074H172.844ZM172.844 188.592C172.696 188.635 172.597 188.763 172.523 188.934C172.449 189.126 172.425 189.34 172.425 189.618C172.425 189.895 172.449 190.13 172.523 190.301C172.597 190.494 172.696 190.665 172.844 190.857V188.592ZM173.14 195.557C173.263 195.514 173.362 195.407 173.461 195.258C173.535 195.087 173.584 194.852 173.584 194.531C173.584 194.254 173.559 193.997 173.485 193.762C173.411 193.527 173.313 193.292 173.14 193.1V195.557Z" fill="#F6F7F7"/>
<path opacity="0.9" d="M238.138 197.714C238.138 202.585 236.609 206.537 234.734 206.537H231.577C232.144 206.537 232.711 206.196 233.18 205.576C233.846 204.743 234.389 203.418 234.734 201.795C234.981 200.577 235.129 199.188 235.129 197.714C235.129 196.24 234.981 194.852 234.734 193.634C234.389 192.01 233.846 190.686 233.18 189.852C232.711 189.254 232.144 188.891 231.577 188.891H234.734C236.634 188.891 238.138 192.843 238.138 197.714Z" fill="#F37C20"/>
<path d="M235.154 197.714C235.154 199.188 235.006 200.577 234.759 201.795C234.414 203.418 233.871 204.743 233.205 205.576C232.736 206.174 232.169 206.537 231.601 206.537H231.577C229.603 206.537 228 202.585 228 197.714C228 192.843 229.603 188.891 231.577 188.891H231.601C232.169 188.891 232.736 189.233 233.205 189.852C233.871 190.686 234.414 192.01 234.759 193.634C235.006 194.852 235.154 196.24 235.154 197.714Z" fill="#FCB713"/>
<path d="M231.404 202.885C231.256 202.863 231.108 202.799 230.985 202.692C230.861 202.607 230.763 202.5 230.664 202.393C230.565 202.286 230.491 202.18 230.442 202.051C230.393 201.945 230.343 201.859 230.319 201.795C230.294 201.731 230.269 201.667 230.269 201.603C230.269 201.539 230.269 201.475 230.294 201.368L230.516 200.535C230.541 200.449 230.565 200.385 230.615 200.385C230.639 200.385 230.689 200.449 230.763 200.556C230.861 200.727 230.96 200.898 231.059 201.026C231.182 201.176 231.281 201.261 231.404 201.304V198.569C231.281 198.441 231.133 198.291 231.009 198.121C230.886 197.95 230.763 197.757 230.639 197.522C230.541 197.287 230.442 197.01 230.368 196.668C230.294 196.347 230.269 195.941 230.269 195.471C230.269 195.13 230.294 194.809 230.343 194.51C230.393 194.211 230.467 193.933 230.541 193.698C230.639 193.463 230.738 193.271 230.886 193.1C231.034 192.951 231.207 192.844 231.379 192.801V192.352C231.379 192.288 231.379 192.224 231.404 192.16C231.429 192.117 231.454 192.075 231.478 192.075H231.552C231.577 192.075 231.601 192.096 231.626 192.16C231.651 192.203 231.651 192.267 231.651 192.352V192.822C231.774 192.844 231.898 192.908 231.996 192.993C232.12 193.079 232.218 193.164 232.292 193.25C232.391 193.357 232.44 193.442 232.514 193.527C232.564 193.613 232.613 193.677 232.638 193.72C232.662 193.762 232.687 193.827 232.687 193.933C232.687 194.019 232.687 194.104 232.662 194.19L232.44 195.002C232.391 195.172 232.342 195.215 232.292 195.108C232.218 194.98 232.12 194.831 232.021 194.681C231.922 194.532 231.799 194.425 231.651 194.339V196.903C231.774 197.031 231.898 197.181 232.046 197.351C232.194 197.522 232.317 197.736 232.416 197.992C232.539 198.249 232.638 198.548 232.712 198.89C232.786 199.231 232.835 199.637 232.835 200.086C232.835 200.855 232.736 201.496 232.539 201.987C232.342 202.5 232.046 202.778 231.676 202.842V204.295C231.676 204.359 231.675 204.423 231.651 204.487C231.626 204.53 231.601 204.551 231.577 204.551C231.552 204.551 231.503 204.53 231.453 204.508C231.404 204.487 231.379 204.423 231.379 204.295V202.885H231.404ZM231.404 194.382C231.256 194.425 231.157 194.553 231.083 194.724C231.009 194.916 230.985 195.13 230.985 195.407C230.985 195.685 231.009 195.92 231.083 196.091C231.157 196.283 231.256 196.454 231.404 196.646V194.382ZM231.7 201.346C231.824 201.304 231.922 201.197 232.021 201.047C232.095 200.876 232.144 200.641 232.144 200.321C232.144 200.043 232.12 199.787 232.046 199.552C231.972 199.317 231.873 199.082 231.7 198.89V201.346Z" fill="#F6F7F7"/>
<path opacity="0.9" d="M299.412 132.427C299.412 137.298 297.883 141.25 296.008 141.25H292.85C293.418 141.25 293.985 140.908 294.454 140.289C295.12 139.456 295.662 138.131 296.008 136.508C296.255 135.29 296.403 133.901 296.403 132.427C296.403 130.953 296.255 129.564 296.008 128.347C295.662 126.723 295.12 125.399 294.454 124.565C293.985 123.967 293.418 123.604 292.85 123.604H296.008C297.883 123.604 299.412 127.556 299.412 132.427Z" fill="#F37C20"/>
<path d="M296.403 132.428C296.403 133.902 296.255 135.291 296.008 136.509C295.663 138.132 295.12 139.457 294.454 140.29C293.985 140.888 293.418 141.251 292.85 141.251H292.826C290.852 141.251 289.249 137.299 289.249 132.428C289.249 127.557 290.852 123.605 292.826 123.605H292.85C293.418 123.605 293.985 123.947 294.454 124.566C295.12 125.4 295.663 126.724 296.008 128.348C296.255 129.565 296.403 130.954 296.403 132.428Z" fill="#FCB713"/>
<path d="M292.678 137.597C292.53 137.576 292.382 137.512 292.258 137.405C292.135 137.319 292.036 137.212 291.938 137.106C291.839 136.999 291.765 136.892 291.716 136.764C291.666 136.657 291.617 136.572 291.592 136.507C291.568 136.443 291.543 136.379 291.543 136.315C291.543 136.251 291.543 136.187 291.568 136.08L291.79 135.247C291.814 135.162 291.839 135.097 291.888 135.097C291.913 135.097 291.962 135.162 292.036 135.268C292.135 135.439 292.234 135.61 292.332 135.738C292.456 135.888 292.554 135.973 292.678 136.016V133.282C292.554 133.153 292.406 133.004 292.283 132.833C292.16 132.662 292.036 132.47 291.913 132.235C291.814 132 291.716 131.722 291.642 131.38C291.568 131.06 291.543 130.654 291.543 130.184C291.543 129.842 291.568 129.522 291.617 129.223C291.666 128.923 291.74 128.646 291.814 128.411C291.913 128.176 292.012 127.983 292.16 127.813C292.308 127.663 292.48 127.556 292.653 127.513V127.065C292.653 127.001 292.653 126.937 292.678 126.873C292.702 126.83 292.727 126.787 292.752 126.787H292.826C292.85 126.787 292.875 126.808 292.9 126.873C292.924 126.915 292.924 126.979 292.924 127.065V127.535C293.048 127.556 293.171 127.62 293.27 127.706C293.393 127.791 293.492 127.877 293.566 127.962C293.664 128.069 293.714 128.154 293.788 128.24C293.837 128.325 293.886 128.389 293.911 128.432C293.936 128.475 293.96 128.539 293.96 128.646C293.96 128.731 293.96 128.817 293.936 128.902L293.714 129.714C293.664 129.885 293.615 129.928 293.566 129.821C293.492 129.693 293.393 129.543 293.294 129.393C293.196 129.244 293.072 129.137 292.924 129.052V131.615C293.048 131.743 293.171 131.893 293.319 132.064C293.467 132.235 293.59 132.448 293.689 132.705C293.812 132.961 293.911 133.26 293.985 133.602C294.059 133.944 294.108 134.35 294.108 134.798C294.108 135.567 294.01 136.208 293.812 136.7C293.615 137.212 293.319 137.49 292.949 137.554V139.007C292.949 139.071 292.949 139.135 292.924 139.199C292.9 139.242 292.875 139.263 292.85 139.263C292.826 139.263 292.776 139.242 292.727 139.221C292.678 139.199 292.653 139.135 292.653 139.007V137.597H292.678ZM292.678 129.116C292.53 129.158 292.431 129.287 292.357 129.458C292.283 129.65 292.258 129.863 292.258 130.141C292.258 130.419 292.283 130.654 292.357 130.825C292.431 131.017 292.53 131.188 292.678 131.38V129.116ZM292.949 136.08C293.072 136.037 293.171 135.931 293.27 135.781C293.344 135.61 293.393 135.375 293.393 135.055C293.393 134.777 293.368 134.521 293.294 134.286C293.22 134.051 293.122 133.816 292.949 133.623V136.08Z" fill="#F6F7F7"/>
<path d="M121.413 207.84C126.358 207.84 130.367 204.368 130.367 200.085C130.367 195.803 126.358 192.331 121.413 192.331C116.467 192.331 112.458 195.803 112.458 200.085C112.458 204.368 116.467 207.84 121.413 207.84Z" fill="#FCB713"/>
<path d="M120.993 204.636C120.598 204.615 120.253 204.551 119.957 204.487C119.661 204.401 119.39 204.316 119.168 204.209C118.946 204.102 118.748 204.017 118.625 203.91C118.477 203.803 118.378 203.739 118.304 203.696C118.23 203.632 118.181 203.59 118.181 203.547C118.156 203.504 118.181 203.419 118.255 203.333L118.798 202.586C118.847 202.5 118.921 202.457 119.02 202.457C119.118 202.457 119.217 202.5 119.365 202.607C119.587 202.756 119.834 202.906 120.13 203.034C120.426 203.162 120.722 203.248 121.018 203.29V200.898C120.697 200.791 120.352 200.641 120.031 200.513C119.71 200.364 119.39 200.193 119.118 199.979C118.847 199.766 118.625 199.509 118.452 199.231C118.28 198.932 118.206 198.591 118.206 198.185C118.206 197.886 118.255 197.608 118.378 197.351C118.477 197.095 118.65 196.839 118.896 196.646C119.118 196.433 119.414 196.262 119.784 196.134C120.13 195.984 120.549 195.899 121.042 195.877V195.493C121.042 195.429 121.067 195.365 121.116 195.322C121.166 195.279 121.24 195.258 121.314 195.258H121.486C121.56 195.258 121.634 195.279 121.684 195.322C121.733 195.365 121.758 195.429 121.758 195.493V195.899C122.078 195.92 122.375 195.963 122.646 196.048C122.917 196.112 123.164 196.198 123.386 196.283C123.608 196.369 123.781 196.454 123.929 196.54C124.077 196.625 124.175 196.668 124.249 196.711C124.323 196.753 124.373 196.817 124.373 196.903C124.397 196.988 124.373 197.052 124.323 197.116L123.756 197.821C123.633 197.971 123.509 197.992 123.361 197.928C123.164 197.821 122.917 197.693 122.646 197.565C122.375 197.437 122.078 197.33 121.733 197.266V199.509C122.054 199.616 122.375 199.766 122.72 199.915C123.065 200.065 123.386 200.257 123.682 200.471C123.978 200.684 124.2 200.962 124.397 201.261C124.595 201.56 124.693 201.902 124.693 202.308C124.693 202.97 124.447 203.547 123.929 203.995C123.411 204.444 122.695 204.7 121.733 204.743V206.025C121.733 206.089 121.708 206.153 121.659 206.175C121.61 206.217 121.536 206.239 121.462 206.239C121.388 206.239 121.289 206.239 121.166 206.217C121.067 206.196 121.018 206.132 121.018 206.025V204.636H120.993ZM120.993 197.159C120.623 197.202 120.352 197.309 120.179 197.458C120.006 197.629 119.908 197.821 119.908 198.056C119.908 198.313 120.006 198.505 120.179 198.676C120.352 198.826 120.623 198.996 120.993 199.167V197.159ZM121.708 203.29C122.029 203.248 122.301 203.162 122.498 203.013C122.695 202.863 122.794 202.65 122.794 202.372C122.794 202.137 122.72 201.902 122.547 201.688C122.375 201.475 122.103 201.282 121.708 201.111V203.29Z" fill="#F6F7F7"/>
<path d="M154.985 84.8718C154.763 85.3418 154.442 85.7477 154.023 86.0895C153.628 86.4313 153.135 86.709 152.592 86.9013L146.327 89.0376C146.031 89.1444 146.08 89.529 146.401 89.5717L148.719 89.8922C149.41 89.9776 149.706 90.6826 149.262 91.1526C149.188 91.2381 149.065 91.2808 148.941 91.2808H148.917L142.552 90.939L141.393 90.8749C140.406 90.8322 139.42 90.939 138.482 91.2167L135.769 92.0071L136.287 87.3499L136.361 86.709L146.919 83.9959C147.486 83.8463 148.078 83.7822 148.67 83.7822L154.195 83.8463C154.812 83.825 155.207 84.3804 154.985 84.8718Z" fill="#F28389"/>
<path d="M142.552 90.9179L141.393 90.8538C140.406 90.8111 139.42 90.9179 138.482 91.1956L137.372 91.5161C137.841 90.8966 138.137 90.1488 138.137 89.3584V86.9443C138.729 87.4784 139.025 88.7389 139.765 89.0807C140.209 89.2943 140.752 89.3157 141.171 89.5293C141.442 89.6788 141.664 89.8925 141.862 90.1061C142.133 90.3625 142.38 90.6402 142.552 90.9179Z" fill="#F16B6C"/>
<path d="M124.126 162.742L121.314 170.839L119.883 174.941L119.711 175.496L117.811 175.133L117.343 175.026L114.358 174.449L114.456 172.975L114.95 166.096L115.122 163.618L124.126 162.742Z" fill="#F28389"/>
<path d="M123.041 171.736C122.153 172.569 121.758 173.744 120.771 174.492C120.5 174.684 120.204 174.834 119.883 174.962C119.242 175.197 118.502 175.24 117.811 175.133C117.639 175.112 117.491 175.069 117.318 175.048C117.096 174.983 116.874 174.919 116.676 174.834C115.739 174.449 114.999 173.766 114.456 172.997L114.95 166.118C115.196 166.16 115.443 166.246 115.69 166.417C116.824 167.186 117.639 168.339 118.749 169.151C118.946 169.301 120.204 170.155 121.289 170.86C122.177 171.394 122.942 171.822 123.041 171.736Z" fill="#F16B6C"/>
<path d="M36.9763 204.316L27.5287 210.234L24.8893 211.879L20.2025 210.041L21.2632 208.973L24.7413 205.534L32.1662 198.185L36.6556 203.91L36.9763 204.316Z" fill="#F28389"/>
<path d="M49.8033 155.158L38.9003 176.478L19.8818 169.193L11.125 165.839L9.07757 165.049L0.123337 161.609L0 161.567L0.838688 159.943L1.72671 158.17L4.02077 153.705L5.37747 151.056L10.903 140.225L24.544 145.48L29.6008 147.424L34.1889 149.176L34.8056 149.411L38.7523 150.928L42.6498 152.423L49.0386 154.859L49.2359 154.944L49.8033 155.158Z" fill="#E96924"/>
<path d="M36.9517 204.336L27.5041 210.233C26.7147 210.382 25.95 210.532 25.1607 210.681C23.952 210.916 22.4473 211.066 21.7072 210.19C21.4112 209.848 21.3126 209.4 21.2632 208.972L24.7413 205.533C28.2194 205.832 31.8949 205.661 35.0029 204.55C35.1016 204.507 35.1756 204.486 35.2743 204.443L36.261 204.742L36.9517 204.336Z" fill="#F16B6C"/>
<path d="M25.728 139.456L30.2668 141.207L29.6255 142.105L25.7774 140.631L23.508 145.074L22.3979 144.647L24.914 139.712C25.062 139.456 25.432 139.349 25.728 139.456Z" fill="#A04323"/>
<path d="M40.6025 145.736L38.0864 150.671L36.9763 150.244L39.2458 145.8L37.2477 145.031L35.6936 144.433L35.9649 143.472C35.9649 143.45 35.9649 143.408 35.9649 143.386L37.667 144.027L40.3065 145.053C40.6025 145.159 40.7505 145.48 40.6025 145.736Z" fill="#A04323"/>
<path d="M35.9657 143.472L35.6942 144.434L34.5589 143.985L34.5343 143.964C34.707 143.643 34.8798 143.323 35.0278 143.002L35.4721 143.173L35.9657 143.365C35.9657 143.408 35.9657 143.429 35.9657 143.472Z" fill="#A04323"/>
<path opacity="0.5" d="M10.8536 140.31L15.7378 152.658C16.0338 153.384 16.6505 153.983 17.4645 154.303L33.1282 160.306C33.9422 160.627 34.8796 160.627 35.6936 160.328L49.6553 155.115" fill="#FCB713"/>
<path d="M19.6846 157.358L19.2899 157.209C18.7719 157.016 18.5252 156.482 18.7719 156.034L19.5119 154.581C19.7339 154.132 20.3506 153.919 20.8686 154.132L21.2632 154.282C21.7813 154.474 22.0279 155.008 21.7813 155.457L21.0412 156.909C20.8192 157.337 20.2026 157.55 19.6846 157.358Z" fill="#A04323"/>
<path d="M29.5515 161.139L29.1568 160.99C28.6388 160.798 28.3921 160.263 28.6388 159.815L29.3788 158.362C29.6008 157.913 30.2175 157.7 30.7355 157.913L31.1302 158.063C31.6482 158.255 31.8949 158.789 31.6482 159.238L30.9082 160.691C30.6862 161.139 30.0695 161.332 29.5515 161.139Z" fill="#A04323"/>
<path opacity="0.15" d="M34.8056 149.411L1.7267 158.17L4.02076 153.705L28.6388 147.467L29.6008 147.424L34.1889 149.176L34.8056 149.411Z" fill="#F6F7F7"/>
<path d="M10.2862 139.99L0.419295 159.324C0.0492853 160.071 -4.93675e-05 160.862 0.246624 161.588C0.246624 161.61 0.271291 161.652 0.271291 161.674C0.591966 162.528 1.30732 163.255 2.34335 163.639L35.8909 176.521C37.9383 177.312 40.3063 176.5 41.219 174.727L50.9873 155.606L10.2862 139.99ZM40.5283 173.295C39.6157 175.069 37.2476 175.859 35.2002 175.09L11.1249 165.861H11.1002L9.05285 165.07L3.45337 162.891C2.56535 162.55 1.89933 161.951 1.52932 161.225C1.10998 160.413 1.08531 159.452 1.52932 158.576L10.9029 140.246L49.0386 154.859L49.2359 154.944L49.8032 155.158L40.5283 173.295Z" fill="#A04323"/>
<path opacity="0.15" d="M49.2359 154.945L12.9996 166.374L11.1249 165.819H11.1003L9.05287 165.028L3.45339 162.892C2.56537 162.55 1.89935 161.952 1.52934 161.225L38.7523 150.928L42.6498 152.424L49.0139 154.859L49.2359 154.945Z" fill="#F6F7F7"/>
<path d="M134.338 134.82L123.83 165.07C123.534 165.925 122.671 166.544 121.659 166.63L118.674 167.207L113.938 168.168L115.961 143.322L91.5651 150.33C89.049 151.248 87.125 153.064 86.2123 155.286L77.9487 173.808L76 178.188C74.964 180.473 73.2126 182.46 70.9432 183.913C70.8445 183.977 70.7212 184.041 70.6225 184.105L37.001 204.315L36.9763 204.336L36.2856 204.742L35.2989 204.443L32.1662 203.46L27.8987 202.115L54.8601 177.397C55.5755 176.778 56.2168 176.115 56.7348 175.389C56.7842 175.325 56.8335 175.239 56.8828 175.175C57.5735 174.193 58.0669 173.146 58.3875 172.035L61.7176 160.178L62.6303 156.931L66.6017 142.874L66.8237 142.083L99.1133 132.619L101.777 131.829L105.601 130.568L105.675 130.547L124.151 124.437C125.039 124.138 125.951 124.01 126.864 124.01C129.553 124.01 132.118 125.249 133.524 127.364C134.98 129.628 135.3 132.32 134.338 134.82Z" fill="#4E4688"/>
<path opacity="0.2" d="M105.675 130.525C105.675 130.525 104.417 140.374 88.0377 146.398C81.1062 148.941 75.9754 151.803 71.9546 154.282L56.8828 175.154C57.5735 174.171 58.0669 173.124 58.3876 172.013L61.7176 160.156L62.6303 156.909L66.6018 142.852L99.1134 132.598L105.601 130.547L105.675 130.525Z" fill="black"/>
<path d="M96.0792 106.235L96.7699 138.986C96.7699 138.986 90.7758 142.703 89.5177 142.575L88.7777 142.831L88.235 143.023C88.235 143.023 83.5729 145.181 83.3263 145.266L81.1555 129.927L77.7021 105.616L76.2961 98.0104L77.9488 97.8822L78.7628 97.8181L83.2029 97.455H83.2276H83.2523L94.0812 96.8995L94.3032 96.8782H94.4019L94.9199 96.8568L95.8079 96.8141L96.8439 96.515L98.0279 96.1732L98.3486 96.0663L99.5327 95.6391L100.075 95.4468L101.235 95.0195L101.802 98.9931L96.0792 106.235Z" fill="white"/>
<path d="M96.77 97.3913C96.77 97.3913 96.2026 100.959 96.03 101.792C96.0053 101.878 96.0053 101.92 96.0053 101.942C96.0053 101.963 95.9806 101.963 95.956 101.984C95.5613 102.241 92.7245 103.074 90.5785 103.694C89.1724 104.099 88.0624 104.399 88.0624 104.399L80.9088 98.6304C80.9088 98.6304 80.2428 98.2245 82.7589 98.2672C82.8822 98.2672 82.6356 97.5836 82.6849 97.4554C82.6849 97.4341 82.7096 97.4341 82.7096 97.4341C82.7589 97.4341 82.8082 97.4341 82.8576 97.4341C82.9809 97.4341 83.1042 97.4341 83.2276 97.4127C83.7456 97.3273 84.2143 97.0495 84.609 96.665C85.2256 96.0882 85.6943 95.255 86.0643 94.4432C86.6563 93.14 86.9277 91.9009 86.9277 91.9009C86.9277 91.9009 87.273 91.5378 87.8157 91.1105C88.9751 90.1705 91.0471 88.9314 92.1818 90.6619C92.5025 91.1532 92.7492 91.8582 92.8972 92.8623C92.9959 93.5673 93.1192 94.1655 93.2672 94.6995C93.5139 95.5968 93.8346 96.2377 94.1552 96.665C94.2046 96.7291 94.2539 96.7718 94.2786 96.8359C95.4379 98.2032 96.77 97.3913 96.77 97.3913Z" fill="#F28389"/>
<path d="M35.6938 144.434L37.2486 145.032L36.8043 146.144C36.755 146.25 36.6563 146.336 36.5329 146.357C35.8665 146.528 35.2495 146.015 35.3976 145.438L35.6938 144.434Z" fill="#F16B6C"/>
<path d="M42.6005 135.91L41.5892 136.935L40.8245 137.683C40.1091 138.388 39.5664 139.2 39.2211 140.075L38.6291 141.55L37.6424 144.028L35.9403 143.387C35.9156 143.173 35.6443 143.066 35.447 143.195C35.4223 143.195 35.4223 143.216 35.3976 143.216L34.5343 143.985L30.7108 147.425C30.3161 147.788 29.8228 148.065 29.3048 148.258C28.7867 148.45 28.2194 148.557 27.6274 148.557C27.0107 148.557 26.5913 148.023 26.8133 147.51L28.8607 143.066C29.0334 142.703 29.2308 142.383 29.4774 142.062C29.5761 141.955 29.6501 141.849 29.7488 141.742L30.1681 141.315L36.705 134.35L42.6005 135.91Z" fill="#F28389"/>
<path d="M94.4018 96.3452L90.4304 100.383C89.6657 101.152 88.309 101.237 87.421 100.575L83.2276 97.4347L83.7456 102.498L88.8024 105.126L91.3924 105.745L93.5878 100.554L94.4018 96.3452Z" fill="#F16B6C"/>
<g opacity="0.15">
<path opacity="0.15" d="M84.5596 98.6948L91.0471 104.249L88.3583 107.967L80.2181 99.058L84.5596 98.6948Z" fill="#6457A4"/>
<path opacity="0.15" d="M101.21 94.999L98.99 101.985L98.8913 103.096L95.3145 106.129L90.7757 104.014H90.751L90.6524 103.972V103.929L90.751 103.758L94.3772 96.879L94.8952 96.8576L95.7832 96.7936L96.8439 96.5158L98.0033 96.174L98.324 96.0672L101.21 94.999Z" fill="#6457A4"/>
</g>
<path d="M90.4799 103.694L87.6678 107.582L78.7628 97.8187L83.203 97.4556H83.2276L90.4799 103.694Z" fill="white"/>
<path d="M98.324 96.0664L96.0299 101.813L95.9559 102.005L94.5499 105.552L91.1458 103.992L90.5785 103.736L90.4798 103.693L94.0565 96.8996L94.1552 96.7287C94.2046 96.7928 94.4512 96.75 94.5006 96.7928H94.6732C94.8212 96.7928 94.9939 96.7928 95.1419 96.7928C95.7093 96.7714 96.2766 96.6859 96.8193 96.515L98.0033 96.1732L98.324 96.0664Z" fill="white"/>
<path d="M138.162 86.2603V89.8493C138.162 90.6398 137.89 91.3875 137.397 92.007C136.879 92.6907 136.09 93.2461 135.152 93.5452C131.452 94.6988 125.902 97.177 120.475 99.762C114.53 102.603 108.709 105.616 105.626 107.239C104.047 108.072 102.912 109.397 102.493 110.956C99.7054 121.403 105.132 131.786 105.132 131.786C105.132 131.786 104.269 133.004 102.912 134.456C101.21 136.294 98.7433 138.494 96.2766 139.113C95.1912 139.391 94.1059 138.644 94.1305 137.661L94.6732 112.751L94.7226 110.721C94.7226 110.7 94.7226 110.679 94.7226 110.679C94.7719 108.585 95.2406 106.513 96.1039 104.569L100.223 95.2116L104.096 94.2929L138.162 86.2603Z" fill="#6457A4"/>
<path d="M104.096 94.3149L94.6732 112.773L94.7225 110.743C94.7225 110.722 94.7225 110.701 94.7225 110.701C94.7719 108.607 95.2405 106.535 96.1039 104.591L100.223 95.2336L104.096 94.3149Z" fill="#4E4688"/>
<path d="M89.8877 106.471L86.1383 124.886L89.8877 129.138L93.2671 124.395L92.1818 106.364L89.8877 106.471Z" fill="#FCB713"/>
<path d="M90.4551 107.881L88.087 112.539L85.6943 117.174L85.4723 117.046L93.1685 109.462L94.2292 108.415L93.4891 109.655L86.8536 120.913L86.4836 120.657L90.9237 117.004L95.3639 113.35L96.9426 112.069L95.7092 113.607L91.5158 118.926L89.419 121.597L87.3223 124.246L87.051 124.032L96.4492 118.563L97.1399 118.157L96.5972 118.691L90.4551 124.673L96.4246 118.584L96.5726 118.713L87.273 124.288L86.4589 124.78L87.0016 124.075L89.0737 121.404L91.1704 118.734L95.3392 113.393L95.6845 113.649L91.2691 117.303L86.8043 120.956L85.7929 121.789L86.4343 120.721L93.1191 109.505L93.4645 109.697L85.6696 117.196L85.0776 117.751L85.4476 117.068L87.939 112.474L90.4551 107.881Z" fill="#F6F7F7"/>
<path d="M90.2084 103.822L88.2351 105.638L89.7397 107.689L91.8611 107.582L92.8971 105.039L90.2084 103.822Z" fill="#E96924"/>
<path d="M111.398 178.145C111.472 178.615 111.595 179.042 111.743 179.469C111.792 179.662 111.891 179.854 112.064 179.982C112.212 180.11 112.36 180.132 112.557 180.174C114.9 180.687 117.17 180.794 119.562 180.452C119.34 180.068 119.612 179.704 120.056 179.576C120.5 179.448 120.944 179.555 121.363 179.64C122.153 179.811 122.868 180.025 123.682 180.174C127.777 180.943 131.674 180.901 135.744 180.025C136.756 179.811 137.668 179.469 138.556 178.999C138.778 178.893 138.951 178.764 139.074 178.551C139.198 178.337 139.124 178.038 139.074 177.803C138.976 177.418 138.852 177.034 138.482 176.778C138.236 176.607 137.964 176.564 137.668 176.521C136.09 176.286 134.536 176.478 132.957 176.137C130.515 175.603 128.591 174.214 126.519 172.996C125.236 172.227 123.879 171.479 122.523 170.838C121.659 170.433 121.215 170.774 120.697 171.351C120.179 171.907 119.809 172.526 119.118 172.953C118.28 173.488 117.318 173.594 116.454 173.06C115.961 172.761 115.739 172.227 115.369 171.8C115.122 171.522 114.802 171.202 114.407 171.073C113.889 170.903 113.667 171.031 113.322 171.394C112.705 172.013 112.261 172.74 111.965 173.53C111.373 175.026 111.176 176.543 111.398 178.145Z" fill="#444445"/>
<path d="M132.76 180.517C132.834 180.495 132.908 180.495 132.982 180.474C132.957 180.388 132.932 180.303 132.908 180.217C132.834 180.239 132.76 180.239 132.685 180.26C132.71 180.346 132.735 180.431 132.76 180.517Z" fill="#444445"/>
<path d="M111.373 177.889C111.373 177.953 111.398 178.081 111.422 178.166C111.422 178.252 111.447 178.337 111.472 178.401C111.472 178.466 111.496 178.508 111.496 178.572C111.496 178.615 111.521 178.636 111.521 178.679C111.546 178.743 111.57 178.85 111.57 178.914C111.595 178.978 111.595 179.021 111.62 179.042C111.62 179.085 111.644 179.128 111.644 179.149C111.644 179.171 111.644 179.171 111.644 179.192C111.644 179.213 111.644 179.213 111.669 179.235C111.669 179.256 111.669 179.277 111.694 179.32C111.718 179.363 111.718 179.427 111.743 179.491C111.768 179.555 111.792 179.641 111.842 179.726C111.842 179.747 111.842 179.747 111.866 179.79C111.891 179.833 111.916 179.94 111.94 179.982C114.481 180.751 116.898 180.794 119.538 180.495C119.464 180.217 119.538 179.619 119.908 179.576C120.451 179.491 120.993 179.64 121.462 179.705C121.955 179.747 122.276 179.875 122.72 179.982C122.72 179.982 122.72 179.982 122.745 179.982C123.016 180.046 123.337 180.132 123.608 180.196C124.817 180.452 126.173 180.73 127.382 180.794C128.911 180.858 130.293 180.751 131.724 180.687C132.02 180.666 132.242 180.645 132.439 180.623C132.661 180.602 132.858 180.58 132.982 180.559C134.511 180.345 135.942 180.068 137.372 179.598C137.471 179.576 137.496 179.555 137.545 179.534C137.619 179.512 137.693 179.47 137.742 179.448C137.792 179.427 137.792 179.427 137.841 179.406C137.866 179.384 137.89 179.384 137.915 179.384C138.359 179.149 138.778 178.936 139.099 178.572C139.124 178.551 139.099 178.53 139.124 178.466C139.148 178.401 139.148 178.273 139.148 178.188C139.148 178.166 139.148 178.124 139.148 178.102C139.148 178.081 139.148 178.06 139.148 178.038C139.148 177.931 139.124 177.825 139.099 177.718C139.025 177.761 139.025 177.782 138.951 177.825C137.964 178.38 137.274 178.765 136.016 179.021C133.82 179.491 131.058 179.769 128.837 179.854C127.752 179.897 126.42 179.726 125.655 179.619C123.978 179.384 122.473 179 121.141 178.679C120.081 178.423 119.933 178.38 118.995 178.295C118.674 178.273 118.502 178.316 118.033 178.316C115.912 178.316 113.618 178.231 111.496 177.931C111.447 177.889 111.373 177.867 111.373 177.889Z" fill="black"/>
<path d="M111.398 178.167C111.373 178.252 111.422 178.316 111.447 178.402C111.447 178.402 111.447 178.402 111.447 178.423C111.447 178.444 111.472 178.53 111.472 178.573C111.472 178.615 111.496 178.637 111.496 178.679C111.496 178.722 111.521 178.743 111.521 178.786C111.521 178.829 111.546 178.893 111.57 178.936C111.595 178.978 111.595 179.043 111.62 179.064C111.644 179.085 111.62 179.107 111.644 179.128C111.644 179.149 111.644 179.149 111.669 179.171C111.669 179.192 111.669 179.192 111.669 179.213C111.669 179.235 111.669 179.235 111.694 179.256C111.694 179.278 111.694 179.299 111.718 179.32C111.718 179.342 111.718 179.299 111.718 179.342C111.743 179.384 111.743 179.449 111.768 179.513C111.792 179.577 111.817 179.662 111.866 179.748C111.866 179.769 111.866 179.769 111.891 179.812C111.916 179.854 111.94 179.961 111.965 180.004C114.506 180.773 116.923 180.816 119.563 180.517C119.563 180.196 119.513 179.662 119.957 179.577C120.5 179.491 120.993 179.641 121.511 179.705C121.931 179.748 122.325 179.897 122.745 179.983C122.745 179.983 122.745 179.983 122.769 179.983C123.065 180.047 123.337 180.132 123.633 180.196C124.891 180.474 126.149 180.709 127.456 180.816C127.481 180.816 127.53 180.816 127.555 180.816C128.739 180.837 129.947 180.794 131.132 180.73C131.354 180.709 131.576 180.709 131.798 180.688C132.02 180.666 132.291 180.645 132.513 180.624C132.71 180.602 132.883 180.581 133.08 180.559C134.486 180.389 135.818 180.132 137.15 179.705C137.274 179.662 137.372 179.619 137.446 179.598C137.52 179.577 137.57 179.555 137.619 179.534C137.693 179.513 137.767 179.47 137.816 179.448C137.866 179.427 137.866 179.427 137.915 179.406C137.94 179.384 137.94 179.384 137.989 179.384C138.458 179.171 138.902 179 139.173 178.573C139.198 178.53 139.173 178.53 139.198 178.466C139.198 178.402 139.222 178.273 139.222 178.188C139.222 178.167 139.222 178.124 139.222 178.103C139.222 178.081 139.247 178.06 139.222 178.06C139.198 178.06 139.346 178.017 139.173 178.038C139.124 178.06 139.642 177.761 138.951 178.209C138.236 178.637 137.446 179.085 135.942 179.384C133.278 179.876 128.566 180.346 125.803 179.94C123.041 179.534 121.635 178.765 119.044 178.637C116.504 178.444 113.889 178.551 111.398 178.167C111.422 178.167 111.398 178.167 111.398 178.167Z" fill="#232323"/>
<path d="M123.732 171.117C123.88 171.202 124.003 171.266 124.151 171.352C123.904 171.737 123.633 172.121 123.386 172.506C123.337 172.57 123.287 172.591 123.213 172.613C123.139 172.634 123.115 172.613 123.065 172.591C122.967 172.506 122.893 172.442 122.967 172.314C123.189 171.907 123.485 171.523 123.732 171.117Z" fill="#232323"/>
<path d="M124.422 173.039C124.373 173.104 124.324 173.125 124.249 173.125C124.175 173.146 124.126 173.125 124.101 173.104C124.003 173.018 123.929 172.954 124.003 172.826C124.225 172.441 124.521 172.078 124.743 171.693C124.891 171.778 125.015 171.842 125.163 171.928C124.941 172.291 124.669 172.676 124.422 173.039Z" fill="#232323"/>
<path d="M125.458 173.595C125.409 173.659 125.36 173.681 125.286 173.681C125.211 173.681 125.187 173.681 125.137 173.638C125.039 173.552 124.965 173.467 125.063 173.36C125.286 172.997 125.557 172.633 125.804 172.27C125.952 172.356 126.075 172.441 126.223 172.527C125.977 172.89 125.705 173.253 125.458 173.595Z" fill="#232323"/>
<path d="M15.9844 210.105C15.9598 210.147 15.7871 210.275 15.7871 210.318C15.7871 210.382 15.7131 210.425 15.7131 210.468C15.6884 210.51 15.6884 210.532 15.6638 210.575C15.6391 210.617 15.6391 210.639 15.6144 210.681C15.5898 210.724 15.5651 210.788 15.5404 210.81C15.5158 210.852 15.4911 210.895 15.4911 210.938C15.4664 210.98 15.4664 210.98 15.4664 211.002C15.4418 211.023 15.4418 211.045 15.4418 211.087C15.4171 211.109 15.4171 211.151 15.3924 211.173C15.3924 211.194 15.3924 211.173 15.3678 211.215C15.3431 211.258 15.3184 211.344 15.2938 211.386C15.2691 211.45 15.2197 211.557 15.2197 211.6C15.1951 211.643 15.2197 211.621 15.1951 211.685C15.1704 211.728 15.1457 211.835 15.1211 211.899C16.7245 213.843 18.5992 215.21 21.0412 216.364C21.1399 216.086 21.5099 215.638 21.8799 215.766C22.4226 215.937 22.768 216.321 23.1873 216.578C23.6067 216.834 23.8533 217.112 24.2233 217.389C24.2233 217.389 24.2233 217.389 24.2233 217.411C24.4453 217.582 24.692 217.795 24.9387 217.945C26.0241 218.586 27.2081 219.248 28.4415 219.526C29.9955 219.868 31.4509 219.782 32.9556 219.761C33.2516 219.761 33.4736 219.739 33.6956 219.739C33.9176 219.739 34.115 219.739 34.263 219.739C35.817 219.675 37.2724 219.504 38.7524 219.227C38.8511 219.205 38.8758 219.184 38.9498 219.184C39.0238 219.163 39.0978 219.141 39.1471 219.12C39.1964 219.099 39.2211 219.099 39.2458 219.099C39.2704 219.099 39.2951 219.077 39.3198 219.077C39.7884 218.906 40.2078 218.735 40.6025 218.415C40.6271 218.394 40.6271 218.351 40.6271 218.308C40.6518 218.265 40.6765 218.116 40.6765 218.052C40.6765 217.988 40.7011 217.966 40.6765 217.902C40.6518 217.859 40.7258 217.902 40.7258 217.881C39.9858 216.984 41.0218 216.834 39.3691 216.257C37.9384 215.766 35.817 215.958 33.9423 215.36C32.0429 214.762 30.4889 211.429 29.8722 210.019C29.2555 208.63 29.9955 209.293 28.7375 209.335C27.4548 209.378 25.5307 210.211 24.3713 209.314C23.1873 208.417 24.5933 207.391 23.952 206.387C23.3106 205.383 23.4093 205.34 21.5839 205.939C19.9806 206.43 16.7738 208.31 15.9844 210.105Z" fill="#444445"/>
<path d="M34.0163 219.697C34.0903 219.697 34.1644 219.676 34.2384 219.676C34.2384 219.59 34.2137 219.505 34.2137 219.398C34.1397 219.398 34.0656 219.419 33.9916 219.419C34.0163 219.505 34.0163 219.612 34.0163 219.697Z" fill="#444445"/>
<path d="M16.0831 209.87C16.0338 209.913 15.9598 210.041 15.9104 210.105C15.8611 210.169 15.8118 210.255 15.7871 210.319C15.7624 210.383 15.7378 210.426 15.7131 210.469C15.6884 210.511 15.6884 210.533 15.6638 210.575C15.6391 210.639 15.5898 210.746 15.5651 210.789C15.5404 210.853 15.5158 210.896 15.4911 210.917C15.4664 210.96 15.4664 211.003 15.4418 211.024C15.4418 211.045 15.4418 211.045 15.4171 211.067C15.4171 211.088 15.4171 211.088 15.3924 211.109C15.3678 211.131 15.3678 211.152 15.3678 211.195C15.3431 211.238 15.3184 211.302 15.2937 211.366C15.2691 211.43 15.2444 211.515 15.2197 211.601C15.2197 211.622 15.2197 211.622 15.1951 211.665C15.1704 211.708 15.1457 211.814 15.1211 211.857C16.7245 213.801 18.5992 215.169 21.0166 216.322C21.1152 216.044 21.4852 215.596 21.8553 215.724C22.3979 215.895 22.7433 216.279 23.1626 216.536C23.582 216.792 23.8286 217.07 24.1987 217.348C24.1987 217.348 24.1987 217.348 24.1987 217.369C24.4207 217.54 24.6673 217.753 24.914 217.903C25.9994 218.544 27.1834 219.206 28.4168 219.484C29.9708 219.826 31.4262 219.74 32.9309 219.719C33.2269 219.719 33.4489 219.698 33.6709 219.698C33.8929 219.698 34.0902 219.698 34.2382 219.698C35.7923 219.633 37.2477 219.463 38.7277 219.185C38.8264 219.163 38.851 219.142 38.925 219.142C38.999 219.121 39.073 219.099 39.1224 219.078C39.1717 219.057 39.1964 219.057 39.221 219.057C39.2457 219.057 39.2704 219.035 39.295 219.035C39.7637 218.864 40.1831 218.693 40.5777 218.373C40.6024 218.352 40.6024 218.309 40.6024 218.266C40.6271 218.223 40.6518 218.074 40.6518 218.01C40.6518 217.967 40.6518 217.946 40.6518 217.903C40.6518 217.882 40.6518 217.86 40.6518 217.839C40.6518 217.732 40.6518 217.625 40.6518 217.518C40.5777 217.54 40.5777 217.583 40.4791 217.625C39.3937 218.031 38.6784 218.33 37.3957 218.458C35.1756 218.672 32.4375 218.907 30.1928 218.864C29.1074 218.843 27.8987 218.373 27.1834 218.074C25.6294 217.412 24.47 216.408 23.4586 215.574C22.6446 214.912 22.5706 214.677 21.8059 214.143C21.5346 213.951 21.3866 213.908 21.0412 213.673C19.3392 212.584 17.6618 211.259 16.1571 209.913C16.1324 209.913 16.1324 209.828 16.0831 209.87Z" fill="black"/>
<path d="M15.9104 210.104C15.8364 210.169 15.8117 210.233 15.7871 210.318C15.7871 210.318 15.7871 210.318 15.7871 210.339C15.7871 210.361 15.7377 210.446 15.7131 210.468C15.6884 210.51 15.6884 210.532 15.6637 210.574C15.6391 210.617 15.6391 210.639 15.6144 210.681C15.5897 210.724 15.5651 210.788 15.5404 210.809C15.5157 210.852 15.4911 210.895 15.4911 210.938C15.4664 210.959 15.4664 210.98 15.4664 211.002C15.4664 211.023 15.4417 211.044 15.4417 211.044C15.4417 211.066 15.4417 211.066 15.417 211.087C15.417 211.109 15.417 211.109 15.3924 211.13C15.3924 211.151 15.3677 211.173 15.3677 211.194C15.3677 211.215 15.3677 211.194 15.343 211.237C15.3184 211.279 15.2937 211.365 15.269 211.408C15.2444 211.472 15.195 211.579 15.195 211.621C15.1704 211.664 15.195 211.643 15.1704 211.707C15.1457 211.749 15.121 211.856 15.0964 211.92C16.6998 213.864 18.5745 215.232 20.9919 216.385C21.1892 216.108 21.4112 215.659 21.8552 215.787C22.3732 215.958 22.7186 216.321 23.1626 216.62C23.5079 216.855 23.8286 217.154 24.1493 217.411C24.1493 217.411 24.1493 217.411 24.1739 217.432C24.4206 217.603 24.6426 217.817 24.8893 217.966C25.9993 218.65 27.1587 219.184 28.4414 219.59C28.4661 219.59 28.5154 219.611 28.5401 219.611C29.7734 219.804 31.0068 219.868 32.2648 219.825C32.4868 219.825 32.7335 219.782 32.9555 219.761C33.1775 219.739 33.4735 219.739 33.6709 219.739C33.8929 219.739 34.0655 219.739 34.2382 219.739C35.6443 219.675 37.001 219.526 38.3823 219.291C38.5057 219.269 38.6043 219.248 38.703 219.227C38.8017 219.205 38.8263 219.184 38.9003 219.184C38.9743 219.163 39.0483 219.141 39.0977 219.12C39.147 219.099 39.147 219.099 39.1963 219.099C39.221 219.077 39.2457 219.077 39.2704 219.077C39.7637 218.928 40.183 218.778 40.5284 218.436C40.5531 218.415 40.5531 218.372 40.5531 218.329C40.5777 218.287 40.6024 218.137 40.6024 218.094C40.6024 218.052 40.6024 218.03 40.6024 217.988C40.6024 217.945 40.6271 217.966 40.6024 217.924C40.5777 217.902 40.7257 217.924 40.5777 217.881C40.5284 217.859 40.9971 217.753 40.2077 218.073C39.4184 218.394 38.5797 218.714 37.075 218.821C34.4109 219.013 29.7734 219.398 27.208 218.329C24.6426 217.261 23.7299 215.766 21.6085 214.42C19.6352 213.138 17.7111 211.643 15.9104 210.104Z" fill="#232323"/>
<path d="M30.3662 210.297C30.4155 210.404 30.4649 210.511 30.4896 210.639C30.0453 210.853 29.5764 211.066 29.1569 211.259C29.0828 211.301 29.0335 211.301 28.9594 211.28C28.8854 211.259 28.8607 211.237 28.8607 211.195C28.836 211.066 28.8607 211.002 29.0088 210.938C29.453 210.724 29.9219 210.511 30.3662 210.297Z" fill="#232323"/>
<path d="M29.527 212.049C29.4529 212.092 29.4036 212.092 29.3296 212.07C29.2555 212.049 29.2308 212.049 29.2308 211.985C29.2308 211.856 29.2308 211.792 29.3542 211.728C29.7738 211.515 30.2427 211.322 30.6622 211.108C30.7116 211.215 30.761 211.322 30.7856 211.429C30.3908 211.643 29.9465 211.856 29.527 212.049Z" fill="#232323"/>
<path d="M29.9216 212.861C29.8476 212.904 29.7982 212.904 29.7242 212.882C29.6501 212.861 29.6255 212.861 29.6255 212.797C29.6008 212.669 29.6255 212.604 29.7489 212.54C30.1437 212.327 30.5879 212.113 31.0075 211.92C31.0568 212.027 31.1062 212.134 31.1556 212.241C30.7607 212.433 30.3165 212.647 29.9216 212.861Z" fill="#232323"/>
<path opacity="0.07" d="M77.8747 226H15.7871C11.5196 226 8.04153 222.987 8.04153 219.292C8.04153 215.596 11.5196 212.583 15.7871 212.583H77.8747C82.1422 212.583 85.6203 215.596 85.6203 219.292C85.6203 223.009 82.1668 226 77.8747 226Z" fill="#6457A4"/>
<path opacity="0.39" d="M88.7777 142.853L88.235 143.045C88.235 143.045 86.681 143.771 85.3243 144.391C86.0643 143.536 86.5083 142.511 86.5576 141.4L87.939 117.345L88.235 112.175L88.7777 142.853Z" fill="#C9BDA3"/>
<path d="M88.0377 115.721L87.939 117.345L86.5576 141.4C86.4836 142.49 86.0396 143.536 85.3242 144.391C84.7322 145.075 83.9675 145.63 83.0795 146.015C77.1594 148.493 71.1159 150.736 66.3551 152.424C63.9377 153.278 61.8656 153.983 60.3116 154.496C59.0535 154.902 57.7955 153.919 58.1408 152.808L68.0078 120.293L68.5505 118.477C68.6245 118.242 68.3038 118.093 68.1064 118.242L41.5891 138.302L40.627 137.961L36.3596 136.422C35.9896 136.294 35.7429 136.059 35.5949 135.782C35.3976 135.376 35.4222 134.884 35.7676 134.5L65.1217 101.685C66.1824 100.51 67.6871 99.6772 69.3645 99.3568L76.296 98.0322L85.8423 109.334C87.3716 111.171 88.161 113.414 88.0377 115.721Z" fill="#6457A4"/>
<path d="M88.0378 115.721L87.9391 117.345L69.3645 99.3568L76.2961 98.0322L85.8424 109.334C87.3718 111.171 88.1611 113.414 88.0378 115.721Z" fill="#4E4688"/>
<path opacity="0.2" d="M67.9831 120.25L66.3304 152.403C63.9131 153.257 61.841 153.962 60.287 154.475C59.029 154.881 57.7709 153.898 58.1163 152.787L67.9831 120.25Z" fill="black"/>
<path opacity="0.2" d="M120.475 99.7842C114.53 102.626 108.709 105.638 105.625 107.261C104.047 108.095 102.912 109.419 102.493 110.979C99.7053 121.425 105.132 131.808 105.132 131.808C105.132 131.808 104.269 133.026 102.912 134.478C99.7546 131.637 99.1626 122.515 99.1626 116.106C99.1626 112.09 101.728 108.394 105.847 106.492L120.475 99.7842Z" fill="black"/>
<path d="M91.8365 141.763C91.7378 142.66 91.5898 143.558 91.4171 144.455C91.2444 145.352 91.0224 146.228 90.7758 147.125C90.5044 148.001 90.2331 148.877 89.863 149.732C89.493 150.586 89.0737 151.42 88.4817 152.167C88.605 151.954 88.7037 151.761 88.827 151.569C88.9257 151.355 89.0243 151.163 89.123 150.95C89.2217 150.736 89.3204 150.522 89.3944 150.309C89.493 150.095 89.567 149.881 89.641 149.668C89.8137 149.24 89.9617 148.813 90.1097 148.386C90.2331 147.959 90.3811 147.51 90.5044 147.083C90.7758 146.207 90.9978 145.331 91.1951 144.434C91.2938 143.985 91.4171 143.558 91.5158 143.109C91.6391 142.66 91.7378 142.212 91.8365 141.763Z" fill="#231F20"/>
<path opacity="0.4" d="M115.961 143.323L91.5651 150.33C89.0491 151.249 87.125 153.065 86.2123 155.286L77.9487 173.808C78.0474 173.424 84.5103 148.087 91.8611 147.403C99.2613 146.741 115.961 143.323 115.961 143.323Z" fill="black"/>
<path opacity="0.2" d="M117.86 167.378L113.963 168.168L115.961 143.323L117.86 167.378Z" fill="black"/>
<path opacity="0.2" d="M71.2639 183.614L70.9185 183.913C70.8199 183.977 70.6965 184.042 70.5978 184.106L36.2609 204.764L32.1662 203.461L71.2639 183.614Z" fill="black"/>
<path d="M93.2672 94.7416C89.7151 95.5534 87.4456 95.1047 86.0643 94.4852C86.3849 93.8016 86.607 93.1393 86.7303 92.6479C87.3963 93.2034 88.1857 93.6307 89.049 93.9297C89.419 94.0579 89.8137 94.1434 90.2084 94.2075C90.6278 94.2716 91.0718 94.3143 91.5158 94.3143C92.0585 94.3143 92.5765 94.2502 93.0945 94.1647C93.1685 94.357 93.2178 94.5493 93.2672 94.7416Z" fill="#F16B6C"/>
<path d="M40.6025 137.918C40.0105 138.559 39.5418 139.306 39.2211 140.075L38.6291 141.549C38.2837 140.866 37.8644 140.204 37.371 139.563C36.7544 138.708 34.9043 137.213 35.2743 136.08C35.3236 135.931 35.4223 135.803 35.5456 135.717C35.6937 135.995 35.9403 136.23 36.3103 136.358L40.6025 137.918Z" fill="#F16B6C"/>
<path opacity="0.35" d="M79.9221 85.9398L80.2674 87.0721C80.5881 88.0761 81.4268 88.9093 82.5368 89.2939L82.9562 89.422C83.3262 90.5116 84.0169 91.4943 84.9049 92.2634L97.4606 89.1229C97.5099 89.2298 97.6826 89.2511 97.8059 89.2084C97.9293 89.1443 97.9786 89.0375 98.0279 88.9307C98.0773 88.8239 98.1266 88.717 98.1759 88.6102C98.2993 87.9907 98.324 87.3284 98.2253 86.6875L97.8799 84.1453L97.5839 82.073C97.4606 81.1757 97.1399 80.3426 96.6712 79.6162C95.1665 77.2662 92.1571 75.8349 88.901 76.1767C86.1876 76.4544 83.9675 77.9071 82.8328 79.8726C82.3395 80.7271 82.0435 81.6885 82.0188 82.6925C82.0188 82.7139 82.0188 82.7566 82.0188 82.778V82.8848C82.0188 83.1625 82.0435 83.4189 82.0681 83.6966L82.1915 84.6366L82.2161 84.7862L81.2541 84.658C80.3907 84.5512 79.7001 85.2348 79.9221 85.9398Z" fill="black"/>
<path opacity="0.19" d="M99.6067 77.9722C99.6067 77.9935 99.5819 78.0363 99.5819 78.0577C99.6067 78.0363 99.6067 78.0149 99.6067 77.9722Z" fill="white"/>
<path d="M97.4359 81.4758C96.7945 81.6467 96.1532 81.7749 95.5118 81.8603C95.3885 81.8817 95.2652 81.8817 95.1665 81.9031C93.7605 82.0526 92.3051 82.0312 90.8991 81.9458C89.6904 81.8817 88.457 81.7535 87.3223 81.369C85.1516 80.6213 84.4116 81.4972 83.7456 83.2062C83.4989 83.8471 83.0796 84.2958 82.6602 84.723L82.2162 84.7871L82.1915 84.6376L82.1422 84.2958L82.0682 83.6762C82.0189 83.3985 82.0189 83.1208 82.0189 82.8644V82.7576C82.0189 82.7362 82.0189 82.6935 82.0189 82.6721C82.0435 81.6681 82.3395 80.7067 82.8329 79.8308C83.9676 77.8654 86.1876 76.4127 88.901 76.1349C91.8858 75.8145 94.6978 77.0322 96.3012 79.0404C96.3259 79.0831 96.3505 79.1258 96.3999 79.1472C96.4985 79.2754 96.5972 79.4249 96.6959 79.5744C97.0165 80.194 97.2879 80.8135 97.4359 81.4758Z" fill="#F97C15"/>
<path d="M82.6355 84.7226C82.3395 85.0217 82.0682 85.3422 81.8215 85.7267C81.4269 86.389 81.9695 87.9271 82.7589 89.3799L82.5122 89.2944C81.7475 89.038 81.1062 88.5467 80.6622 87.9485C80.4649 87.6708 80.3169 87.3931 80.2182 87.0726L79.8729 85.9403C79.6509 85.2354 80.3415 84.5517 81.1802 84.6585L82.1422 84.7867" fill="#F28389"/>
<path d="M102.739 76.989C102.616 77.2881 102.468 77.5872 102.295 77.8862C101.309 79.574 99.5819 80.8771 97.4358 81.4753C97.2632 80.813 96.9918 80.1935 96.6465 79.6167C96.5478 79.4671 96.4491 79.339 96.3505 79.1894C96.3258 79.1467 96.3011 79.104 96.2518 79.0826C94.6484 77.0744 91.861 75.8567 88.8516 76.1772C86.1382 76.4549 83.9182 77.9076 82.7835 79.873C82.2901 80.7276 81.9941 81.6889 81.9695 82.7144C81.9695 82.7357 81.9695 82.7785 81.9695 82.7998V82.9067C81.9695 83.1844 81.9941 83.4407 82.0188 83.7185L82.0928 84.338L82.1421 84.6798L82.1668 84.8294L81.7721 84.7866L81.2048 84.7012C80.5388 84.6157 79.9714 85.0216 79.8727 85.5557C79.8481 85.6839 79.8481 85.8334 79.8974 85.983L80.2428 87.1152C80.3414 87.4357 80.4894 87.7134 80.6868 87.9912C81.1061 88.5893 81.7475 89.0593 82.5368 89.337L82.7835 89.4225C82.9315 89.7002 83.1042 89.9993 83.2768 90.277C83.5975 90.7898 83.9675 91.3879 84.4362 91.8152C84.6335 92.0075 85.1762 92.5843 85.3982 92.6697C82.8328 91.6229 80.4154 90.1702 78.7627 88.2048C78.6641 88.098 78.5901 87.9912 78.4914 87.8843C76.814 85.748 76.0987 82.9494 77.0607 80.4926C77.2827 79.9158 77.628 79.339 78.1214 78.8903C79.0094 78.0785 80.3414 77.7153 81.5995 77.4162C80.9088 76.3908 81.4268 75.0663 82.2655 74.1476C84.0662 72.1608 87.3469 71.3063 90.1097 72.1181C90.899 72.3531 91.565 72.5454 92.231 72.0113C93.3657 71.0927 94.0564 69.8536 95.2158 68.9563C96.5725 67.8882 98.4225 67.7172 100.075 68.4222C103.504 69.8322 103.849 74.2117 102.739 76.989Z" fill="#F97C15"/>
<path d="M98.1513 88.6317C97.7566 90.6612 96.3259 92.413 94.2785 93.4171C94.1059 93.5025 93.9332 93.588 93.7605 93.6521C93.2178 93.8657 92.6505 94.0366 92.0338 94.1434C91.9351 94.1648 91.8365 94.1862 91.7378 94.1862C91.6145 94.2075 91.5158 94.2075 91.3925 94.2289C90.6278 94.3143 89.9124 94.293 89.1971 94.1862C88.4077 94.0793 87.643 93.8657 86.9524 93.5452C86.4343 93.3103 85.941 93.0325 85.4723 92.7121C85.275 92.5839 85.0776 92.4343 84.905 92.2634C84.239 91.6866 83.6716 90.9816 83.2769 90.1912C83.1536 89.9348 83.0303 89.6785 82.9562 89.4007L82.7836 89.3366C81.9696 87.8839 81.4515 86.3458 81.8462 85.6835C82.2902 84.9571 82.9069 84.4871 83.3756 83.8249C83.5236 83.6112 83.6469 83.3976 83.7456 83.1412C84.4116 81.4322 85.1516 80.5563 87.3224 81.304C88.4571 81.6885 89.6904 81.8167 90.8991 81.8808C92.4285 81.9662 94.0072 81.9876 95.5366 81.7953C95.6846 81.774 95.8079 81.7526 95.9559 81.7313C96.0792 81.7099 96.1779 81.6885 96.3013 81.6672C96.3753 81.6672 96.4246 81.6458 96.4986 81.6244C96.5233 81.6244 96.5479 81.6244 96.5726 81.6031C96.6219 81.6031 96.6713 81.5817 96.7206 81.5603C96.7453 81.5603 96.7946 81.539 96.8193 81.539C96.8686 81.5176 96.9179 81.5176 96.9919 81.4963C97.0166 81.4963 97.0659 81.4749 97.0906 81.4749C97.1399 81.4535 97.1893 81.4535 97.2386 81.4322C97.3126 81.4108 97.4113 81.3894 97.4853 81.3681C97.5346 81.5603 97.584 81.774 97.6086 81.9876L97.732 82.8422L97.7566 83.0985L97.7813 83.2908L97.806 83.4617L97.8553 83.889L97.88 84.0599L98.2253 86.6021C98.2993 87.3498 98.2746 88.0121 98.1513 88.6317Z" fill="#F28389"/>
<path d="M95.5119 81.8605C95.66 81.8391 95.7834 81.8178 95.9315 81.7964C95.7834 81.8178 95.6353 81.8391 95.5119 81.8605Z" fill="#FF8500"/>
<path d="M102.295 77.8867C101.901 79.1899 100.297 80.8135 99.7548 81.3262C99.0394 82.0312 98.2994 82.7576 97.7567 83.548L97.732 83.3771L97.5594 82.0739C97.5347 81.8603 97.4854 81.668 97.436 81.4544C99.5821 80.8776 101.309 79.5958 102.295 77.8867Z" fill="#EA6400"/>
<path d="M85.3736 92.6272C82.8082 91.5804 80.3908 90.1277 78.7381 88.1622C78.7134 87.7991 78.7134 87.4359 78.7627 87.0727C78.8367 86.56 79.0094 86.0045 79.4781 85.7055C79.6014 85.62 79.7494 85.5773 79.8974 85.5132C79.8728 85.6414 79.8728 85.7909 79.9221 85.9405L80.2675 87.0727C80.3661 87.3932 80.5141 87.6709 80.7115 87.9486C81.1308 88.5468 81.7722 89.0168 82.5615 89.2945L82.8082 89.38C82.9562 89.6577 83.1289 89.9568 83.3016 90.2345C83.6222 90.7472 83.9923 91.3454 84.4609 91.7727C84.6336 91.9436 85.1763 92.5417 85.3736 92.6272Z" fill="#EA6400"/>
<path d="M86.385 79.3384C89.4684 79.488 92.2064 81.3038 95.1418 81.8807C93.7358 82.0302 92.2804 82.0088 90.8744 81.9234C89.6657 81.8593 88.4324 81.7311 87.2977 81.3466C85.127 80.5989 84.387 81.4748 83.7209 83.1838C83.4743 83.8247 83.0549 84.2734 82.6356 84.7006L82.1916 84.7647L81.7969 84.722C81.9202 84.5938 82.0189 84.4443 82.1176 84.2947C82.4136 83.8247 82.5616 83.2479 82.6603 82.7138C82.8329 81.7311 82.9563 80.6416 83.7703 79.9793C84.461 79.4452 85.4723 79.2957 86.385 79.3384Z" fill="#EA6400"/>
<path d="M96.1289 82.0306H96.0055L95.4132 82.0092C95.4625 81.9878 95.5119 81.9878 95.5613 81.9664C95.7587 81.9237 95.9561 81.9664 96.1289 82.0306Z" fill="#FF8500"/>
<path d="M97.2145 82.0523C96.869 82.0743 96.4987 82.0523 96.1532 82.0303H96.1285L97.2145 82.0523Z" fill="#FF8500"/>
<path d="M97.6826 82.9283C95.3392 83.9324 92.4285 83.7829 89.863 83.2061C88.605 82.9283 87.2976 82.5438 86.0149 82.7788C85.0529 82.9711 84.2389 83.4624 83.3755 83.8683C83.5235 83.6547 83.6469 83.4411 83.7455 83.1847C84.4115 81.4756 85.1516 80.5997 87.3223 81.3474C88.457 81.732 89.6904 81.8602 90.8991 81.9243C92.4285 82.0097 94.0072 82.0311 95.5365 81.8388C95.6845 81.8174 95.8079 81.7961 95.9559 81.7747C96.0792 81.7533 96.1779 81.732 96.3012 81.7106C96.3752 81.7106 96.4246 81.6893 96.4986 81.6679C96.5232 81.6679 96.5479 81.6679 96.5726 81.6465C96.6219 81.6465 96.6712 81.6252 96.7206 81.6038C96.7453 81.6038 96.7946 81.5824 96.8193 81.5824C96.8686 81.5611 96.9179 81.5611 96.9919 81.5397C97.0166 81.5397 97.0659 81.5183 97.0906 81.5183C97.1399 81.497 97.1893 81.497 97.2386 81.4756C97.3126 81.4543 97.4113 81.4329 97.4853 81.4115C97.5346 81.6038 97.5839 81.8174 97.6086 82.0311L97.6826 82.9283Z" fill="#F16B6C"/>
<path d="M315.273 109.27C315.051 109.334 314.804 109.377 314.558 109.419C314.459 109.441 314.36 109.441 314.262 109.462H287.325C277.113 108.479 267.936 106.728 264.853 105.104C262.214 103.715 260.265 102.092 258.982 100.404C256.639 97.3063 256.515 94.0377 258.267 91.6877C258.588 91.2391 258.933 90.8118 259.303 90.3846C259.402 90.2777 259.476 90.1709 259.574 90.0641C259.673 89.9573 259.747 89.8505 259.846 89.7437C260.438 89.06 261.03 88.4618 261.622 87.9278C261.72 87.8423 261.844 87.7355 261.942 87.65C261.992 87.6073 262.041 87.5646 262.115 87.5219C262.263 87.3937 262.411 87.2869 262.559 87.1587C262.633 87.0946 262.707 87.0519 262.781 86.9878C262.855 86.945 262.904 86.881 262.978 86.8382C263.003 86.8169 263.028 86.7955 263.052 86.7741C264.064 86.0264 265.174 85.3214 266.53 84.5096C267.394 82.7151 268.331 80.8778 269.392 79.0406C270.008 77.9724 270.674 76.8828 271.365 75.836C271.39 75.8147 271.415 75.7719 271.415 75.7506C271.489 75.6438 271.538 75.5369 271.612 75.4515C271.612 75.4301 271.636 75.4301 271.636 75.4088C271.76 75.2165 271.883 75.0456 272.007 74.8533C272.031 74.832 272.031 74.8106 272.056 74.7892C272.204 74.597 272.327 74.4047 272.475 74.191C272.5 74.1483 272.549 74.1056 272.574 74.0629C275.386 70.1747 278.79 66.7566 282.934 64.7698C282.959 64.7698 282.959 64.7484 282.983 64.7484C283.107 64.6843 283.23 64.6416 283.353 64.5775C283.452 64.5348 283.551 64.492 283.649 64.4493C283.797 64.3852 283.97 64.3211 284.118 64.257C284.143 64.257 284.167 64.2357 284.192 64.2357C284.217 64.2357 284.241 64.2143 284.266 64.2143C286.462 63.3384 288.386 62.8257 290.063 62.5052C290.063 62.5052 290.063 62.5052 290.088 62.5052C290.162 62.4839 290.236 62.4839 290.31 62.4625L291.568 62.2275L292.382 62.2702L292.209 58.2539C292.184 57.613 292.234 56.9934 292.332 56.3739C292.776 53.9812 294.01 48.0208 295.81 47.1662C297.167 46.5253 298.474 46.6535 299.461 47.4653C299.585 47.5935 299.708 47.7003 299.831 47.8285C300.3 48.3412 300.645 49.0462 300.843 49.9008C301.459 52.6353 303.309 53.5967 305.949 53.9385C307.527 54.1521 307.922 53.0626 308.489 51.9089C308.859 51.1185 309.328 50.3067 310.241 49.8367C312.535 48.619 313.719 52.1439 315.717 52.7208C317.222 53.148 309.229 58.7453 305.184 61.5011C305.11 61.5011 305.036 61.5011 304.962 61.5011C304.271 61.5011 303.63 61.7575 303.013 62.0352C302.989 62.0352 302.989 62.0139 302.964 62.0139C302.816 61.9711 302.693 61.9498 302.569 61.9498C301.336 61.4157 299.757 61.3516 298.795 62.3557C298.697 62.4625 298.623 62.5693 298.549 62.6761C298.524 62.7189 298.499 62.7616 298.474 62.8043C298.277 63.2102 298.252 63.6802 298.474 64.0861C298.77 64.6629 299.412 65.0902 300.177 65.0902C300.744 65.0902 301.188 64.8552 301.509 64.492C301.41 64.8552 301.287 65.2184 301.188 65.5816C300.917 66.5002 300.695 67.4402 300.522 68.3802C300.448 68.8502 300.349 69.3202 300.3 69.7902C300.275 70.0252 300.226 70.2602 300.201 70.5165C300.177 70.7943 300.177 71.0506 300.177 71.3283C300.177 71.777 300.078 72.247 300.053 72.717C300.004 73.2297 300.004 73.7211 300.004 74.2338C300.004 74.5329 300.374 74.7251 300.67 74.7251C300.966 74.7251 301.311 74.5115 301.336 74.2338C301.385 73.7424 301.41 73.2724 301.459 72.7811C301.484 72.3324 301.484 71.8624 301.558 71.4138C301.583 71.2856 301.632 71.1788 301.657 71.072C301.681 70.9438 301.681 70.837 301.706 70.7088C301.731 70.4738 301.755 70.2174 301.78 69.9824C301.829 69.5124 301.903 69.0424 301.977 68.5725C302.125 67.6325 302.249 66.6711 302.397 65.7311C302.495 65.1116 302.619 64.5134 302.742 63.9152C302.915 64.4066 303.087 64.8766 303.235 65.3679C303.63 66.7352 303.877 68.1452 303.926 69.5552C303.975 70.9224 303.729 72.3111 303.556 73.6783C303.507 73.9561 303.729 74.2124 304.025 74.2979C304.321 74.362 304.691 74.2338 304.789 73.9774C305.135 73.0588 305.258 72.0974 305.332 71.1361C305.431 69.6406 305.283 68.1452 304.913 66.6711C304.715 65.902 304.469 65.1543 304.123 64.4066C304.345 64.492 304.567 64.5775 304.814 64.6416C305.307 64.7484 305.825 64.727 306.269 64.5348C315.544 69.0211 318.973 78.5492 320.749 87.0519C321.144 88.9959 321.736 91.5596 322.081 94.2514C322.821 100.532 322.352 107.539 315.273 109.27Z" fill="white"/>
<path opacity="0.3" d="M315.273 109.27C315.051 109.334 314.804 109.377 314.558 109.419C314.459 109.441 314.36 109.441 314.262 109.462H287.325C277.113 108.479 267.936 106.728 264.853 105.104C262.214 103.715 260.265 102.092 258.982 100.404C256.639 97.3063 256.515 94.0377 258.267 91.6877C258.588 91.2391 258.933 90.8118 259.303 90.3846C259.402 90.2777 259.476 90.1709 259.574 90.0641C259.673 89.9573 259.747 89.8505 259.846 89.7437C260.438 89.06 261.03 88.4618 261.622 87.9278C261.72 87.8423 261.844 87.7355 261.942 87.65C261.992 87.6073 262.041 87.5646 262.115 87.5219C262.263 87.3937 262.411 87.2869 262.559 87.1587C262.633 87.0946 262.707 87.0519 262.781 86.9878C262.855 86.945 262.904 86.881 262.978 86.8382C263.003 86.8169 263.028 86.7955 263.052 86.7741C264.064 86.0264 265.174 85.3214 266.53 84.5096C267.394 82.7151 268.331 80.8778 269.392 79.0406C270.008 77.9724 270.674 76.8828 271.365 75.836C271.39 75.8147 271.415 75.7719 271.415 75.7506C271.489 75.6438 271.538 75.5369 271.612 75.4515C271.612 75.4301 271.636 75.4301 271.636 75.4088C271.76 75.2165 271.883 75.0456 272.007 74.8533C272.031 74.832 272.031 74.8106 272.056 74.7892C272.204 74.597 272.327 74.4047 272.475 74.191C272.5 74.1483 272.549 74.1056 272.574 74.0629C275.386 70.1747 278.79 66.7566 282.934 64.7698C282.959 64.7698 282.959 64.7484 282.983 64.7484C283.107 64.6843 283.23 64.6416 283.353 64.5775C283.452 64.5348 283.551 64.492 283.649 64.4493C283.797 64.3852 283.97 64.3211 284.118 64.257C284.143 64.257 284.167 64.2357 284.192 64.2357C284.217 64.2357 284.241 64.2143 284.266 64.2143C286.462 63.3384 288.386 62.8257 290.063 62.5052C290.063 62.5052 290.063 62.5052 290.088 62.5052C290.162 62.4839 290.236 62.4839 290.31 62.4625L291.568 62.2275L292.382 62.2702L292.209 58.2539C292.184 57.613 292.234 56.9934 292.332 56.3739C292.776 53.9812 294.01 48.0208 295.81 47.1662C297.167 46.5253 298.474 46.6535 299.461 47.4653C299.585 47.5935 299.708 47.7003 299.831 47.8285C300.3 48.3412 300.645 49.0462 300.843 49.9008C301.459 52.6353 303.309 53.5967 305.949 53.9385C307.527 54.1521 307.922 53.0626 308.489 51.9089C308.859 51.1185 309.328 50.3067 310.241 49.8367C312.535 48.619 313.719 52.1439 315.717 52.7208C317.222 53.148 309.229 58.7453 305.184 61.5011C305.11 61.5011 305.036 61.5011 304.962 61.5011C304.271 61.5011 303.63 61.7575 303.013 62.0352C302.989 62.0352 302.989 62.0139 302.964 62.0139C302.816 61.9711 302.693 61.9498 302.569 61.9498C301.336 61.4157 299.757 61.3516 298.795 62.3557C298.697 62.4625 298.623 62.5693 298.549 62.6761C298.524 62.7189 298.499 62.7616 298.474 62.8043C298.277 63.2102 298.252 63.6802 298.474 64.0861C298.77 64.6629 299.412 65.0902 300.177 65.0902C300.744 65.0902 301.188 64.8552 301.509 64.492C301.41 64.8552 301.287 65.2184 301.188 65.5816C300.917 66.5002 300.695 67.4402 300.522 68.3802C300.448 68.8502 300.349 69.3202 300.3 69.7902C300.275 70.0252 300.226 70.2602 300.201 70.5165C300.177 70.7943 300.177 71.0506 300.177 71.3283C300.177 71.777 300.078 72.247 300.053 72.717C300.004 73.2297 300.004 73.7211 300.004 74.2338C300.004 74.5329 300.374 74.7251 300.67 74.7251C300.966 74.7251 301.311 74.5115 301.336 74.2338C301.385 73.7424 301.41 73.2724 301.459 72.7811C301.484 72.3324 301.484 71.8624 301.558 71.4138C301.583 71.2856 301.632 71.1788 301.657 71.072C301.681 70.9438 301.681 70.837 301.706 70.7088C301.731 70.4738 301.755 70.2174 301.78 69.9824C301.829 69.5124 301.903 69.0424 301.977 68.5725C302.125 67.6325 302.249 66.6711 302.397 65.7311C302.495 65.1116 302.619 64.5134 302.742 63.9152C302.915 64.4066 303.087 64.8766 303.235 65.3679C303.63 66.7352 303.877 68.1452 303.926 69.5552C303.975 70.9224 303.729 72.3111 303.556 73.6783C303.507 73.9561 303.729 74.2124 304.025 74.2979C304.321 74.362 304.691 74.2338 304.789 73.9774C305.135 73.0588 305.258 72.0974 305.332 71.1361C305.431 69.6406 305.283 68.1452 304.913 66.6711C304.715 65.902 304.469 65.1543 304.123 64.4066C304.345 64.492 304.567 64.5775 304.814 64.6416C305.307 64.7484 305.825 64.727 306.269 64.5348C315.544 69.0211 318.973 78.5492 320.749 87.0519C321.144 88.9959 321.736 91.5596 322.081 94.2514C322.821 100.532 322.352 107.539 315.273 109.27Z" fill="#FCB713"/>
<path opacity="0.8" d="M308.465 51.909C307.898 53.0627 307.503 54.1522 305.924 53.9386C303.285 53.5967 301.435 52.6568 300.843 49.9009C300.645 49.025 300.3 48.3413 299.831 47.8286C303.457 51.2468 306.566 51.9304 308.465 51.909Z" fill="#FCB713"/>
<path opacity="0.5" d="M320.823 104.377C320.527 106.279 318.603 107.71 316.58 108.522C310.808 110.872 304.543 109.462 298.45 109.462C294.824 109.462 290.926 109.804 287.3 109.462C277.088 108.479 267.912 106.727 264.828 105.104C262.189 103.715 260.24 102.091 258.958 100.404C256.614 97.3061 256.491 94.0375 258.242 91.6875C259.574 89.9143 261.079 88.2266 262.929 86.838C267.32 83.5694 268.972 79.2112 271.883 75.0026C274.843 70.7085 278.716 66.4145 284.069 64.2568C284.094 64.2568 284.118 64.2354 284.143 64.2354C284.168 64.2354 284.192 64.2141 284.217 64.2141C284.932 63.9577 287.695 63.0391 290.014 62.505C290.014 62.505 290.014 62.505 290.038 62.505C290.112 62.4836 290.186 62.4622 290.26 62.4622C290.704 62.3554 291.124 62.2913 291.518 62.2272C291.814 62.1845 292.086 62.1632 292.332 62.1418C292.826 62.1204 293.196 62.1632 293.368 62.3341C293.418 62.3768 293.442 62.4409 293.442 62.5263C293.442 62.5691 293.442 62.5904 293.442 62.6332C293.344 63.1886 292.308 64.0431 291.938 64.5345C290.433 66.5427 289.101 68.6577 287.991 70.8367C286.264 74.1908 285.006 77.7799 284.464 81.4116C284.069 84.1675 283.082 86.8807 281.553 89.3375C280.492 91.0466 278.469 92.072 277.606 93.8879C275.855 97.5411 280.122 98.8229 283.033 100.212C285.944 101.6 288.904 102.882 292.061 103.758C296.649 105.018 301.459 105.616 306.245 105.659C307.528 105.681 320.799 104.612 320.823 104.377Z" fill="#FCB713"/>
<g opacity="0.8">
<path opacity="0.8" d="M295.465 95.3412C294.775 95.149 294.207 94.914 293.689 94.6362C293.196 94.3585 292.777 94.1021 292.407 93.8458C292.061 93.5894 291.765 93.3331 291.568 93.0981C291.371 92.8631 291.222 92.6922 291.124 92.5853C291.025 92.4572 290.976 92.3503 290.976 92.2435C290.951 92.1367 291.025 92.0299 291.198 91.9017L292.579 90.8122C292.727 90.684 292.875 90.6413 293.048 90.6626C293.221 90.684 293.393 90.8335 293.591 91.0685C293.887 91.4317 294.281 91.7735 294.701 92.1153C295.145 92.4572 295.638 92.7135 296.156 92.9058L297.439 88.6117C296.896 88.2699 296.378 87.9067 295.885 87.5222C295.367 87.1163 294.923 86.689 294.553 86.1977C294.183 85.7063 293.911 85.1722 293.763 84.5954C293.615 83.9972 293.64 83.3563 293.862 82.6086C294.01 82.0745 294.257 81.6045 294.602 81.1772C294.947 80.75 295.367 80.3868 295.885 80.1091C296.403 79.8313 297.019 79.6391 297.735 79.5322C298.45 79.4254 299.239 79.4468 300.127 79.575L300.325 78.87C300.349 78.7632 300.423 78.6563 300.547 78.6136C300.67 78.5495 300.793 78.5495 300.917 78.5709L301.237 78.635C301.361 78.6563 301.484 78.7418 301.533 78.8272C301.607 78.9341 301.607 79.0409 301.583 79.1477L301.361 79.8741C301.903 80.045 302.397 80.2372 302.866 80.4722C303.334 80.7072 303.729 80.9422 304.074 81.1772C304.42 81.4122 304.691 81.6472 304.913 81.8395C305.135 82.0318 305.283 82.1813 305.382 82.2881C305.505 82.3949 305.554 82.5231 305.53 82.6727C305.505 82.8222 305.431 82.9504 305.332 83.0572L303.926 84.104C303.63 84.3177 303.384 84.3177 303.161 84.1254C302.865 83.8477 302.52 83.5272 302.101 83.1854C301.681 82.8436 301.188 82.5445 300.645 82.2881L299.437 86.3045C299.93 86.6249 300.448 87.0095 300.991 87.4154C301.533 87.8213 302.002 88.2913 302.397 88.804C302.791 89.3167 303.087 89.8722 303.285 90.4917C303.482 91.1113 303.458 91.7735 303.236 92.4785C302.866 93.6749 302.125 94.5721 300.991 95.1703C299.856 95.7685 298.401 95.918 296.674 95.619L295.983 97.9049C295.959 98.0117 295.86 98.0971 295.737 98.1612C295.613 98.2039 295.49 98.2253 295.342 98.1826C295.194 98.1398 295.021 98.0971 294.849 98.0117C294.676 97.9262 294.627 97.798 294.676 97.6058L295.465 95.3412ZM299.437 82.0104C298.771 81.9463 298.228 82.0104 297.833 82.2454C297.414 82.459 297.167 82.7795 297.019 83.2068C296.896 83.6554 296.945 84.0399 297.167 84.4031C297.414 84.7663 297.809 85.1508 298.351 85.5995L299.437 82.0104ZM297.463 93.2476C298.055 93.3117 298.573 93.269 299.017 93.0767C299.461 92.8844 299.757 92.564 299.905 92.0513C300.029 91.624 300.004 91.1967 299.807 90.7481C299.609 90.2994 299.215 89.8508 298.623 89.3808L297.463 93.2476Z" fill="#FCB713"/>
</g>
<path opacity="0.8" d="M306.886 62.3772C306.516 61.8218 305.875 61.5227 305.159 61.48C305.085 61.48 305.011 61.48 304.937 61.48C304.247 61.48 303.605 61.7363 302.989 62.0141C302.964 62.0141 302.964 61.9927 302.939 61.9927C302.791 61.95 302.668 61.9286 302.545 61.9286C301.311 61.3945 299.733 61.3304 298.771 62.3345C298.672 62.4413 298.598 62.5482 298.524 62.655C298.499 62.6977 298.475 62.7404 298.45 62.7832C298.253 63.1891 298.228 63.6591 298.45 64.065C298.746 64.6418 299.387 65.069 300.152 65.069C300.719 65.069 301.163 64.834 301.484 64.4709C301.385 64.834 301.262 65.1972 301.163 65.5604C300.892 66.479 300.67 67.419 300.497 68.359C300.423 68.829 300.325 69.299 300.275 69.769C300.251 70.004 300.201 70.239 300.177 70.4954C300.152 70.7731 300.152 71.0295 300.152 71.3072C300.152 71.7558 300.053 72.2258 300.029 72.6958C299.979 73.2085 299.979 73.6999 299.979 74.2126C299.979 74.5117 300.349 74.704 300.645 74.704C300.941 74.704 301.287 74.4903 301.311 74.2126C301.361 73.7213 301.385 73.2513 301.435 72.7599C301.459 72.3113 301.459 71.8413 301.533 71.3926C301.558 71.2645 301.607 71.1576 301.632 71.0508C301.657 70.9226 301.657 70.8158 301.681 70.6876C301.706 70.4526 301.731 70.1963 301.755 69.9613C301.805 69.4913 301.879 69.0213 301.953 68.5513C302.101 67.6113 302.224 66.6499 302.372 65.71C302.471 65.0904 302.594 64.4922 302.717 63.8941C302.89 64.3854 303.063 64.8554 303.211 65.3468C303.605 66.714 303.852 68.124 303.901 69.534C303.951 70.9013 303.704 72.2899 303.531 73.6572C303.482 73.9349 303.704 74.1913 304 74.2767C304.296 74.3408 304.666 74.2126 304.765 73.9563C305.11 73.0376 305.233 72.0763 305.307 71.1149C305.406 69.6195 305.258 68.124 304.888 66.6499C304.691 65.8809 304.444 65.1331 304.099 64.3854C304.321 64.4709 304.543 64.5563 304.789 64.6204C305.283 64.7272 305.801 64.7059 306.245 64.5136C306.442 64.4281 306.615 64.3213 306.763 64.1718C307.207 63.7018 307.256 62.9327 306.886 62.3772ZM304.345 62.6977C304.641 62.6763 304.913 62.7191 305.11 62.7832C305.159 62.8045 305.209 62.8259 305.258 62.8472C305.283 62.8686 305.307 62.8686 305.332 62.89C305.332 62.89 305.307 62.89 305.283 62.8686C305.307 62.89 305.357 62.9113 305.381 62.9327C305.332 62.9113 305.48 63.0609 305.455 63.0182C305.48 63.0395 305.48 63.0822 305.505 63.125C305.505 63.125 305.505 63.1463 305.505 63.1677C305.505 63.1677 305.505 63.2318 305.505 63.2531V63.2745C305.48 63.2745 305.455 63.2959 305.455 63.2959C305.455 63.2959 305.455 63.2959 305.48 63.2959C305.455 63.2959 305.406 63.2959 305.406 63.2959C305.381 63.2959 305.381 63.2959 305.381 63.2959H305.357C305.307 63.2959 305.233 63.2745 305.184 63.2745C305.159 63.2745 305.085 63.2531 305.085 63.2531C305.036 63.2318 304.987 63.2318 304.937 63.2104C304.839 63.1677 304.715 63.125 304.617 63.0822C304.419 62.9754 304.222 62.8686 304.025 62.7404C304.099 62.7191 304.222 62.6977 304.345 62.6977Z" fill="#FCB713"/>
<g opacity="0.5">
<g opacity="0.6">
<g opacity="0.6">
<path opacity="0.6" d="M153.875 137.639C153.899 138.878 153.949 140.138 153.973 141.377L154.047 145.116C154.047 145.201 153.973 145.265 153.899 145.265C153.801 145.265 153.727 145.201 153.727 145.137L153.801 141.399C153.825 140.138 153.85 138.899 153.875 137.639Z" fill="#231F20"/>
<path opacity="0.6" d="M154.146 152.593L154.195 156.332L154.22 160.07C154.22 160.22 154.072 160.369 153.899 160.369C153.727 160.369 153.554 160.241 153.554 160.092L153.579 156.353L153.628 152.614C153.628 152.486 153.751 152.379 153.899 152.379C154.023 152.379 154.146 152.486 154.146 152.593Z" fill="#231F20"/>
<path opacity="0.6" d="M154.245 167.548C154.245 170.048 154.245 172.526 154.245 175.025C154.245 175.196 154.072 175.346 153.875 175.346C153.677 175.346 153.505 175.196 153.505 175.025C153.505 172.526 153.505 170.048 153.505 167.548C153.505 167.377 153.677 167.228 153.875 167.228C154.072 167.249 154.245 167.377 154.245 167.548Z" fill="#231F20"/>
<path opacity="0.6" d="M154.22 182.502L154.195 186.241L154.146 189.979C154.146 190.108 154.023 190.193 153.875 190.193C153.727 190.193 153.628 190.086 153.628 189.979L153.579 186.241L153.554 182.502C153.554 182.353 153.702 182.224 153.875 182.203C154.072 182.224 154.22 182.353 154.22 182.502Z" fill="#231F20"/>
<path opacity="0.6" d="M154.047 197.456L153.973 201.024C153.949 202.22 153.924 203.395 153.899 204.592C153.875 203.395 153.825 202.22 153.825 201.024L153.751 197.456C153.751 197.371 153.825 197.328 153.899 197.328C153.973 197.328 154.047 197.392 154.047 197.456Z" fill="#231F20"/>
</g>
</g>
<g opacity="0.6">
<g opacity="0.6">
<path opacity="0.6" d="M173.707 137.639C173.806 138.878 173.88 140.138 173.929 141.377C173.954 141.997 173.979 142.616 174.003 143.257C174.028 143.877 174.053 144.496 174.053 145.137C174.053 145.287 173.905 145.415 173.732 145.415C173.559 145.415 173.411 145.287 173.411 145.137C173.411 144.518 173.436 143.898 173.461 143.257C173.485 142.638 173.51 142.018 173.535 141.377C173.559 140.138 173.609 138.899 173.707 137.639Z" fill="#231F20"/>
<path opacity="0.6" d="M174.053 152.593L174.028 154.473L173.979 156.332C173.929 157.571 173.88 158.831 173.806 160.07C173.806 160.113 173.757 160.134 173.707 160.134C173.658 160.134 173.633 160.113 173.633 160.07C173.559 158.831 173.51 157.571 173.461 156.332L173.411 154.473L173.387 152.593C173.387 152.422 173.535 152.294 173.732 152.294C173.905 152.294 174.053 152.422 174.053 152.593Z" fill="#231F20"/>
</g>
</g>
<g opacity="0.6">
<g opacity="0.6">
<path opacity="0.6" d="M191.27 122.685C191.344 123.924 191.369 125.185 191.418 126.424C191.468 127.663 191.492 128.923 191.517 130.162C191.517 130.29 191.418 130.376 191.27 130.376C191.122 130.376 191.024 130.29 191.024 130.162C191.048 128.923 191.073 127.663 191.122 126.424C191.172 125.163 191.196 123.924 191.27 122.685Z" fill="#231F20"/>
<path opacity="0.6" d="M191.616 137.639L191.64 141.378V145.116C191.64 145.287 191.468 145.437 191.27 145.437C191.073 145.437 190.9 145.308 190.9 145.116V141.378L190.925 137.639C190.925 137.468 191.073 137.34 191.27 137.34C191.468 137.34 191.616 137.468 191.616 137.639Z" fill="#231F20"/>
<path opacity="0.6" d="M191.542 152.594C191.517 153.833 191.492 155.094 191.468 156.333L191.344 160.072C191.344 160.093 191.32 160.114 191.295 160.114C191.27 160.114 191.246 160.093 191.246 160.072L191.122 156.333C191.098 155.094 191.048 153.833 191.048 152.594C191.048 152.466 191.172 152.359 191.32 152.359C191.418 152.359 191.517 152.445 191.542 152.594Z" fill="#231F20"/>
</g>
</g>
<g opacity="0.6">
<g opacity="0.6">
<path opacity="0.6" d="M211.67 122.684L211.744 126.423L211.794 130.161C211.794 130.225 211.744 130.268 211.67 130.268C211.596 130.268 211.547 130.225 211.547 130.161L211.596 126.423L211.67 122.684Z" fill="#231F20"/>
<path opacity="0.6" d="M211.892 137.639L211.966 145.116C211.966 145.265 211.843 145.372 211.67 145.372C211.498 145.372 211.374 145.265 211.374 145.116L211.448 137.639C211.448 137.532 211.547 137.446 211.67 137.446C211.794 137.446 211.892 137.532 211.892 137.639Z" fill="#231F20"/>
<path opacity="0.6" d="M212.016 152.594L212.04 160.071C212.04 160.242 211.892 160.37 211.695 160.37C211.498 160.37 211.35 160.242 211.35 160.071L211.374 152.594C211.374 152.444 211.522 152.316 211.695 152.316C211.868 152.294 212.016 152.423 212.016 152.594Z" fill="#231F20"/>
<path opacity="0.6" d="M212.04 167.547L212.016 175.024C212.016 175.195 211.868 175.323 211.67 175.323C211.473 175.323 211.325 175.195 211.325 175.024L211.3 167.547C211.3 167.376 211.473 167.227 211.67 167.227C211.868 167.227 212.04 167.376 212.04 167.547Z" fill="#231F20"/>
<path opacity="0.6" d="M211.991 182.501L211.966 186.24L211.942 189.979C211.942 190.107 211.818 190.192 211.695 190.192C211.547 190.192 211.448 190.085 211.448 189.979L211.424 186.24L211.399 182.501C211.399 182.352 211.547 182.224 211.72 182.224C211.843 182.224 211.991 182.352 211.991 182.501Z" fill="#231F20"/>
<path opacity="0.6" d="M211.843 197.457L211.72 204.934C211.72 204.955 211.695 204.977 211.67 204.977C211.646 204.977 211.621 204.955 211.621 204.934L211.498 197.457C211.498 197.371 211.572 197.307 211.67 197.307C211.769 197.307 211.843 197.371 211.843 197.457Z" fill="#231F20"/>
</g>
</g>
<g opacity="0.6">
<g opacity="0.6">
<path opacity="0.6" d="M228.148 109.098C228.247 110.337 228.296 111.597 228.345 112.836C228.395 114.075 228.419 115.336 228.469 116.575C228.469 116.724 228.345 116.853 228.173 116.853C228 116.853 227.852 116.746 227.852 116.596C227.852 116.596 227.852 116.596 227.852 116.575C227.877 115.336 227.926 114.075 227.975 112.836C228 111.576 228.049 110.337 228.148 109.098Z" fill="#231F20"/>
<path opacity="0.6" d="M228.493 124.052C228.493 124.671 228.493 125.291 228.469 125.932L228.444 127.812L228.419 129.649C228.395 130.268 228.395 130.888 228.37 131.529C228.37 131.636 228.271 131.721 228.148 131.7C228.025 131.7 227.951 131.614 227.951 131.529C227.926 130.909 227.901 130.29 227.901 129.649L227.852 127.769L227.827 125.889C227.827 125.269 227.827 124.65 227.803 124.009C227.803 123.838 227.951 123.688 228.173 123.688C228.395 123.688 228.493 123.859 228.493 124.052C228.493 124.03 228.493 124.052 228.493 124.052Z" fill="#231F20"/>
</g>
</g>
</g>
<path opacity="0.3" d="M153.875 137.661C155.06 137.661 156.021 136.828 156.021 135.802C156.021 134.775 155.06 133.943 153.875 133.943C152.689 133.943 151.729 134.775 151.729 135.802C151.729 136.828 152.689 137.661 153.875 137.661Z" fill="#6457A4"/>
<path opacity="0.3" d="M173.707 137.661C174.893 137.661 175.853 136.828 175.853 135.802C175.853 134.775 174.893 133.943 173.707 133.943C172.522 133.943 171.561 134.775 171.561 135.802C171.561 136.828 172.522 137.661 173.707 137.661Z" fill="#6457A4"/>
<path opacity="0.3" d="M191.912 123.689C193.097 123.689 194.058 122.857 194.058 121.83C194.058 120.804 193.097 119.972 191.912 119.972C190.727 119.972 189.766 120.804 189.766 121.83C189.766 122.857 190.727 123.689 191.912 123.689Z" fill="#6457A4"/>
<path opacity="0.3" d="M211.744 123.689C212.93 123.689 213.89 122.857 213.89 121.83C213.89 120.804 212.93 119.972 211.744 119.972C210.559 119.972 209.598 120.804 209.598 121.83C209.598 122.857 210.559 123.689 211.744 123.689Z" fill="#6457A4"/>
<path opacity="0.3" d="M227.704 110.679C228.889 110.679 229.85 109.847 229.85 108.82C229.85 107.794 228.889 106.961 227.704 106.961C226.519 106.961 225.558 107.794 225.558 108.82C225.558 109.847 226.519 110.679 227.704 110.679Z" fill="#6457A4"/>
<path opacity="0.4" d="M243.491 102.752L227.704 108.82L211.744 121.83H191.912L173.707 135.802H153.875" stroke="#6457A4" stroke-width="5" stroke-miterlimit="10" stroke-linecap="round" stroke-linejoin="round"/>
<path opacity="0.4" d="M240.309 102.752H243.491L241.37 104.59" stroke="#6457A4" stroke-width="5" stroke-miterlimit="10" stroke-linecap="round" stroke-linejoin="round"/>
</g>
</g>
<defs>
<clipPath id="clip0">
<rect width="1440" height="3267" fill="white" transform="translate(-1011 -429)"/>
</clipPath>
</defs>
</svg>
