<svg width="340" height="226" viewBox="0 0 340 226" fill="none" xmlns="http://www.w3.org/2000/svg">
<rect width="340" height="226" fill="#E5E5E5"/>
<g clip-path="url(#clip0)">
<rect width="1440" height="3267" transform="translate(-91 -429)" fill="white"/>
<path d="M-90 -349H1350V226H-90V-349Z" fill="#2F70FE"/>
<path d="M175.045 184.925C155.33 187.011 19.3281 198.389 2.38422 203.61C-14.5597 208.831 87.0453 206.795 100.052 206.058C113.059 205.322 123.202 208.222 108.334 212.047C93.4655 215.873 166.764 213.277 207.225 210.216C247.686 207.155 208.901 203.722 232.693 201.203C256.514 198.658 339.523 192.131 319.582 188.982C299.641 185.832 348.206 181.638 336.786 179.306C325.397 176.971 210.305 181.168 175.045 184.925Z" fill="#00FF85" fill-opacity="0.08"/>
<g style="mix-blend-mode:luminosity" clip-path="url(#clip1)">
<path d="M107.02 206.726C107.02 206.726 103.067 218.317 103.532 218.85C103.997 219.427 107.951 219.605 108.299 219.605C108.609 219.605 116.864 219.605 116.864 219.605C116.864 219.605 120.042 211.167 119.771 210.901C119.5 210.678 112.64 205.705 112.64 205.705L107.02 206.726Z" fill="#1631A4"/>
<path d="M115.43 210.856C115.43 210.856 109.191 211.833 103.804 207.925C103.804 207.925 111.942 154.145 112.369 151.17C112.795 148.194 111.942 110.446 111.942 110.446L124.383 106.094C124.383 106.094 127.057 164.093 126.902 163.56C126.786 163.072 115.43 210.856 115.43 210.856Z" fill="#1631A4"/>
<path d="M89.4641 137.847C89.4253 137.669 87.41 120.039 100.897 117.374C104.734 116.619 108.028 117.374 110.78 119.595C115.857 123.68 117.019 131.319 117.058 131.674L114.772 132.118C114.694 131.541 112.485 117.774 101.246 119.994C89.9679 122.215 91.6344 136.87 91.7119 137.492L89.4641 137.847Z" fill="#01008A"/>
<path d="M128.685 13.2785C128.685 13.2785 127.639 21.7607 125.468 26.8678C123.298 31.9749 122.213 31.4864 121.67 31.4864C121.128 31.4864 110.625 24.5141 110.625 24.5141L107.834 13.5894L115.973 7.2832L122.794 9.05958L128.685 13.2785Z" fill="white"/>
<path d="M120.43 30.8203C120.43 30.8203 117.988 30.9535 117.291 35.6165C116.632 40.2795 116.632 40.2795 116.632 40.2795L107.098 36.8156L111.71 23.626L120.43 30.8203Z" fill="white"/>
<path d="M114.772 17.8084C114.772 17.8084 113.803 13.8559 111.555 15.1882C109.307 16.5205 111.981 22.3826 113.531 21.894L111.245 24.9583L110.276 27.7117C110.276 27.7117 103.106 21.0059 103.765 13.7227C104.424 6.48395 108.222 6.61717 108.222 6.61717C108.222 6.61717 107.408 1.86536 112.679 0.222204C117.95 -1.42095 132.754 7.683 136.475 5.3293C136.475 5.3293 131.979 20.0733 125.197 15.3214C118.415 10.5696 114.772 17.8084 114.772 17.8084Z" fill="#231F20"/>
<path d="M107.098 36.8157L107.408 32.8188L119.073 36.8157L119.732 42.8998L107.098 36.8157Z" fill="#E5E5E6"/>
<path d="M139.575 81.4027C139.575 81.4027 143.567 80.1149 144.962 79.2711C146.358 78.3829 147.481 77.3171 148.14 77.8056C148.799 78.2941 146.203 80.781 146.009 81.003C145.815 81.2251 151.473 81.2695 152.248 81.4027C153.024 81.5804 155.543 82.2909 155.543 82.8238C155.543 83.3568 152.403 89.7517 151.667 90.1958C150.892 90.6399 143.063 90.4179 142.521 89.9294C141.978 89.4853 137.715 87.9754 137.715 87.9754C137.715 87.9754 139.343 81.4916 139.575 81.4027Z" fill="white"/>
<path d="M140.273 80.7809C140.273 80.7809 128.801 77.7166 128.142 74.1639C127.561 71.0108 124.383 77.2725 124.383 77.2725L125.119 85.7992C125.119 85.7992 131.437 89.2631 139.808 89.2631L141.319 86.0212C141.319 86.0212 142.056 81.3582 140.273 80.7809Z" fill="#CBCBCB"/>
<path d="M125.236 213.077C125.236 213.077 127.057 217.784 129.809 220.271C132.561 222.758 134.498 221.382 135.971 225.201C135.971 225.201 114.578 225.423 113.919 225.201C113.221 224.979 117.64 213.921 118.453 213.299C119.267 212.766 125.236 213.077 125.236 213.077Z" fill="#1631A4"/>
<path d="M113.841 212.988C113.841 212.988 120.662 216.452 126.941 215.475C126.941 215.475 136.862 153.568 136.669 151.259C136.475 148.95 128.414 89.2632 128.414 89.2632L106.71 95.1697C106.71 95.1697 109.501 118.085 111.322 118.44C113.144 118.796 114.19 120.128 114.19 120.128C114.19 120.128 121.438 154.812 121.166 157.876C120.895 160.94 113.841 212.988 113.841 212.988Z" fill="#01008A"/>
<path d="M130.313 89.4407C128.995 91.8388 117.95 94.5922 111.4 95.3028C108.958 95.5692 107.175 95.5692 106.71 95.1251C104.966 93.5708 105.354 88.6413 105.083 87.7532C104.811 86.865 105.083 87.087 105.276 86.4209C105.47 85.7547 105.664 84.4224 105.083 83.5787C104.773 83.1346 104.463 72.7427 104.23 62.4397C103.998 52.4032 103.881 42.4554 103.92 41.7893C104.308 37.8368 107.098 36.8154 107.098 36.8154C107.098 36.8154 117.174 38.9027 119.732 42.8995C132.25 62.3953 132.134 86.1544 130.313 89.4407Z" fill="#6DED02"/>
<path d="M96.0526 111.423C96.0526 111.423 95.2774 123.281 96.0526 124.125C96.8277 124.968 97.9904 123.814 98.843 124.125C99.6956 124.435 100.626 124.391 101.013 123.947C101.401 123.547 101.672 123.148 102.602 123.192C103.532 123.236 104.385 123.503 104.695 122.926C105.005 122.348 105.393 121.549 106.09 121.416C106.827 121.238 107.447 121.238 107.486 120.35C107.524 119.462 105.858 115.243 105.858 115.243L105.974 117.641C105.974 117.641 107.33 117.463 107.757 116.175C108.144 114.887 102.098 108.048 102.098 108.048L96.0526 111.423Z" fill="white"/>
<path d="M95.9363 112.933C95.9363 112.933 101.672 109.647 103.377 109.647C103.377 109.647 103.61 106.45 102.253 106.094L94.7736 109.514C94.7736 109.514 94.7736 112.045 95.9363 112.933Z" fill="#FFD648"/>
<path d="M114.888 57.1109C111.71 63.9055 105.974 77.4504 108.183 80.0706C110.392 82.6907 113.764 81.4917 111.361 82.7795C108.958 84.0674 106.749 84.6892 108.571 85.7106C110.392 86.6876 111.826 86.1547 110.005 88.1531C108.338 89.9739 108.803 94.3704 111.439 95.3474C108.997 95.6139 107.214 95.6139 106.749 95.1698C105.005 93.6155 105.393 88.686 105.121 87.7978C104.85 86.9096 105.121 87.1317 105.315 86.4655C105.509 85.7994 105.703 84.4671 105.121 83.6233C104.811 83.1792 104.501 72.7874 104.269 62.4844L115.818 45.4312C115.818 45.4312 118.027 50.2718 114.888 57.1109Z" fill="#09D191"/>
<path d="M115.353 52.2701C114.307 55.2899 112.95 58.3986 111.555 61.4184C111.555 61.4184 111.555 61.4184 111.516 61.4628C107.602 69.8118 103.184 77.7167 103.106 82.5573C102.99 89.2188 103.184 104.762 102.253 106.05C101.323 107.338 94.7736 109.47 94.7736 109.47C94.7736 109.47 89.6191 78.2052 90.1229 75.8515C90.588 73.4978 100.742 47.5182 103.959 41.7894C107.175 36.105 119.306 40.8568 115.353 52.2701Z" fill="white"/>
<path d="M123.259 159.164L90.5492 166.491C88.9603 166.847 87.41 165.648 87.1 163.871L82.9531 139.979C82.6431 138.114 83.6895 136.337 85.3172 136.026L119.112 129.01C120.74 128.654 122.29 129.942 122.523 131.808L125.584 155.345C125.817 157.121 124.809 158.808 123.259 159.164Z" fill="white"/>
<path d="M122.523 131.808L121.709 145.219L88.6115 152.591L82.9531 139.979C82.6431 138.114 83.6895 136.337 85.3172 136.026L119.112 129.01C120.74 128.654 122.29 129.942 122.523 131.808Z" fill="#E5E5E6"/>
<path d="M90.588 149.616L93.1846 148.95L94.7736 157.299L92.0995 157.876L90.588 149.616Z" fill="#1631A4"/>
<path d="M115.934 143.931L118.531 143.265L120.12 151.614L117.407 152.191L115.934 143.931Z" fill="#1631A4"/>
<path d="M141.474 80.7808C141.474 80.7808 142.753 84.2891 141.087 89.263H139.847C139.847 89.263 141.746 83.7562 140.312 80.7808H141.474Z" fill="#FFD648"/>
<path d="M111.555 61.4629C107.641 69.8119 103.222 77.7168 103.145 82.5574C103.029 89.2188 103.222 104.762 102.292 106.05C102.292 106.05 100.587 83.7121 99.1143 81.9801C97.6416 80.2925 97.2928 79.2267 100.006 78.3829C102.641 77.628 110.974 62.4843 111.555 61.4629Z" fill="#E5E5E6"/>
<path d="M190.5 204.373C190.5 204.373 190.423 209.036 184.648 212.944C178.874 216.896 177.633 217.118 177.44 219.649L200.344 218.406L206.623 212.633C206.623 212.633 205.964 206.859 205.654 206.637C205.344 206.415 193.097 204.905 193.097 204.905L190.5 204.373Z" fill="#1631A4"/>
<path d="M200.654 99.6551V209.524C200.654 209.524 197.205 210.057 193.485 209.524C191.353 209.213 189.144 208.503 187.477 207.171C187.477 207.171 184.803 156.322 184.997 153.79C185.191 151.259 191.314 98.9001 191.624 98.8113C191.934 98.6781 200.654 99.6551 200.654 99.6551Z" fill="#1631A4"/>
<path d="M200.654 169.689V209.524C200.654 209.524 197.205 210.057 193.485 209.524C195.577 209.48 196.197 207.748 196.197 207.748C196.197 207.748 190.229 159.919 189.531 157.076C188.873 154.234 193.368 111.557 193.368 111.557L200.654 169.689Z" fill="#002F7A"/>
<path d="M159.245 85.1413L159.245 85.1414L159.255 85.1423C159.428 85.1584 159.61 85.1757 159.801 85.1936C160.657 85.2744 161.667 85.3697 162.571 85.4426C163.122 85.4872 163.639 85.5238 164.058 85.5436C164.459 85.5626 164.821 85.5693 165.031 85.5391L165.047 85.5369L165.062 85.5337C165.646 85.4121 166.215 84.9578 166.44 84.3741C166.557 84.0673 166.584 83.711 166.445 83.357C166.308 83.0062 166.031 82.712 165.641 82.482C165.147 82.1905 164.986 81.759 164.999 81.4893C165.006 81.3531 165.053 81.2934 165.073 81.2761L165.073 81.2758C165.082 81.2688 165.125 81.2315 165.267 81.2664C165.767 81.3892 167.171 81.9269 168.496 82.4554C169.148 82.7156 169.766 82.9675 170.222 83.1544C170.442 83.2446 170.623 83.3197 170.753 83.3731C170.755 83.3801 170.757 83.3873 170.759 83.3945C170.806 83.5505 170.871 83.7753 170.944 84.0485C171.091 84.5959 171.27 85.3319 171.4 86.094C171.531 86.8619 171.607 87.6292 171.562 88.2487C171.514 88.9074 171.344 89.2193 171.171 89.3257L171.171 89.3256L171.166 89.3286C171.166 89.3285 171.165 89.3291 171.163 89.3305L171.152 89.3362C171.143 89.3411 171.131 89.3474 171.115 89.3551C171.083 89.3706 171.042 89.3896 170.989 89.412C170.884 89.4569 170.746 89.5114 170.578 89.5742C170.242 89.6995 169.798 89.8531 169.279 90.0221C168.242 90.36 166.917 90.7555 165.58 91.1053C164.24 91.4559 162.902 91.7573 161.835 91.9109C161.299 91.9879 160.849 92.0252 160.508 92.0173C160.337 92.0134 160.208 91.9984 160.116 91.9774C160.043 91.9608 160.014 91.9448 160.009 91.9421C159.918 91.8595 159.776 91.6324 159.613 91.2045C159.456 90.7909 159.307 90.2651 159.168 89.6809C158.893 88.516 158.673 87.1698 158.518 86.13C158.434 85.4678 158.886 85.1001 159.245 85.1413Z" fill="white" stroke="black"/>
<path d="M172.324 82.0245C172.324 82.0245 185.423 77.4503 185.85 76.7841C186.276 76.118 196.197 45.2534 196.43 44.7649C196.663 44.2764 198.678 46.0972 198.678 46.0972L193.058 83.1347L173.487 89.2632L172.324 82.0245Z" fill="#CBCBCB"/>
<path d="M170.076 82.5573C170.076 82.5573 171.355 84.8222 171.394 89.7517L173.487 89.2632C173.487 89.2632 173.603 83.0014 172.324 82.0244L170.076 82.5573Z" fill="#1631A4"/>
<path d="M202.321 210.723C202.321 210.723 201.352 218.406 196.275 220.626C191.198 222.847 190.5 225.689 190.5 225.689C190.5 225.689 213.638 226.355 214.025 225.689C214.413 225.023 209.142 209.613 208.832 209.524C208.561 209.435 202.321 210.723 202.321 210.723Z" fill="#1631A4"/>
<path d="M210.77 211.611C210.77 211.611 203.174 212.81 197.825 211.611C197.825 211.611 190.423 159.475 190.617 154.634C190.81 149.793 193.407 111.512 193.407 111.512C193.407 111.512 191.663 110.402 191.857 106.805C192.051 103.163 193.485 95.5693 193.485 95.5693L214.878 104.274C214.878 104.274 213.056 122.215 209.413 122.304C209.413 122.304 202.708 153.302 202.747 154.945C202.786 156.632 210.77 211.611 210.77 211.611Z" fill="#01008A"/>
<path d="M219 66.7785L219 66.7799C218.807 67.7141 218.172 70.1402 217.384 73.15C216.835 75.2443 216.213 77.6213 215.614 79.9749C214.887 82.8321 214.197 85.6473 213.725 87.8533C213.489 88.9554 213.306 89.9136 213.2 90.6524C213.147 91.0212 213.112 91.3446 213.101 91.6085C213.09 91.8497 213.094 92.1135 213.166 92.3166C213.304 92.7057 213.572 93.1729 213.888 93.723C215.074 95.787 216.931 99.0186 215.07 103.678C214.881 103.65 214.628 103.613 214.318 103.567C213.594 103.459 212.56 103.304 211.319 103.115C208.837 102.736 205.527 102.22 202.214 101.671C198.899 101.122 195.587 100.54 193.099 100.03C191.853 99.7744 190.824 99.5389 190.107 99.3364C189.746 99.2344 189.481 99.1454 189.312 99.072C189.312 99.0719 189.311 99.0719 189.311 99.0718C189.314 99.0334 189.318 98.9908 189.322 98.9441C189.341 98.7279 189.37 98.4278 189.409 98.0518C189.486 97.3001 189.602 96.2483 189.757 94.9629L189.757 94.9629L189.757 94.9574C189.96 93.1003 190.251 90.7357 190.58 88.0656C190.627 87.6772 190.676 87.2824 190.725 86.8817L190.725 86.8811C191.655 79.2448 192.924 69.3896 194.11 61.1175C194.703 56.9809 195.276 53.2437 195.774 50.3788C196.023 48.946 196.253 47.7358 196.457 46.8048C196.666 45.8557 196.838 45.2442 196.962 44.9733L196.963 44.9706C197.795 43.1279 198.8 42.2464 199.558 41.8198C199.94 41.6047 200.268 41.5001 200.493 41.4493C200.605 41.4238 200.692 41.4118 200.747 41.4061C200.775 41.4033 200.794 41.4021 200.805 41.4016L200.814 41.4012L200.814 41.4012L200.814 41.4012L200.815 41.4012L200.809 40.9012C200.815 41.4012 200.815 41.4012 200.815 41.4012L200.816 41.4012L200.818 41.4012L200.826 41.4011L200.858 41.4007L200.985 41.3997C201.097 41.3988 201.261 41.3978 201.471 41.3971C201.891 41.3958 202.493 41.396 203.222 41.4019C204.68 41.4137 206.642 41.4483 208.664 41.5395C210.688 41.6308 212.76 41.7785 214.441 42.0146C215.283 42.1328 216.013 42.2715 216.586 42.4324C217.179 42.5988 217.524 42.769 217.673 42.9069C217.721 42.9546 217.801 43.0668 217.895 43.2831C217.987 43.494 218.079 43.7703 218.169 44.1108C218.348 44.7914 218.507 45.686 218.645 46.7368C218.921 48.8359 219.107 51.5085 219.213 54.2325C219.319 56.9547 219.346 59.718 219.305 61.9951C219.263 64.2917 219.154 66.0446 219 66.7785ZM189.173 99.0014C189.173 99.0014 189.173 99.0016 189.174 99.0022C189.174 99.0022 189.174 99.0021 189.174 99.0021C189.173 99.0016 189.173 99.0014 189.173 99.0014ZM196.508 44.7648L196.508 44.7649L196.508 44.7648Z" fill="white" stroke="black"/>
<path d="M212.087 37.3484L210.77 42.5443L204.801 44.1875L201.778 42.8996L201.042 42.5887C201.042 42.5887 201.003 39.0804 201.003 37.1708C201.003 35.2168 198.949 35.0835 198.949 35.0835L204.22 30.1985L204.491 29.9764L210.149 29.7544L212.087 37.3484Z" fill="white"/>
<path d="M202.05 38.3257C202.088 40.4573 201.933 41.9228 201.817 42.8999L201.081 42.589C201.081 42.589 201.042 39.0806 201.042 37.171C201.042 35.217 198.988 35.0838 198.988 35.0838L204.259 30.1987C205.034 31.2646 206.119 32.8633 206.119 32.8633C206.119 32.8633 202.011 34.24 202.05 38.3257Z" fill="#515BD4"/>
<path d="M201.74 42.189L201.119 42.5887L202.05 43.6989L201.74 42.189Z" fill="#E5E5E6"/>
<path d="M212.087 37.3486L201.74 42.1893L199.918 50.6715L212.824 41.2567L212.087 37.3486Z" fill="#CBCBCB"/>
<path d="M201.119 42.5885L201.081 39.3022L198.717 42.0112L201.119 42.5885Z" fill="#E5E5E5"/>
<path d="M162.003 88.7194L162.015 88.6942L162.023 88.6687L162.023 88.6685L162.023 88.6685L162.024 88.6682L162.024 88.6679L162.025 88.6647L162.032 88.6449C162.039 88.6264 162.049 88.5977 162.064 88.5603C162.094 88.4855 162.14 88.3768 162.202 88.2467C162.328 87.9847 162.517 87.6459 162.77 87.3254C163.282 86.6794 163.983 86.1871 164.94 86.3785C165.906 86.5719 167.077 86.9678 168.198 87.3473C168.447 87.4315 168.694 87.5149 168.935 87.5951C169.586 87.8113 170.204 88.0055 170.704 88.1132C170.953 88.1668 171.195 88.204 171.409 88.2061C171.602 88.2079 171.874 88.1835 172.091 88.013C172.193 87.9325 172.297 87.8093 172.338 87.6361C172.378 87.4636 172.34 87.3102 172.289 87.1997C172.199 87.0052 172.03 86.8553 171.904 86.7556C171.684 86.5809 171.367 86.3867 171.062 86.1994C170.993 86.1571 170.924 86.1152 170.858 86.0739C170.47 85.8334 170.115 85.5994 169.874 85.3712C169.756 85.2593 169.688 85.1696 169.654 85.1038C169.752 85.0859 169.905 85.0785 170.125 85.0936C170.641 85.1293 171.346 85.2751 172.135 85.4641C172.471 85.5446 172.83 85.6351 173.189 85.7257C173.64 85.8394 174.092 85.9532 174.499 86.0478C175.232 86.2179 175.945 86.3567 176.445 86.3437C176.966 86.3301 177.548 86.2906 178.093 86.2536C178.439 86.2301 178.771 86.2076 179.063 86.1934C179.456 86.1741 179.787 86.1686 180.037 86.1864C180.123 86.1926 180.192 86.201 180.245 86.2106C180.249 86.2472 180.254 86.2903 180.257 86.3405C180.275 86.5706 180.281 86.8937 180.278 87.2867C180.27 88.0697 180.225 89.0871 180.167 90.1008C180.109 91.1129 180.039 92.1146 179.983 92.8638C179.956 93.2382 179.931 93.5493 179.914 93.7667L179.91 93.817L179.849 93.845C179.641 93.9408 179.343 94.0777 178.981 94.2421C178.257 94.5711 177.282 95.01 176.275 95.45C175.267 95.8904 174.231 96.3301 173.385 96.6618C172.961 96.8278 172.59 96.9646 172.296 97.0605C171.981 97.1634 171.812 97.1994 171.76 97.2016H171.76C171.76 97.2016 171.756 97.2018 171.747 97.2014C171.738 97.2011 171.726 97.2003 171.711 97.1988C171.679 97.1957 171.639 97.1902 171.588 97.1815C171.486 97.1642 171.356 97.1363 171.199 97.0977C170.885 97.0206 170.485 96.9059 170.026 96.763C169.109 96.4776 167.976 96.0865 166.868 95.6777C165.758 95.2688 164.68 94.8448 163.87 94.4944C163.464 94.3187 163.134 94.165 162.903 94.0434C162.804 93.9913 162.732 93.9493 162.683 93.9175C162.669 93.8699 162.653 93.8082 162.635 93.7326C162.597 93.5723 162.552 93.3615 162.504 93.1144C162.407 92.6209 162.298 91.9945 162.204 91.361C162.111 90.726 162.034 90.0924 162 89.5815C161.982 89.3253 161.976 89.1095 161.982 88.9442C161.987 88.81 162 88.7444 162.004 88.7238C162.005 88.7155 162.005 88.7145 162.003 88.7194Z" fill="white" stroke="black"/>
<path d="M207.94 91.1727C205.77 90.5953 194.337 93.5264 189.26 94.903C189.493 92.7714 189.842 89.9736 190.229 86.8205L211.661 62.04L218.598 59.2866C218.598 59.2866 211.661 82.0687 209.336 84.0227C207.049 85.9767 207.979 87.9752 209.336 88.1972C210.653 88.4637 210.77 91.9276 207.94 91.1727Z" fill="#E5E5E5"/>
<path d="M184.268 93.0699L184.406 84.9235L184.664 84.8057C185.01 84.6469 185.504 84.4197 186.098 84.1458C187.286 83.598 188.873 82.8634 190.466 82.1161C192.058 81.3691 193.659 80.6083 194.875 80.0087C195.482 79.7092 195.998 79.4478 196.37 79.2473C196.555 79.1476 196.712 79.0593 196.828 78.9868C196.886 78.951 196.942 78.9138 196.99 78.877C197.014 78.8588 197.043 78.8351 197.072 78.8069C197.093 78.7858 197.149 78.73 197.19 78.6452C197.211 78.6021 197.235 78.5345 197.251 78.4883L197.251 78.488C197.273 78.4266 197.302 78.3437 197.337 78.2416C197.407 78.0371 197.503 77.7495 197.623 77.3908C197.862 76.6731 198.194 75.666 198.592 74.4583C198.778 73.8936 198.978 73.285 199.19 72.6414C199.885 70.5314 200.703 68.0455 201.546 65.5001C203.749 58.8421 206.105 51.8177 206.852 50.0191C207.545 48.3496 209.026 47.1102 210.67 46.4315C212.326 45.7474 214.043 45.6743 215.172 46.1956C215.684 46.4323 216.232 47.0003 216.743 47.8837C217.247 48.7547 217.684 49.8779 218.002 51.1379C218.641 53.6637 218.786 56.6608 218.115 59.1569C217.782 60.3884 216.745 62.6912 215.338 65.5058C213.938 68.3043 212.195 71.5634 210.477 74.6831C208.759 77.8022 207.068 80.7786 205.772 83.0105C205.125 84.1267 204.577 85.0554 204.174 85.7221C203.973 86.0558 203.809 86.3218 203.688 86.5121C203.628 86.6075 203.58 86.6812 203.544 86.7338C203.532 86.751 203.523 86.764 203.516 86.7736C203.514 86.7751 203.511 86.7768 203.508 86.7785C203.469 86.8006 203.41 86.8305 203.327 86.8686C203.163 86.9444 202.931 87.0399 202.638 87.1532C202.052 87.3791 201.245 87.6656 200.289 87.9918C198.378 88.6436 195.888 89.4472 193.416 90.2296C190.945 91.0118 188.493 91.7719 186.66 92.3365C185.743 92.6188 184.981 92.8522 184.448 93.015C184.385 93.0343 184.325 93.0526 184.268 93.0699Z" fill="white" stroke="black"/>
<path d="M180.036 85.7103C180.036 85.7103 180.463 89.7072 179.532 94.5478L183.951 93.6596C183.951 93.6596 185.733 87.7976 183.912 84.6001L180.036 85.7103Z" fill="#1631A4"/>
<path d="M158.914 64.3938C158.876 64.1717 158.837 63.9941 158.798 63.8608C158.837 64.0385 158.876 64.1717 158.914 64.3938Z" fill="#F9A826"/>
<path d="M195.5 17.0532C195.5 17.0532 195.345 31.4863 195.5 33.3959C195.655 35.3056 196.779 35.6164 196.973 35.6608C197.205 35.7052 210.576 31.4419 210.576 31.4419L214.568 23.6259L208.832 13.6781L198.988 10.7915C199.027 10.7915 195.5 14.4775 195.5 17.0532Z" fill="white"/>
<path d="M196.391 15.0107C196.391 15.0107 198.019 13.5452 198.717 15.0107C199.414 16.4762 199.84 20.1622 203.6 20.251C207.359 20.3398 207.32 23.937 207.32 23.937C207.32 23.937 204.801 9.28185 204.53 9.0598C204.297 8.83775 196.197 7.68311 196.197 7.68311L196.391 15.0107Z" fill="#CBCBCB"/>
<path d="M207.282 23.9367C207.282 23.9367 208.793 21.2721 210.305 22.4267C211.816 23.5814 209.878 28.8661 206.894 29.7099C206.894 29.7099 207.902 35.4831 208.095 35.3943C208.289 35.3055 213.134 33.6179 213.134 33.6179C213.134 33.6179 219.8 25.1357 218.404 17.9858C217.009 10.8359 202.708 2.75333 199.492 3.28624C196.275 3.81916 195.694 7.94924 195.694 7.94924C195.694 7.94924 192.903 7.86042 192.438 9.41476C191.973 11.0135 190.307 19.4957 195.5 21.1833C195.5 21.1833 195.422 15.9874 196.391 14.9215C196.391 14.9215 197.166 12.8787 198.174 13.3672C199.182 13.8557 199.22 20.0286 203.6 20.1619C207.979 20.3839 207.282 23.9367 207.282 23.9367Z" fill="#231F20"/>
<path d="M209.994 23.9368C209.994 23.9368 208.328 22.6045 207.63 26.7346C207.592 26.7346 208.522 23.8924 209.994 23.9368Z" fill="#515BD4"/>
</g>
</g>
<defs>
<clipPath id="clip0">
<rect width="1440" height="3267" fill="white" transform="translate(-91 -429)"/>
</clipPath>
<clipPath id="clip1">
<rect width="136.963" height="226" fill="white" transform="translate(82.8756)"/>
</clipPath>
</defs>
</svg>
