<svg width="101" height="100" viewBox="0 0 101 100" fill="none" xmlns="http://www.w3.org/2000/svg">
<rect width="101" height="100" fill="#E5E5E5"/>
<g clip-path="url(#clip0)">
<rect width="375" height="4594" transform="translate(-137 -1253)" fill="white"/>
<rect opacity="0.6" x="-137" y="-598" width="375" height="814" fill="#00FF85" fill-opacity="0.08"/>
<g opacity="0.1">
<circle cx="50.5" cy="50" r="50" fill="#2F70FE"/>
<circle cx="50.5" cy="50" r="50" stroke="#2F70FE"/>
</g>
<path d="M31.8334 69.167H70.1667" stroke="black" stroke-miterlimit="10" stroke-linecap="round" stroke-linejoin="round"/>
<path d="M38.5 60.8335H33.5V69.1668H38.5V60.8335Z" stroke="black" stroke-miterlimit="10" stroke-linecap="round" stroke-linejoin="round"/>
<path d="M48.5 52.5H43.5V69.1667H48.5V52.5Z" stroke="black" stroke-miterlimit="10" stroke-linecap="round" stroke-linejoin="round"/>
<path d="M58.5 55.8335H53.5V69.1668H58.5V55.8335Z" stroke="black" stroke-miterlimit="10" stroke-linecap="round" stroke-linejoin="round"/>
<path d="M68.5 44.167H63.5V69.167H68.5V44.167Z" stroke="black" stroke-miterlimit="10" stroke-linecap="round" stroke-linejoin="round"/>
<path d="M36 50.8333C36.9205 50.8333 37.6667 50.0871 37.6667 49.1667C37.6667 48.2462 36.9205 47.5 36 47.5C35.0796 47.5 34.3334 48.2462 34.3334 49.1667C34.3334 50.0871 35.0796 50.8333 36 50.8333Z" stroke="black" stroke-miterlimit="10" stroke-linecap="round" stroke-linejoin="round"/>
<path d="M46 42.5003C46.9205 42.5003 47.6667 41.7541 47.6667 40.8337C47.6667 39.9132 46.9205 39.167 46 39.167C45.0796 39.167 44.3334 39.9132 44.3334 40.8337C44.3334 41.7541 45.0796 42.5003 46 42.5003Z" stroke="black" stroke-miterlimit="10" stroke-linecap="round" stroke-linejoin="round"/>
<path d="M56 45.8333C56.9205 45.8333 57.6667 45.0871 57.6667 44.1667C57.6667 43.2462 56.9205 42.5 56 42.5C55.0796 42.5 54.3334 43.2462 54.3334 44.1667C54.3334 45.0871 55.0796 45.8333 56 45.8333Z" stroke="black" stroke-miterlimit="10" stroke-linecap="round" stroke-linejoin="round"/>
<path d="M66 34.1668C66.9205 34.1668 67.6667 33.4206 67.6667 32.5002C67.6667 31.5797 66.9205 30.8335 66 30.8335C65.0796 30.8335 64.3334 31.5797 64.3334 32.5002C64.3334 33.4206 65.0796 34.1668 66 34.1668Z" stroke="black" stroke-miterlimit="10" stroke-linecap="round" stroke-linejoin="round"/>
<path d="M37.3334 48.1668L44.6667 41.8335" stroke="black" stroke-miterlimit="10" stroke-linecap="round" stroke-linejoin="round"/>
<path d="M47.5 41.3335L54.5 43.6668" stroke="black" stroke-miterlimit="10" stroke-linejoin="round"/>
<path d="M64.8334 33.8335L57.1667 42.8335" stroke="black" stroke-miterlimit="10" stroke-linecap="round" stroke-linejoin="round"/>
</g>
<defs>
<clipPath id="clip0">
<rect width="375" height="4594" fill="white" transform="translate(-137 -1253)"/>
</clipPath>
</defs>
</svg>
