<svg width="223" height="260" viewBox="0 0 223 260" fill="none" xmlns="http://www.w3.org/2000/svg">
<rect width="223" height="260" fill="#E5E5E5"/>
<g clip-path="url(#clip0)">
<rect width="375" height="4594" transform="translate(-79 -2760)" fill="white"/>
<path d="M-79 -23H296V641H-79V-23Z" fill="white"/>
<path d="M70 37H153V236H70V37Z" fill="#82A9FF" fill-opacity="0.21"/>
<g clip-path="url(#clip1)">
<path d="M133.506 79.0001C147.586 79.0001 159 67.4901 159 53.2917C159 39.0933 147.586 27.5833 133.506 27.5833C119.426 27.5833 108.011 39.0933 108.011 53.2917C108.011 67.4901 119.426 79.0001 133.506 79.0001Z" fill="#F3F2FF"/>
<path d="M133.506 53.2915L135.64 78.9077C134.939 78.9692 134.207 78.9999 133.506 78.9999C119.417 78.9999 108.011 67.4988 108.011 53.2915H133.506Z" fill="#B5B9FF"/>
<path d="M133.506 53.2917H108.011C108.011 48.6175 109.262 44.22 111.427 40.4375L133.506 53.2917Z" fill="#D9DAFF"/>
<path d="M133.262 53.7221L108.957 39.5763L109.201 39.1458C111.671 34.8405 115.239 31.2733 119.508 28.7825C123.625 26.3838 128.413 25 133.506 25H133.994V54.1219L133.262 53.7221ZM110.268 39.2073L133.018 52.4613V25.9841C128.26 26.0763 123.808 27.3679 119.966 29.6128C116.001 31.9191 112.647 35.2403 110.268 39.2073Z" fill="white"/>
<path d="M118.349 35.794L109.567 30.6892H75.5032V29.8281H109.78L118.776 35.0559L118.349 35.794Z" fill="#EEEDFF"/>
<path d="M109.841 51.139L102.858 49.2631H75.4117V48.4021H102.98L110.055 50.3087L109.841 51.139Z" fill="#EEEDFF"/>
<path d="M116.184 70.1126L113.623 72.6958H74.8018V71.8655H113.287L115.605 69.5283L116.184 70.1126Z" fill="#EEEDFF"/>
<path d="M64.0673 27.2756H67.9402C68.1842 27.2756 68.3977 27.4909 68.3977 27.7369V31.6424C68.3977 31.8884 68.1842 32.1037 67.9402 32.1037H64.0673C63.8233 32.1037 63.6099 31.8884 63.6099 31.6424V27.7369C63.6099 27.4909 63.8233 27.2756 64.0673 27.2756Z" fill="#EEEDFF"/>
<path d="M69.5871 27.2756H73.46C73.704 27.2756 73.9174 27.4909 73.9174 27.7369V31.6424C73.9174 31.8884 73.704 32.1037 73.46 32.1037H69.5871C69.3431 32.1037 69.1296 31.8884 69.1296 31.6424V27.7369C69.1296 27.4909 69.3126 27.2756 69.5871 27.2756Z" fill="#EEEDFF"/>
<path d="M64.7687 46.7107H68.6416C68.8856 46.7107 69.0991 46.926 69.0991 47.172V51.0774C69.0991 51.3234 68.8856 51.5387 68.6416 51.5387H64.7687C64.5247 51.5387 64.3113 51.3234 64.3113 51.0774V47.172C64.3113 46.926 64.5247 46.7107 64.7687 46.7107Z" fill="#D9DAFF"/>
<path d="M63.4574 69.344H67.3304C67.5743 69.344 67.7878 69.5593 67.7878 69.8053V73.7107C67.7878 73.9567 67.5743 74.172 67.3304 74.172H63.4574C63.2135 74.172 63 73.9567 63 73.7107V69.8053C63 69.5593 63.2135 69.344 63.4574 69.344Z" fill="#B5B9FF"/>
<path d="M68.9771 69.344H72.85C73.094 69.344 73.3075 69.5593 73.3075 69.8053V73.7107C73.3075 73.9567 73.094 74.172 72.85 74.172H68.9771C68.7331 74.172 68.5197 73.9567 68.5197 73.7107V69.8053C68.5197 69.5593 68.7026 69.344 68.9771 69.344Z" fill="#B5B9FF"/>
</g>
<g clip-path="url(#clip2)">
<path d="M72.2079 67.0566C75.576 66.9616 78.3773 69.6221 78.4727 73.0063C78.5484 75.6938 76.8794 78.032 74.5258 78.945C77.0229 81.365 78.6537 84.706 78.7603 88.4883C78.8473 91.5739 77.8871 94.44 76.2677 96.7768C76.3667 96.774 76.5153 96.7698 76.6144 96.767C84.0438 96.5576 90.2576 102.459 90.4681 109.924C90.6785 117.389 84.807 123.631 77.3775 123.841C69.948 124.05 63.7342 118.149 63.5238 110.684C63.4382 107.648 64.3503 104.833 65.9216 102.547C65.773 102.551 65.6245 102.556 65.4759 102.56C57.8964 102.724 51.6317 96.7739 51.4184 89.2092C51.2052 81.6445 57.1249 75.3513 64.6534 75.1391C65.2973 75.1209 65.9426 75.1525 66.5893 75.2339C66.3743 74.6423 66.2584 74.0479 66.2388 73.3511C66.1929 69.9655 68.8399 67.1515 72.2079 67.0566ZM94.7335 97.7007C96.6156 97.6477 98.1436 99.0989 98.1969 100.99C98.2502 102.881 96.8064 104.416 94.9242 104.469C93.0421 104.522 91.5141 103.071 91.4608 101.18C91.4075 99.2887 92.8513 97.7538 94.7335 97.7007ZM86.121 126.284C87.5078 126.245 88.6793 127.357 88.7185 128.751C88.7578 130.144 87.6509 131.321 86.264 131.36C84.8772 131.399 83.7058 130.287 83.6665 128.893C83.6272 127.5 84.7341 126.323 86.121 126.284Z" fill="#DBD9FF"/>
<path d="M120.825 47.357L109.365 50.5191C109.365 50.5191 91.8464 63.8632 73.412 90.4321L74.0573 113.325C88.5883 94.238 105.981 74.6715 123.064 63.4813L120.825 47.357Z" fill="#DBD9FF"/>
<path d="M169.952 0.000129866C169.952 0.000129866 171.272 20.4338 138.896 51.8286C138.896 51.8286 138.919 61.4408 137.475 62.9757C136.031 64.5106 127.723 72.2159 127.723 72.2159C127.723 72.2159 126.401 72.8011 126.023 71.716C125.646 70.6308 123.911 61.8638 123.911 61.8638L123.066 63.5313C123.066 63.5313 120.52 64.649 115.373 59.6639C115.373 59.6639 113.601 61.8556 111.668 61.8602C111.565 59.9705 113.641 58.0192 113.641 58.0192C108.398 53.1365 109.365 50.5192 109.365 50.5192L110.974 49.5773C110.974 49.5773 102.116 48.3328 101.066 48.0137C99.9666 47.6961 100.474 46.337 100.474 46.337C100.474 46.337 107.662 37.5675 109.106 36.0326C110.549 34.4976 120.102 33.9794 120.102 33.9794C149.423 -0.267947 169.952 0.000129866 169.952 0.000129866Z" fill="white"/>
<path d="M169.952 0.00018231C169.952 0.00018231 171.271 20.4339 138.895 51.8286C138.895 51.8286 138.918 61.4408 137.475 62.9758C136.031 64.5107 127.722 72.216 127.722 72.216C127.722 72.216 126.4 72.8011 126.023 71.716C125.645 70.6309 123.911 61.8638 123.911 61.8638L123.066 63.5313C123.066 63.5313 121.401 64.2755 118.064 61.929C145.976 49.7862 169.952 0.00018231 169.952 0.00018231Z" fill="#DBD9FF"/>
<path d="M124.228 60.809C122.025 60.0244 119.808 58.7421 117.827 57.0546C123.454 50.9191 131.683 40.377 131.683 40.377C126.117 45.166 119.563 51.8257 116.095 55.41C114.359 53.616 112.911 51.4653 111.951 49.0518L110.973 49.5277L109.363 50.4696C109.363 50.4696 108.396 53.0868 113.64 57.9696C113.64 57.9696 111.562 59.871 111.666 61.8106C113.549 61.8073 115.371 59.6142 115.371 59.6142C120.518 64.5993 123.064 63.4816 123.064 63.4816L123.91 61.8141L124.228 60.809Z" fill="#6DED02"/>
<path d="M124.228 60.8089L123.911 61.8638C123.911 61.8638 125.646 70.6806 126.023 71.7159C126.4 72.8011 127.722 72.2159 127.722 72.2159C127.722 72.2159 136.031 64.5106 137.475 62.9757C138.918 61.4407 138.895 51.8286 138.895 51.8286C136.098 54.597 125.928 61.3088 125.928 61.3088C125.329 61.1763 124.779 60.9926 124.228 60.8089Z" fill="#6DED02"/>
<path d="M111.362 47.5242C112.355 44.0595 120.052 33.9807 120.052 33.9807C120.052 33.9807 110.499 34.4989 109.056 36.0339C107.612 37.5688 100.424 46.3383 100.424 46.3383C100.424 46.3383 99.9167 47.6974 101.016 48.015C102.116 48.3327 110.925 49.5786 110.925 49.5786L111.902 49.1028C111.738 48.5595 111.525 48.0177 111.362 47.5242Z" fill="#6DED02"/>
<path d="M151.01 6.8097C155.701 13.2023 160.768 17.0939 164.247 19.1873C170.399 7.06012 169.952 5.15999e-05 169.952 5.15999e-05C169.952 5.15999e-05 162.861 -0.0989164 151.01 6.8097Z" fill="#6DED02"/>
<path d="M160.659 16.7483C161.976 17.7572 163.139 18.5711 164.198 19.1888C170.399 7.06019 169.952 0.000118322 169.952 0.000118322C169.952 0.000118322 166.486 7.17048 160.659 16.7483Z" fill="#2F70FE"/>
<path d="M142.548 35.4384C146.104 35.3381 148.905 32.3602 148.804 28.787C148.703 25.2138 145.739 22.3985 142.183 22.4987C138.627 22.5989 135.826 25.5768 135.926 29.15C136.027 32.7232 138.992 35.5386 142.548 35.4384Z" fill="#6DED02"/>
<path d="M142.514 34.2441C145.414 34.1624 147.698 31.7343 147.615 28.8207C147.533 25.9072 145.116 23.6116 142.217 23.6933C139.317 23.7751 137.033 26.2032 137.115 29.1167C137.197 32.0302 139.614 34.3259 142.514 34.2441Z" fill="white"/>
<path d="M145.386 25.3473C147.474 27.3306 147.568 30.665 145.596 32.8125C145.019 33.4265 144.289 33.8953 143.503 34.1665C144.488 33.9395 145.465 33.4139 146.187 32.6464C148.16 30.5487 148.066 27.2143 145.976 25.1813C144.499 23.7785 142.456 23.3878 140.64 24.0367C142.314 23.6408 144.062 24.0896 145.386 25.3473Z" fill="#DBD9FF"/>
<path d="M147.102 33.4674C144.648 36.0767 140.537 36.1926 137.939 33.7256C136.462 32.3228 135.813 30.3986 135.91 28.553C135.425 30.7084 136.085 33.0308 137.768 34.6768C140.365 37.1438 144.476 37.0279 146.931 34.4185C147.989 33.2929 148.594 31.8813 148.702 30.4338C148.484 31.4859 147.919 32.5478 147.102 33.4674Z" fill="#DBD9FF"/>
<path d="M119.753 58.5442L132.16 39.7159L130.813 41.1982C131.104 40.941 131.394 40.6838 131.684 40.4266C131.684 40.4266 123.454 50.9189 117.828 57.1042C118.437 57.5851 119.095 58.0646 119.753 58.5442Z" fill="#DBD9FF"/>
<path d="M116.787 34.2221L108.185 49.1079C109.778 49.3619 111.022 49.5261 111.022 49.5261L112 49.0502C111.788 48.5581 111.624 48.0149 111.46 47.4716C112.453 44.0069 120.149 33.9281 120.149 33.9281C120.149 33.9281 118.617 34.0709 116.787 34.2221Z" fill="#2F70FE"/>
<path d="M138.895 51.8285C136.098 54.5969 125.928 61.3088 125.928 61.3088C125.379 61.1748 124.828 60.9911 124.278 60.8074L123.96 61.8623C123.96 61.8623 124.366 63.9428 124.825 66.1712L138.868 54.3694C138.875 52.875 138.895 51.8285 138.895 51.8285Z" fill="#2F70FE"/>
<path d="M111.553 33.1741C111.553 33.1741 88.0511 52.3151 76.7184 70.5652C76.768 70.5638 85.4114 48.3551 111.553 33.1741Z" fill="white"/>
</g>
<path fill-rule="evenodd" clip-rule="evenodd" d="M121.785 234.549C134.802 237.978 157.167 239.13 185.647 238.952C212.079 238.971 222.67 241.689 222.273 246.463C219.207 253.866 175.507 257.652 100.505 257.809C38.5905 258.002 9.72717 253.564 1.38991 245.892C-11.2724 232.679 81.8658 224.209 121.785 234.549Z" fill="url(#paint0_linear)"/>
<path d="M111.51 15.0364C111.51 15.0364 122.394 13.5226 124.58 12.0087C124.58 12.0087 129.099 12.0087 129.487 14.1086C129.487 14.1086 126.864 17.2828 130.168 22.2638C130.168 22.2638 130.653 20.0663 132.646 19.8709L132.354 12.1064C132.354 12.1064 132.84 6.97889 128.321 4.92788C123.803 2.87688 113.891 4.63488 111.17 7.76023L110.15 10.7879H109.324C109.324 10.7391 108.109 14.5969 111.51 15.0364Z" fill="url(#paint1_linear)"/>
<path d="M129.536 14.0597C129.536 14.0597 126.912 17.2339 130.216 22.2149C130.216 22.2149 130.702 20.0174 132.694 19.822L132.403 12.5947C130.556 12.3505 129.536 14.0597 129.536 14.0597Z" fill="#4F4387"/>
<path d="M118.652 43.7016C118.772 43.8619 118.772 43.8619 118.772 43.8618L118.773 43.8615L118.774 43.8603L118.781 43.8556L118.805 43.837L118.902 43.7645C118.987 43.7009 119.111 43.6074 119.27 43.4876C119.587 43.2481 120.041 42.9035 120.589 42.4831C121.686 41.6424 123.158 40.4983 124.663 39.2853C126.167 38.0727 127.706 36.7894 128.934 35.6706C129.547 35.1113 130.085 34.5911 130.503 34.14C130.787 33.8333 131.023 33.5509 131.189 33.3051C131.732 34.1979 132.41 35.0533 133.122 35.8996C133.083 35.9563 133.031 36.0318 132.967 36.1254C132.81 36.3572 132.581 36.7006 132.295 37.1477C131.724 38.039 130.924 39.343 130.002 40.9993L123.161 49.1169L118.359 44.1486L118.238 44.0232L118.097 44.1263L115.209 46.241L115.675 42.8761L115.771 42.8761L115.79 42.6977L116.026 40.5235C116.189 40.7458 116.356 40.975 116.523 41.2049C117.289 42.2555 118.066 43.3227 118.5 43.8314L118.622 43.974L118.772 43.8619L118.652 43.7016Z" fill="white" stroke="black" stroke-width="0.4"/>
<path d="M123.171 49.4152L118.215 44.3365L114.814 46.827C113.454 48.3409 103.979 59.2308 103.202 68.6068C102.376 78.7154 103.202 99.5184 100.481 109.383C100.238 110.311 99.995 111.19 99.7521 112.069C101.355 112.801 103.639 113.631 106.068 113.827C109.664 114.071 120.013 113.485 124.92 113.143C122.394 104.695 119.576 92.8771 119.138 80.6687C118.555 64.4071 125.843 48.8781 130.216 41.1135L123.171 49.4152Z" fill="white"/>
<path d="M130.168 41.0645C125.795 48.8779 118.507 64.3581 119.09 80.6197C119.527 92.8281 122.345 104.646 124.872 113.094C125.989 116.757 127.009 119.784 127.835 121.933L130.751 121.542C130.751 121.542 130.751 121.542 130.799 121.493C132.111 120.419 133.326 119.296 134.443 118.026C144.306 106.795 144.841 89.0191 144.841 89.0191C136.63 54.8844 146.541 44.6782 146.541 44.6782C146.541 44.6782 138.33 41.1622 133.423 35.8394C133.374 35.8882 132.062 37.7927 130.168 41.0645Z" fill="#36336B"/>
<path d="M127.69 121.493C127.738 121.689 127.835 121.835 127.884 121.982L130.799 121.591C130.799 121.591 130.799 121.591 130.848 121.542C132.16 120.468 133.374 119.345 134.492 118.075C144.355 106.843 144.889 89.0679 144.889 89.0679C139.545 66.751 141.877 54.6891 144.161 48.9756C144.161 48.9756 136.144 59.6701 138.379 99.9578C138.33 99.9578 138.865 113.875 127.69 121.493Z" fill="#27254D"/>
<path d="M146.493 44.7271C146.493 44.7271 136.581 54.9333 144.792 89.0679C144.792 89.0679 144.258 106.843 134.395 118.075C137.213 119.882 141.926 122.519 146.104 123.203C148.339 120.126 150.671 116.708 151.303 115.194L159.951 95.1233C159.951 95.1233 155.044 61.4281 155.044 48.1454C155.093 48.1454 152.032 45.8991 146.493 44.7271Z" fill="#36336B"/>
<path d="M138.816 120.614C141.1 121.786 143.723 122.812 146.153 123.251C148.388 120.175 150.72 116.757 151.351 115.243L160 95.1722C160 95.1722 155.093 61.4771 155.093 48.1943C155.093 48.1943 153.586 47.12 150.817 46.0457C152.177 54.0055 153.392 64.7489 151.06 68.0696C147.222 73.5389 160.972 86.3821 155.287 93.463C151.254 98.4929 141.78 111.092 138.816 120.614Z" fill="#27254D"/>
<path d="M146.104 123.252C141.926 122.519 137.213 119.882 134.395 118.124C133.326 119.394 132.111 120.517 130.751 121.591C130.751 121.591 135.269 126.914 139.788 129.014L141.391 129.551C141.44 129.551 143.723 126.572 146.104 123.252Z" fill="white"/>
<path d="M101.064 63.284C101.064 63.284 98.829 81.1571 97.5171 85.9916C97.5171 85.9916 91.3952 104.793 92.7556 128.135L94.8934 127.988C94.8934 127.988 97.2742 120.81 99.7521 112.069C99.9951 111.19 100.238 110.311 100.481 109.383C103.202 99.5185 102.327 78.7154 103.202 68.6069C103.979 59.182 113.454 48.3409 114.814 46.8271C114.911 46.7294 114.96 46.6318 114.96 46.6318L115.494 42.7739C114.523 43.4088 106.117 48.9758 104.854 50.1966C104.028 51.0268 102.91 57.5705 101.064 63.284Z" fill="#36336B"/>
<path d="M97.5171 85.9915C98.8289 81.157 101.064 63.2839 101.064 63.2839C100.044 66.5069 98.7318 69.437 97.1284 71.0485C97.1284 71.0485 86.2449 71.2926 78.6167 65.8721C78.6167 65.8721 76.4789 68.4115 76.1388 73.8808L77.2563 79.1548C77.2563 79.2037 90.229 86.8705 97.5171 85.9915Z" fill="#36336B"/>
<path d="M97.5171 85.9915C98.8289 81.157 101.064 63.2839 101.064 63.2839C100.044 66.5069 98.7317 69.437 97.1284 71.0485C97.1284 71.0485 97.7114 78.1782 96.0594 82.036C96.0594 82.036 83.2811 79.8873 76.5275 75.5412L77.2563 79.1548C77.2563 79.2037 90.229 86.8705 97.5171 85.9915Z" fill="#27254D"/>
<path d="M77.9196 66.0356C77.899 66.067 77.8776 66.1 77.8555 66.1348C77.6369 66.4785 77.3467 66.9895 77.0473 67.6737C76.5284 68.8595 75.9832 70.5625 75.7334 72.8131L71.599 68.6577C71.7566 66.5528 72.5762 65.0603 73.3635 64.0865C73.7718 63.5814 74.172 63.2153 74.4674 62.9772C74.5161 62.9379 74.562 62.9022 74.6044 62.8699L74.7898 63.0748C75.7245 64.192 76.7792 65.191 77.9196 66.0356ZM74.934 62.6409C74.9342 62.6408 74.9342 62.6407 74.9341 62.6408L74.934 62.6409Z" fill="white" stroke="black"/>
<path d="M72.6343 63.4091C71.7751 64.4719 70.8934 66.0697 70.6728 68.2765C70.5601 68.2882 70.4444 68.3078 70.3296 68.3315C70.0036 68.3987 69.6275 68.5111 69.2587 68.6226L69.2408 68.628C68.4752 68.8595 67.7459 69.08 67.2113 69.0834C67.1583 69.0794 67.0539 69.0533 66.8899 68.9722C66.7248 68.8906 66.5321 68.77 66.3186 68.6158C65.8916 68.3074 65.4198 67.8929 64.9743 67.4693C64.5663 67.0812 64.1886 66.6932 63.8993 66.3869L64.58 66.2058L66.3611 67.0113L66.8178 67.2179L67.022 66.7633C67.0218 66.7638 67.0217 66.764 67.0218 66.7638L67.022 66.7633L67.0243 66.7586C67.0273 66.7524 67.0331 66.7409 67.0418 66.7246C67.0593 66.6919 67.0886 66.6401 67.1314 66.5728C67.2172 66.4382 67.3574 66.2423 67.5663 66.0157C67.983 65.5638 68.6778 64.985 69.7727 64.5265L70.0948 64.3916L70.079 64.0427L70.079 64.0427V64.0427L70.079 64.0425L70.0789 64.0415L70.0788 64.0372L70.078 64.0198L70.0752 63.9511C70.0729 63.891 70.0697 63.8035 70.0664 63.6943C70.0596 63.4757 70.0521 63.1713 70.0491 62.8279C70.0431 62.1344 70.0557 61.3061 70.1248 60.7039L70.1911 60.1264L69.6108 60.1472L69.6106 60.1472L69.6104 60.1472L69.6104 60.1472L69.6102 60.1472L69.6069 60.1473L69.5888 60.1477C69.572 60.148 69.546 60.1483 69.5118 60.1482C69.4435 60.1479 69.3433 60.146 69.2204 60.1393C68.9731 60.1257 68.641 60.0931 68.2948 60.0179C68.2035 59.9981 68.1142 59.976 68.0273 59.9515C68.7594 59.963 69.4836 59.9004 70.1066 59.818C70.6996 59.7396 71.2171 59.6409 71.5867 59.5617C71.6951 59.5385 71.7909 59.5169 71.8725 59.498L73.9989 62.0626C73.9635 62.09 73.9266 62.1191 73.8883 62.1499C73.5475 62.4246 73.0944 62.8399 72.6343 63.4091Z" fill="white" stroke="black"/>
<path d="M66.6805 60.4505C67.1176 60.725 67.6148 60.8824 68.0303 60.976C68.4076 61.0609 68.7637 61.1036 69.0376 61.1251C69.0102 61.5618 69.0004 62.0307 68.9993 62.4606L68.5202 62.3559L66.0056 61.8065L66.308 61.4688L66.3158 61.46L66.3233 61.4509L65.9355 61.1352C66.3233 61.4509 66.3234 61.4507 66.3236 61.4505L66.3239 61.4501L66.3245 61.4493L66.3259 61.4476L66.3293 61.4434L66.3377 61.4325C66.3442 61.424 66.3521 61.4133 66.3613 61.4005C66.3796 61.3747 66.4029 61.3399 66.4286 61.2969C66.4796 61.2114 66.5422 61.0897 66.5923 60.9386C66.6383 60.7998 66.6742 60.6345 66.6805 60.4505ZM68.8233 63.1307L69.0008 62.8767C69.004 63.2172 69.0115 63.5165 69.0183 63.7322C69.0185 63.7375 69.0186 63.7427 69.0188 63.7479C68.6272 63.9341 68.282 64.1349 67.979 64.3394L68.8233 63.1307ZM66.1098 65.8221L66.4595 65.7381C66.4095 65.8026 66.3649 65.8633 66.3253 65.9196L66.1098 65.8221Z" fill="white" stroke="black"/>
<path d="M66.8101 65.1395L68.4134 62.8443L65.0609 62.1118L63.5061 62.649L62.9717 66.1162L64.5751 65.6767L66.8101 65.1395Z" fill="white"/>
<path d="M62.578 60.4595L65.7296 60.4194C65.7268 60.4952 65.7116 60.5637 65.6917 60.6237C65.6843 60.6462 65.6762 60.6672 65.668 60.6866L63.0733 61.1833C62.9463 61.066 62.8227 60.9458 62.7191 60.8378C62.6425 60.7579 62.5821 60.6903 62.541 60.639C62.5325 60.6284 62.5257 60.6196 62.5203 60.6125C62.5277 60.5799 62.5434 60.5341 62.5693 60.478C62.5722 60.4718 62.5751 60.4657 62.578 60.4595ZM62.5158 60.6418C62.5157 60.6418 62.5157 60.6408 62.5159 60.6388C62.5159 60.6407 62.5158 60.6417 62.5158 60.6418Z" fill="white" stroke="black"/>
<path d="M99.7521 112.069C97.2741 120.81 94.8934 127.988 94.8934 127.988C94.8934 127.988 88.1398 153.87 87.9454 176.871C87.9454 176.871 100.675 196.306 98.6346 227.462C98.6346 227.462 104.125 233.518 113.211 230.685C113.211 230.685 114.328 187.858 106.506 176.968C106.506 176.968 108.352 164.369 113.114 160.121C113.114 160.121 114.474 175.455 119.381 183.121C119.381 183.121 127.204 212.275 120.402 231.662C120.402 231.662 120.402 232.101 120.304 232.785C123.803 235.422 132.062 235.666 132.062 235.666C132.062 235.666 146.979 200.311 133.229 173.55C133.229 173.55 131.868 148.84 139.01 132.676L136.484 132.969C134.152 135.069 132.014 135.997 132.014 135.997L126.135 126.426C126.135 126.426 126.086 126.426 122.394 126.963C118.701 127.5 119.478 125.302 119.478 125.302C121.373 125.107 126.572 122.177 126.572 122.177L127.884 121.982C127.107 119.833 126.038 116.805 124.92 113.143C120.061 113.485 109.664 114.071 106.068 113.827C103.59 113.631 101.307 112.801 99.7521 112.069Z" fill="#36336B"/>
<path d="M128.807 235.324C130.653 235.569 132.014 235.569 132.014 235.569C132.014 235.569 146.93 200.213 133.18 173.452C133.18 173.452 131.82 148.743 138.962 132.579L136.435 132.872C134.589 134.532 132.888 135.46 132.257 135.802C129.779 143.713 126.524 157.972 128.71 173.257C128.71 173.257 138.427 211.494 128.71 234.592C128.71 234.641 128.759 234.885 128.807 235.324Z" fill="#27254D"/>
<path d="M108.546 231.369C109.955 231.369 111.51 231.125 113.211 230.588C113.211 230.588 114.328 187.761 106.506 176.871C106.506 176.871 108.352 164.272 113.114 160.023C113.114 160.023 111.947 140.734 112.142 134.581C112.142 134.581 99.8979 154.7 101.987 175.113C101.939 175.161 108.886 208.417 108.546 231.369Z" fill="#27254D"/>
<path d="M132.014 235.569C132.014 235.569 123.754 235.325 120.256 232.688C119.964 234.446 118.75 237.815 114.377 239.573C113.405 241.722 110.247 244.017 110.247 244.017C110.247 244.017 104.805 245.433 104.465 247.484C104.173 249.584 104.125 249.828 104.125 249.828C104.125 249.828 122.248 253.539 127.981 247.679L128.175 248.217C128.175 248.217 132.403 248.412 133.471 246.752C133.471 246.752 134.832 239.231 132.014 235.569Z" fill="#36336B"/>
<path d="M132.014 235.569C132.014 235.569 130.653 235.52 128.807 235.325C127.641 235.178 126.329 234.983 125.017 234.641C123.22 234.201 121.47 233.567 120.304 232.688C120.207 233.225 120.013 233.908 119.721 234.641C119.624 234.836 119.527 235.08 119.43 235.276C119.527 235.373 119.624 235.422 119.721 235.52C121.47 236.838 124.386 238.206 129.293 238.596C129.585 241.233 129.876 244.847 129.633 248.217C130.945 248.119 132.84 247.826 133.471 246.8C133.471 246.752 134.832 239.231 132.014 235.569Z" fill="#27254D"/>
<path d="M114.377 239.573C114.523 238.108 113.211 230.636 113.211 230.636C104.125 233.469 98.6346 227.413 98.6346 227.413C98.6346 227.413 95.768 237.815 87.3624 238.645C78.9569 239.475 78.0337 238.987 77.3049 241.868C77.3049 241.868 90.0347 247.679 101.015 242.698C101.015 242.698 104.611 242.552 104.805 244.017L110.247 243.968C110.198 244.017 113.405 241.722 114.377 239.573Z" fill="#36336B"/>
<mask id="path-56-inside-1" fill="white">
<path fill-rule="evenodd" clip-rule="evenodd" d="M111.629 16.3061C111.622 16.3062 111.615 16.3062 111.607 16.3062L111.564 15.1342L111.559 15.0365C111.559 15.0365 111.559 15.0364 111.561 15.0363L111.559 14.9876C111.559 14.9876 117.535 14.1575 121.519 13.0831C122.928 12.6925 124.046 12.3018 124.629 11.9111C124.629 11.9111 125.795 11.9111 127.009 12.2041C128.176 12.4483 129.342 12.9855 129.536 14.011C129.536 14.011 129.527 14.0219 129.511 14.0434C129.521 14.0808 129.529 14.1188 129.536 14.1575C129.536 14.1575 128.571 15.3427 128.548 17.3754C128.563 18.6716 128.963 20.296 130.216 22.1662C130.135 22.0934 130.057 22.0208 129.981 21.9484C130.056 22.0687 130.134 22.1902 130.216 22.3127C130.216 22.3127 130.751 20.0664 132.694 19.9199C134.027 20.1877 134.019 21.6392 134.008 23.7891V23.7895V23.7899C134.007 23.9914 134.006 24.1991 134.006 24.4125C134.006 26.9031 131.188 28.5634 131.188 28.5634L131.188 32.1075C130.168 34.305 118.652 42.8997 118.652 42.8997C118.021 42.2161 116.806 40.5069 115.883 39.1884L116.178 36.7041C115.839 36.4314 114.974 35.7051 114.474 35.0094C113.842 34.1304 112.385 28.3192 112.385 28.3192L111.899 21.1895L111.629 16.3061ZM111.85 21.1406L112.336 28.2703C111.413 28.1238 110.49 22.5568 110.49 21.9708C110.49 21.3359 111.85 21.1406 111.85 21.1406Z"/>
</mask>
<path fill-rule="evenodd" clip-rule="evenodd" d="M111.629 16.3061C111.622 16.3062 111.615 16.3062 111.607 16.3062L111.564 15.1342L111.559 15.0365C111.559 15.0365 111.559 15.0364 111.561 15.0363L111.559 14.9876C111.559 14.9876 117.535 14.1575 121.519 13.0831C122.928 12.6925 124.046 12.3018 124.629 11.9111C124.629 11.9111 125.795 11.9111 127.009 12.2041C128.176 12.4483 129.342 12.9855 129.536 14.011C129.536 14.011 129.527 14.0219 129.511 14.0434C129.521 14.0808 129.529 14.1188 129.536 14.1575C129.536 14.1575 128.571 15.3427 128.548 17.3754C128.563 18.6716 128.963 20.296 130.216 22.1662C130.135 22.0934 130.057 22.0208 129.981 21.9484C130.056 22.0687 130.134 22.1902 130.216 22.3127C130.216 22.3127 130.751 20.0664 132.694 19.9199C134.027 20.1877 134.019 21.6392 134.008 23.7891V23.7895V23.7899C134.007 23.9914 134.006 24.1991 134.006 24.4125C134.006 26.9031 131.188 28.5634 131.188 28.5634L131.188 32.1075C130.168 34.305 118.652 42.8997 118.652 42.8997C118.021 42.2161 116.806 40.5069 115.883 39.1884L116.178 36.7041C115.839 36.4314 114.974 35.7051 114.474 35.0094C113.842 34.1304 112.385 28.3192 112.385 28.3192L111.899 21.1895L111.629 16.3061ZM111.85 21.1406L112.336 28.2703C111.413 28.1238 110.49 22.5568 110.49 21.9708C110.49 21.3359 111.85 21.1406 111.85 21.1406Z" fill="white"/>
<path d="M111.607 16.3062L110.608 16.343L110.644 17.3062H111.607V16.3062ZM111.629 16.3061L112.627 16.251L112.575 15.3056L111.628 15.3061L111.629 16.3061ZM111.564 15.1342L112.564 15.0974L112.563 15.0882L112.563 15.079L111.564 15.1342ZM111.559 15.0365L111.421 14.046L110.51 14.1728L110.56 15.0917L111.559 15.0365ZM111.561 15.0363L111.699 16.0267L112.593 15.9019L112.56 14.9994L111.561 15.0363ZM111.559 14.9876L111.421 13.9972L110.526 14.1215L110.559 15.0245L111.559 14.9876ZM121.519 13.0831L121.779 14.0487L121.786 14.0468L121.519 13.0831ZM124.629 11.9111V10.9111H124.325L124.072 11.0804L124.629 11.9111ZM127.009 12.2041L126.775 13.1763L126.79 13.1798L126.805 13.1829L127.009 12.2041ZM129.536 14.011L130.311 14.6423L130.605 14.2817L130.518 13.8248L129.536 14.011ZM129.511 14.0434L128.71 13.445L128.423 13.8291L128.543 14.2933L129.511 14.0434ZM129.536 14.1575L130.311 14.7888L130.602 14.4321L130.52 13.9795L129.536 14.1575ZM128.548 17.3754L127.548 17.3642L127.548 17.3754L127.548 17.3866L128.548 17.3754ZM130.216 22.1662L129.547 22.9093L131.047 21.6096L130.216 22.1662ZM129.981 21.9484L130.67 21.224L129.132 22.4766L129.981 21.9484ZM130.216 22.3127L129.385 22.8692L130.659 24.7709L131.189 22.5442L130.216 22.3127ZM132.694 19.9199L132.891 18.9395L132.756 18.9123L132.619 18.9227L132.694 19.9199ZM134.008 23.7891L133.008 23.784V23.7891H134.008ZM134.008 23.7899L135.008 23.7951V23.7899H134.008ZM131.188 28.5634L130.68 27.7018L130.188 27.9919L130.188 28.5634L131.188 28.5634ZM131.188 32.1075L132.095 32.5286L132.188 32.3283V32.1075L131.188 32.1075ZM118.652 42.8997L117.918 43.5783L118.529 44.2397L119.251 43.7011L118.652 42.8997ZM115.883 39.1884L114.89 39.0704L114.845 39.4493L115.064 39.7619L115.883 39.1884ZM116.178 36.7041L117.171 36.822L117.237 36.2719L116.805 35.9248L116.178 36.7041ZM114.474 35.0094L113.662 35.593H113.662L114.474 35.0094ZM112.385 28.3192L111.387 28.3872L111.393 28.4761L111.415 28.5625L112.385 28.3192ZM111.899 21.1895L110.9 21.2447L110.901 21.2575L111.899 21.1895ZM112.336 28.2703L112.179 29.2579L113.419 29.4547L113.334 28.2023L112.336 28.2703ZM111.85 21.1406L112.848 21.0726L112.775 19.9976L111.708 20.1507L111.85 21.1406ZM111.607 17.3062C111.615 17.3062 111.622 17.3062 111.629 17.3061L111.628 15.3061C111.621 15.3062 111.614 15.3062 111.607 15.3062V17.3062ZM110.565 15.1711L110.608 16.343L112.607 16.2693L112.564 15.0974L110.565 15.1711ZM110.56 15.0917L110.566 15.1894L112.563 15.079L112.557 14.9813L110.56 15.0917ZM111.422 14.0458C111.422 14.0459 111.422 14.046 111.421 14.046C111.421 14.046 111.421 14.046 111.421 14.046C111.421 14.046 111.421 14.046 111.421 14.046C111.421 14.046 111.421 14.046 111.421 14.046C111.421 14.046 111.421 14.046 111.421 14.046C111.421 14.046 111.421 14.046 111.421 14.046C111.421 14.046 111.421 14.046 111.421 14.046C111.421 14.046 111.421 14.046 111.421 14.046C111.421 14.046 111.421 14.046 111.421 14.046C111.421 14.046 111.421 14.046 111.559 15.0365C111.697 16.027 111.697 16.027 111.697 16.027C111.697 16.027 111.697 16.027 111.697 16.027C111.697 16.027 111.697 16.027 111.697 16.027C111.697 16.027 111.697 16.027 111.697 16.027C111.697 16.027 111.697 16.027 111.697 16.027C111.697 16.027 111.697 16.027 111.697 16.027C111.697 16.027 111.697 16.027 111.697 16.027C111.697 16.027 111.697 16.027 111.697 16.0269C111.697 16.0269 111.697 16.0269 111.697 16.0269C111.698 16.0268 111.698 16.0268 111.699 16.0267L111.422 14.0458ZM110.559 15.0245L110.561 15.0731L112.56 14.9994L112.558 14.9508L110.559 15.0245ZM121.259 12.1176C119.313 12.6423 116.86 13.1121 114.876 13.4527C113.887 13.6223 113.022 13.7586 112.405 13.8525C112.096 13.8994 111.849 13.9357 111.68 13.9602C111.595 13.9725 111.53 13.9818 111.487 13.988C111.465 13.9911 111.448 13.9934 111.437 13.9949C111.432 13.9957 111.428 13.9963 111.425 13.9966C111.424 13.9968 111.423 13.997 111.422 13.9971C111.422 13.9971 111.421 13.9971 111.421 13.9971C111.421 13.9972 111.421 13.9972 111.421 13.9972C111.421 13.9972 111.421 13.9972 111.559 14.9876C111.696 15.9781 111.696 15.9781 111.697 15.9781C111.697 15.9781 111.697 15.9781 111.697 15.9781C111.697 15.978 111.697 15.978 111.698 15.9779C111.699 15.9778 111.7 15.9777 111.701 15.9774C111.705 15.977 111.709 15.9764 111.715 15.9755C111.727 15.9739 111.744 15.9714 111.767 15.9682C111.813 15.9617 111.88 15.9521 111.967 15.9395C112.14 15.9144 112.391 15.8775 112.705 15.8298C113.332 15.7344 114.21 15.5961 115.214 15.4239C117.214 15.0807 119.741 14.5983 121.779 14.0487L121.259 12.1176ZM124.072 11.0804C123.643 11.3678 122.681 11.7234 121.252 12.1195L121.786 14.0468C123.176 13.6616 124.448 13.2358 125.185 12.7419L124.072 11.0804ZM127.244 11.232C126.571 11.0696 125.921 10.9904 125.446 10.9512C125.207 10.9314 125.007 10.9214 124.866 10.9163C124.795 10.9138 124.738 10.9125 124.698 10.9118C124.678 10.9115 124.662 10.9113 124.65 10.9112C124.644 10.9112 124.64 10.9112 124.636 10.9111C124.634 10.9111 124.633 10.9111 124.632 10.9111C124.631 10.9111 124.63 10.9111 124.63 10.9111C124.63 10.9111 124.629 10.9111 124.629 10.9111C124.629 10.9111 124.629 10.9111 124.629 10.9111C124.629 10.9111 124.629 10.9111 124.629 11.9111C124.629 12.9111 124.629 12.9111 124.628 12.9111C124.628 12.9111 124.628 12.9111 124.628 12.9111C124.628 12.9111 124.628 12.9111 124.628 12.9111C124.628 12.9111 124.628 12.9111 124.628 12.9111C124.627 12.9111 124.628 12.9111 124.628 12.9111C124.629 12.9111 124.631 12.9111 124.634 12.9112C124.64 12.9112 124.65 12.9113 124.664 12.9116C124.693 12.912 124.737 12.913 124.794 12.9151C124.909 12.9192 125.077 12.9275 125.281 12.9444C125.693 12.9784 126.234 13.0457 126.775 13.1763L127.244 11.232ZM130.518 13.8248C130.353 12.9527 129.78 12.3557 129.173 11.9703C128.573 11.5891 127.862 11.3609 127.214 11.2254L126.805 13.1829C127.323 13.2915 127.779 13.454 128.101 13.6588C128.417 13.8594 128.524 14.0438 128.553 14.1972L130.518 13.8248ZM130.312 14.6419C130.316 14.637 130.318 14.6345 130.318 14.6346C130.318 14.6346 130.317 14.6352 130.316 14.6365C130.316 14.6372 130.315 14.638 130.314 14.639C130.314 14.6394 130.313 14.64 130.313 14.6405C130.313 14.6408 130.312 14.6411 130.312 14.6414C130.312 14.6416 130.312 14.6417 130.312 14.6419C130.312 14.6419 130.312 14.642 130.312 14.6421C130.312 14.6421 130.312 14.6422 130.312 14.6422C130.312 14.6422 130.312 14.6423 130.312 14.6423C130.311 14.6423 130.311 14.6423 129.536 14.011C128.76 13.3796 128.76 13.3796 128.76 13.3797C128.76 13.3797 128.76 13.3797 128.76 13.3797C128.76 13.3798 128.76 13.3798 128.76 13.3798C128.76 13.3799 128.76 13.38 128.76 13.3801C128.76 13.3803 128.76 13.3804 128.76 13.3806C128.759 13.3809 128.759 13.3813 128.759 13.3817C128.758 13.3824 128.758 13.3832 128.757 13.384C128.756 13.3857 128.754 13.3875 128.753 13.3895C128.749 13.3935 128.746 13.3982 128.741 13.4037C128.733 13.4146 128.722 13.4284 128.71 13.445L130.312 14.6419ZM130.52 13.9795C130.509 13.9166 130.495 13.8546 130.479 13.7936L128.543 14.2933C128.546 14.3069 128.549 14.321 128.552 14.3355L130.52 13.9795ZM129.548 17.3866C129.558 16.5288 129.766 15.8583 129.965 15.4095C130.065 15.1849 130.161 15.0169 130.229 14.9108C130.262 14.8579 130.289 14.8208 130.304 14.8001C130.311 14.7898 130.316 14.7836 130.317 14.7817C130.318 14.7808 130.318 14.7809 130.317 14.782C130.316 14.7826 130.316 14.7835 130.315 14.7846C130.314 14.7852 130.314 14.7858 130.313 14.7865C130.313 14.7869 130.313 14.7872 130.312 14.7876C130.312 14.7878 130.312 14.7881 130.312 14.7882C130.312 14.7885 130.311 14.7888 129.536 14.1575C128.76 13.5262 128.76 13.5265 128.76 13.5268C128.76 13.5269 128.76 13.5273 128.759 13.5275C128.759 13.528 128.759 13.5284 128.758 13.5289C128.757 13.5299 128.757 13.531 128.756 13.5321C128.754 13.5344 128.752 13.537 128.749 13.5399C128.745 13.5457 128.739 13.5527 128.733 13.5609C128.72 13.5773 128.704 13.5986 128.685 13.6247C128.648 13.6768 128.598 13.7481 128.541 13.838C128.427 14.0177 128.281 14.2731 128.137 14.5988C127.847 15.2508 127.562 16.1893 127.548 17.3642L129.548 17.3866ZM131.047 21.6096C129.894 19.8878 129.56 18.4508 129.548 17.3642L127.548 17.3866C127.565 18.8924 128.033 20.7042 129.385 22.7227L131.047 21.6096ZM129.291 22.6727C129.374 22.7516 129.459 22.8305 129.547 22.9093L130.885 21.423C130.811 21.3563 130.74 21.29 130.67 21.224L129.291 22.6727ZM131.047 21.7562C130.971 21.6429 130.899 21.5309 130.83 21.4202L129.132 22.4766C129.213 22.6066 129.297 22.7375 129.385 22.8692L131.047 21.7562ZM132.619 18.9227C131.22 19.0281 130.359 19.9009 129.888 20.6266C129.65 20.992 129.493 21.3457 129.395 21.6058C129.345 21.7372 129.309 21.8484 129.285 21.93C129.272 21.9709 129.263 22.0047 129.256 22.0302C129.253 22.043 129.25 22.0537 129.248 22.0622C129.247 22.0665 129.246 22.0703 129.245 22.0734C129.245 22.075 129.244 22.0765 129.244 22.0778C129.244 22.0784 129.244 22.079 129.244 22.0796C129.244 22.0799 129.244 22.0803 129.244 22.0805C129.243 22.0809 129.243 22.0812 130.216 22.3127C131.189 22.5442 131.189 22.5445 131.189 22.5449C131.189 22.545 131.189 22.5454 131.189 22.5456C131.189 22.546 131.188 22.5465 131.188 22.5468C131.188 22.5476 131.188 22.5482 131.188 22.5487C131.188 22.5497 131.188 22.5502 131.188 22.5503C131.188 22.5503 131.188 22.5484 131.189 22.5447C131.191 22.5372 131.195 22.5226 131.201 22.5018C131.214 22.46 131.235 22.3945 131.265 22.313C131.328 22.1474 131.426 21.9303 131.565 21.7158C131.847 21.2818 132.225 20.9581 132.769 20.917L132.619 18.9227ZM135.008 23.7943C135.013 22.7704 135.026 21.7236 134.826 20.9102C134.721 20.4816 134.54 20.0372 134.207 19.6663C133.859 19.2803 133.409 19.0436 132.891 18.9395L132.497 20.9003C132.645 20.9301 132.694 20.9752 132.72 21.0039C132.759 21.0477 132.826 21.1508 132.884 21.3872C133.011 21.904 133.014 22.6579 133.008 23.784L135.008 23.7943ZM135.008 23.7895V23.7891H133.008V23.7895H135.008ZM135.008 23.7899V23.7895H133.008V23.7899H135.008ZM135.006 24.4125C135.006 24.2021 135.007 23.997 135.008 23.7951L133.008 23.7847C133.007 23.9859 133.006 24.1961 133.006 24.4125H135.006ZM131.188 28.5634C131.696 29.425 131.696 29.4248 131.696 29.4246C131.696 29.4246 131.697 29.4244 131.697 29.4242C131.697 29.424 131.698 29.4237 131.698 29.4234C131.699 29.4227 131.701 29.422 131.702 29.4211C131.705 29.4194 131.708 29.4173 131.713 29.4147C131.721 29.4097 131.732 29.4029 131.746 29.3946C131.773 29.3778 131.81 29.3545 131.855 29.3247C131.946 29.2654 132.072 29.18 132.221 29.0702C132.518 28.8519 132.915 28.5307 133.315 28.1181C134.093 27.3162 135.006 26.0395 135.006 24.4125H133.006C133.006 25.2761 132.51 26.0749 131.879 26.7257C131.575 27.0395 131.267 27.289 131.035 27.4599C130.92 27.5447 130.826 27.6085 130.763 27.6496C130.731 27.6702 130.708 27.6849 130.693 27.6937C130.686 27.6981 130.682 27.701 130.679 27.7024C130.678 27.703 130.678 27.7033 130.678 27.7033C130.678 27.7032 130.678 27.7031 130.679 27.7028C130.679 27.7027 130.679 27.7026 130.679 27.7024C130.679 27.7023 130.68 27.7022 130.68 27.7021C130.68 27.702 130.68 27.7018 131.188 28.5634ZM132.188 32.1075L132.188 28.5634L130.188 28.5634L130.188 32.1075L132.188 32.1075ZM118.652 42.8997C119.251 43.7011 119.251 43.7011 119.251 43.701C119.251 43.7009 119.251 43.7008 119.251 43.7006C119.252 43.7003 119.252 43.6999 119.253 43.6994C119.254 43.6983 119.257 43.6966 119.259 43.6945C119.265 43.6902 119.274 43.6839 119.285 43.6756C119.307 43.659 119.34 43.6345 119.382 43.6025C119.468 43.5384 119.593 43.4444 119.752 43.3241C120.07 43.0835 120.526 42.7377 121.076 42.316C122.176 41.4729 123.654 40.3246 125.165 39.1062C126.674 37.8897 128.227 36.5948 129.472 35.4599C130.094 34.8932 130.651 34.3561 131.09 33.8817C131.506 33.4329 131.895 32.9587 132.095 32.5286L130.281 31.6864C130.226 31.8057 130.032 32.0808 129.623 32.5226C129.237 32.9389 128.726 33.4338 128.125 33.9818C126.924 35.0765 125.407 36.3423 123.91 37.5491C122.415 38.7541 120.951 39.8919 119.859 40.7289C119.314 41.1473 118.862 41.4901 118.547 41.7281C118.389 41.8471 118.266 41.9399 118.182 42.0029C118.14 42.0343 118.108 42.0583 118.086 42.0744C118.076 42.0824 118.068 42.0885 118.062 42.0925C118.059 42.0945 118.057 42.096 118.056 42.097C118.056 42.0974 118.055 42.0978 118.055 42.098C118.055 42.0982 118.054 42.0982 118.054 42.0983C118.054 42.0983 118.054 42.0983 118.652 42.8997ZM115.064 39.7619C115.968 41.0526 117.229 42.8323 117.918 43.5783L119.387 42.2211C118.813 41.5998 117.645 39.9612 116.702 38.6148L115.064 39.7619ZM115.185 36.5861L114.89 39.0704L116.876 39.3063L117.171 36.822L115.185 36.5861ZM113.662 35.593C114.25 36.4111 115.214 37.212 115.552 37.4834L116.805 35.9248C116.464 35.6508 115.698 34.9992 115.286 34.4259L113.662 35.593ZM112.385 28.3192C111.415 28.5625 111.415 28.5626 111.415 28.5627C111.415 28.5627 111.415 28.5628 111.415 28.5629C111.415 28.5631 111.415 28.5634 111.415 28.5638C111.415 28.5646 111.416 28.5658 111.416 28.5672C111.417 28.5702 111.418 28.5746 111.419 28.5803C111.422 28.5916 111.426 28.6084 111.432 28.6301C111.443 28.6737 111.459 28.7373 111.48 28.8185C111.521 28.9808 111.581 29.2132 111.655 29.4947C111.803 30.0572 112.006 30.8179 112.23 31.6076C112.454 32.3952 112.7 33.2219 112.934 33.9129C113.05 34.2577 113.167 34.5797 113.279 34.8511C113.381 35.1006 113.51 35.3814 113.662 35.593L115.286 34.4259C115.291 34.432 115.275 34.4105 115.241 34.3426C115.21 34.2796 115.171 34.1952 115.127 34.0881C115.039 33.8734 114.938 33.5972 114.829 33.2736C114.611 32.6278 114.374 31.8369 114.155 31.0618C113.935 30.2888 113.735 29.5418 113.59 28.9872C113.517 28.7102 113.458 28.4817 113.417 28.3228C113.397 28.2433 113.381 28.1813 113.371 28.1393C113.365 28.1183 113.361 28.1023 113.359 28.0916C113.357 28.0863 113.356 28.0823 113.356 28.0796C113.355 28.0783 113.355 28.0774 113.355 28.0767C113.355 28.0764 113.355 28.0762 113.355 28.0761C113.355 28.076 113.355 28.076 113.355 28.0759C113.355 28.0759 113.355 28.0759 112.385 28.3192ZM110.901 21.2575L111.387 28.3872L113.382 28.2512L112.897 21.1215L110.901 21.2575ZM110.63 16.3613L110.9 21.2447L112.897 21.1343L112.627 16.251L110.63 16.3613ZM113.334 28.2023L112.848 21.0726L110.853 21.2086L111.338 28.3383L113.334 28.2023ZM109.49 21.9708C109.49 22.2169 109.565 22.7635 109.662 23.3459C109.766 23.9697 109.914 24.7465 110.093 25.5126C110.27 26.2706 110.485 27.0532 110.727 27.6717C110.847 27.9766 110.99 28.2867 111.164 28.5431C111.301 28.7447 111.624 29.1697 112.179 29.2579L112.493 27.2826C112.818 27.3342 112.91 27.5533 112.819 27.42C112.766 27.3416 112.686 27.1882 112.589 26.9415C112.399 26.4566 112.21 25.7834 112.041 25.0581C111.873 24.3408 111.733 23.6068 111.635 23.0175C111.586 22.723 111.548 22.4691 111.523 22.2751C111.495 22.0583 111.49 21.9696 111.49 21.9708H109.49ZM111.85 21.1406C111.708 20.1507 111.708 20.1508 111.708 20.1508C111.708 20.1508 111.707 20.1508 111.707 20.1509C111.707 20.1509 111.707 20.151 111.706 20.151C111.705 20.1511 111.705 20.1513 111.704 20.1514C111.702 20.1517 111.7 20.152 111.697 20.1524C111.692 20.1532 111.686 20.1541 111.678 20.1554C111.663 20.1578 111.642 20.1611 111.618 20.1655C111.569 20.1742 111.501 20.187 111.422 20.2047C111.266 20.2391 111.047 20.2955 110.817 20.3819C110.6 20.464 110.31 20.5963 110.058 20.8088C109.799 21.0268 109.49 21.4129 109.49 21.9708H111.49C111.49 22.2112 111.351 22.3348 111.347 22.3376C111.344 22.3404 111.355 22.3303 111.39 22.3118C111.424 22.2939 111.468 22.2739 111.523 22.2533C111.634 22.2115 111.755 22.1794 111.854 22.1574C111.902 22.1468 111.941 22.1394 111.966 22.1349C111.979 22.1327 111.988 22.1312 111.992 22.1305C111.995 22.1301 111.996 22.1299 111.996 22.1299C111.996 22.1299 111.996 22.13 111.995 22.1301C111.995 22.1301 111.994 22.1301 111.994 22.1302C111.994 22.1302 111.994 22.1303 111.993 22.1303C111.993 22.1303 111.993 22.1304 111.993 22.1304C111.993 22.1304 111.992 22.1304 111.85 21.1406Z" fill="black" mask="url(#path-56-inside-1)"/>
<path d="M126.961 47.2666C128.078 44.8737 129.196 42.7739 130.168 41.0647L126.961 44.8737L123.171 49.3664L121.519 47.6572L118.215 44.2877L114.814 46.7294L117.972 45.2644L121.519 48.4874L123.9 50.6849L126.475 48.2921C126.669 47.9991 126.815 47.6572 126.961 47.2666Z" fill="#0AC41E"/>
<path d="M101.744 116.561C103.105 116.952 104.708 117.391 106.554 117.733C110.49 118.466 115.543 118.905 121.519 118.368C123.074 118.222 124.677 118.026 126.378 117.782V117.733C125.941 116.366 125.406 114.803 124.92 113.143C123.948 113.192 122.782 113.289 121.519 113.338C121.276 113.338 120.985 113.387 120.693 113.387C115.494 113.68 108.789 114.022 106.068 113.827C105.291 113.778 104.562 113.68 103.882 113.485C102.279 113.143 100.87 112.557 99.7521 112.069C99.412 113.241 99.0719 114.413 98.7804 115.487C99.5578 115.829 100.578 116.171 101.744 116.561Z" fill="#27254D"/>
<path d="M113.162 230.636C111.51 231.174 109.955 231.369 108.498 231.418C102.23 231.467 98.586 227.462 98.586 227.462C98.586 227.462 98.3431 228.439 97.7114 229.806C99.6549 231.613 102.91 233.518 108.449 234.299C108.352 236.936 108.109 239.426 107.72 241.673C107.575 242.503 107.429 243.333 107.234 244.066H110.198C110.198 244.066 111.656 243.04 112.871 241.673C113.454 241.038 114.037 240.305 114.328 239.622C114.425 238.987 114.182 237.034 113.891 235.178C113.891 235.031 113.842 234.885 113.842 234.69C113.551 232.541 113.162 230.636 113.162 230.636Z" fill="#27254D"/>
<path d="M100.724 112.508C106.36 105.916 103.445 80.913 103.931 69.9254C103.979 68.5093 104.125 67.3373 104.319 66.4582C105.583 60.7936 111.85 51.3199 115.057 46.6807L114.863 46.7783L114.814 46.8272C113.454 48.341 103.979 59.2309 103.202 68.6069C103.202 68.6558 103.202 68.7046 103.202 68.8023C102.376 79.0085 103.202 99.5674 100.529 109.383C100.287 110.311 100.044 111.19 99.8007 112.069C100.044 112.215 100.384 112.362 100.724 112.508Z" fill="#0AC41E"/>
<path d="M77.645 65.1396C76.6246 66.4582 75.2642 68.8022 74.584 72.3182L76.1388 73.9297C76.4789 68.4603 78.6167 65.921 78.6167 65.921C78.2766 65.628 77.9851 65.3838 77.645 65.1396Z" fill="#EEEDFF"/>
<path d="M134.454 118.799C134.46 118.792 134.467 118.785 134.473 118.778L134.478 118.773C134.479 118.771 134.481 118.769 134.483 118.767C134.797 118.96 135.147 119.171 135.494 119.38L135.497 119.382L135.497 119.382L135.499 119.384C138.176 120.98 141.829 122.861 145.261 123.6C144.886 124.132 144.501 124.647 144.126 125.149C144.125 125.149 144.125 125.149 144.125 125.15C144.011 125.116 143.907 125.09 143.81 125.065C141.811 124.442 140.153 123.679 138.834 122.874C136.595 121.496 135.253 119.993 134.454 118.799Z" fill="#F3F2FF" stroke="black"/>
</g>
<defs>
<linearGradient id="paint0_linear" x1="115.454" y1="261.217" x2="114.899" y2="236.646" gradientUnits="userSpaceOnUse">
<stop stop-color="white" stop-opacity="0"/>
<stop offset="1" stop-color="#82A9FF" stop-opacity="0.21"/>
</linearGradient>
<linearGradient id="paint1_linear" x1="120.888" y1="10.1019" x2="120.888" y2="0.292938" gradientUnits="userSpaceOnUse">
<stop stop-color="#36336B"/>
<stop offset="1" stop-color="#4F4387"/>
</linearGradient>
<clipPath id="clip0">
<rect width="375" height="4594" fill="white" transform="translate(-79 -2760)"/>
</clipPath>
<clipPath id="clip1">
<rect width="96" height="54" fill="white" transform="translate(63 25)"/>
</clipPath>
<clipPath id="clip2">
<rect width="121" height="129" fill="white" transform="translate(49 3.40918) rotate(-1.61455)"/>
</clipPath>
</defs>
</svg>
