<svg width="338" height="227" viewBox="0 0 338 227" fill="none" xmlns="http://www.w3.org/2000/svg">
<rect width="338" height="227" fill="#E5E5E5"/>
<g clip-path="url(#clip0)">
<rect width="375" height="4594" transform="translate(-19 -2119)" fill="white"/>
<rect x="-19" y="-45" width="375" height="664" fill="white"/>
<path fill-rule="evenodd" clip-rule="evenodd" d="M152.723 191.662C132.987 197.202 98.9657 199.484 55.6054 199.877C15.3668 200.525 -0.691551 204.922 0.0227436 212.203C4.86407 223.436 71.4786 228.195 185.66 226.681C279.92 225.528 323.757 218.077 336.27 206.168C355.239 185.696 213.253 174.939 152.723 191.662Z" fill="url(#paint0_linear)"/>
<path opacity="0.1" d="M75.7807 37.0779H235.05V202.137H75.7807V37.0779Z" fill="#7BD53D"/>
<path d="M311.014 204.629V189.844H304.629L308.46 204.629H311.014Z" fill="#292678"/>
<path d="M286.439 204.629V189.844H293.141L289.118 204.629H286.439Z" fill="#292678"/>
<path d="M311.627 130.629C311.467 117.656 312.037 106.629 312.651 98.8143C312.963 94.8563 313.285 91.7221 313.53 89.5764C313.652 88.5035 313.756 87.6778 313.828 87.1196C313.852 86.9376 313.872 86.7841 313.889 86.6597L301.853 81.8616H292.08L279.156 88.3035L280.739 130.629H311.627Z" fill="white" stroke="black"/>
<path d="M297.714 98.2305L297.715 98.2321C297.969 99.2735 298.27 100.387 298.616 101.539L298.616 101.54C300.311 107.199 303.003 113.8 305.934 118.294C307.406 120.551 308.898 122.215 310.306 122.993C311.001 123.377 311.648 123.531 312.252 123.463C312.851 123.396 313.465 123.102 314.085 122.484L314.085 122.484C317.296 119.284 318.943 113.928 319.773 108.556C320.599 103.207 320.6 97.9548 320.6 95.0514C320.6 92.3549 319.054 90.3028 317.44 88.8958C316.637 88.1958 315.832 87.6691 315.227 87.3173C315.07 87.2258 314.926 87.1463 314.8 87.0789C314.244 90.0865 313.805 95.3137 313.5 99.9539C313.336 102.439 313.212 104.743 313.128 106.425C313.086 107.267 313.055 107.953 313.034 108.428C313.023 108.666 313.015 108.851 313.01 108.977L313.004 109.12L313.002 109.156L313.002 109.165L313.002 109.167L313.002 109.168C313.002 109.168 313.002 109.168 312.502 109.148L313.002 109.168L312.932 110.898L312.069 109.397L304.195 95.7141L304.195 95.7138L302.966 93.5751L297.11 95.3991C297.26 96.2611 297.463 97.2186 297.714 98.2305Z" fill="white" stroke="black"/>
<path d="M300.66 114.782L300.66 114.782L279.515 112.873L279.076 112.834L279.06 112.394L278.193 89.142C278.135 89.2028 278.075 89.2674 278.012 89.336C277.413 89.9893 276.587 91.0023 275.693 92.4267C273.907 95.2741 271.85 99.7725 270.817 106.339C269.783 112.913 270.841 116.754 273.018 118.969C275.211 121.2 278.674 121.925 282.805 121.925H300.705H300.715H300.726H300.736H300.746H300.757H300.767H300.777H300.787H300.798H300.808H300.818H300.828H300.839H300.849H300.859H300.869H300.879H300.889H300.899H300.91H300.92H300.93H300.94H300.95H300.96H300.97H300.98H300.99H301H301.01H301.02H301.03H301.039H301.049H301.059H301.069H301.079H301.089H301.099H301.108H301.118H301.128H301.138H301.147H301.157H301.167H301.176H301.186H301.196H301.205H301.215H301.225H301.234H301.244H301.253H301.263H301.272H301.282H301.291H301.301H301.31H301.32H301.329H301.339H301.348H301.357H301.367H301.376H301.386H301.395H301.404H301.413H301.423H301.432H301.441H301.451H301.46H301.469H301.478H301.487H301.496H301.506H301.515H301.524H301.533H301.542H301.551H301.56H301.569H301.578H301.587H301.596H301.605H301.614H301.623H301.632H301.641H301.649H301.658H301.667H301.676H301.685H301.694H301.702H301.711H301.72H301.729H301.737H301.746H301.755H301.763H301.772H301.78H301.789H301.798H301.806H301.815H301.823H301.832H301.84H301.849H301.857H301.866H301.874H301.883H301.891H301.899H301.908H301.916H301.924H301.933H301.941H301.949H301.958H301.966H301.974H301.982H301.99H301.999H302.007H302.015H302.023H302.031H302.039H302.047H302.055H302.063H302.071H302.079H302.087H302.095H302.103H302.111H302.119H302.127H302.135H302.143H302.15H302.158H302.166H302.174H302.182H302.189H302.197H302.205H302.212H302.22H302.228H302.235H302.243H302.251H302.258H302.266H302.273H302.281H302.288H302.296H302.303H302.311H302.318H302.326H302.333H302.34H302.348H302.355H302.362H302.37H302.377H302.384H302.392H302.399H302.406H302.413H302.42H302.427H302.435H302.442H302.449H302.456H302.463H302.47H302.477H302.484H302.491H302.498H302.505H302.512H302.519H302.526H302.532H302.539H302.546H302.553H302.56H302.567H302.573H302.58H302.587H302.593H302.6H302.607H302.613H302.62H302.627H302.633H302.64H302.646H302.653H302.659H302.666H302.672H302.679H302.685H302.691H302.698H302.704H302.711H302.717H302.723H302.729H302.736H302.742H302.748H302.754H302.761H302.767H302.773H302.779H302.785H302.791H302.797H302.803H302.809H302.815H302.821H302.827H302.833H302.839H302.845H302.851H302.857H302.863H302.868H302.874H302.88H302.886H302.891H302.897H302.903H302.909H302.914H302.92H302.925H302.931H302.937H302.942H302.948H302.953H302.959H302.964H302.97H302.975H302.98H302.986H302.991H302.997H303.002H303.007H303.012H303.018H303.023H303.028H303.033H303.038H303.044H303.049H303.054H303.059H303.064H303.069H303.074H303.079H303.084H303.089H303.094H303.099H303.104H303.109H303.114H303.118H303.121V115.004L300.66 114.782Z" fill="white" stroke="black"/>
<path d="M303.621 116.199C303.621 116.199 311.113 115.786 311.528 122.418H303.621V116.199Z" fill="#F9A28B"/>
<path d="M242.851 195L253.635 197.073L266.992 150.624C266.992 150.624 283.997 151.871 297.914 153.943C311.824 156.016 311.535 137.767 311.535 137.767V131.136H289.329C289.329 131.136 267.486 130.342 257.288 132.546C254.701 133.104 252.864 133.858 252.325 134.868C251.916 135.629 251.416 137.558 250.857 140.28C247.736 155.393 242.851 195 242.851 195Z" fill="#292678"/>
<path d="M267.407 144.819L277.394 183.803L268.658 188.362L254.918 163.894L267.407 144.819Z" fill="#292678"/>
<path d="M156.4 192.428L155.721 198.234H162.805L163.483 192.842L156.4 192.428Z" fill="#F9A28B"/>
<path d="M179.711 192.842V198.234H186.373L186.788 192.842H179.711Z" fill="#F9A28B"/>
<path d="M197.196 87.0815L188.039 194.914H178.467V104.504V87.0815H197.196Z" fill="#2F70FE"/>
<path d="M189.704 87.0815L181.798 100.358L164.313 194.914H153.075L166.393 87.0815H189.704Z" fill="#2F70FE"/>
<path d="M165.888 51.4476C166.606 59.2636 167.281 70.293 167.123 83.269H196.77L199.167 40.9403L186.249 34.5015H176.476L164.448 39.2964C164.467 39.4196 164.491 39.5708 164.518 39.7495C164.602 40.3079 164.721 41.134 164.864 42.2073C165.148 44.3537 165.524 47.4887 165.888 51.4476Z" fill="white" stroke="black"/>
<path d="M165.978 83.7688H198.026V87.5012H165.978V83.7688Z" fill="#6DED02"/>
<path d="M235.998 62.7261L237.631 62.3718C237.631 62.3718 239.895 59.9841 241.107 59.0199C242.324 58.0556 242.371 59.6037 240.712 61.5125C240.712 61.5125 245.135 58.5935 246.61 61.1846C248.236 64.0445 245.675 66.4781 239.922 66.4913L238.197 67.0619L235.998 62.7261Z" fill="#F9A28B"/>
<path d="M212.082 83.6921L212.082 83.692C212.299 83.6487 212.722 83.479 213.352 83.1621C213.965 82.8539 214.729 82.4306 215.609 81.9173C217.366 80.8914 219.563 79.5188 221.894 78.0205C226.553 75.0247 231.728 71.5378 234.953 69.3444L234.954 69.344C235.921 68.6886 236.711 68.148 237.261 67.7713C237.464 67.6315 237.635 67.5143 237.768 67.4221L235.223 61.9957L232.07 63.0991L232.068 63.0995L231.01 63.473L231.009 63.4733L213.168 69.7246L212.675 69.8973L212.524 69.3976L213.003 69.2527C212.524 69.3976 212.524 69.3975 212.524 69.3973L212.524 69.3965L212.523 69.3931L212.518 69.3792L212.502 69.3238C212.487 69.2747 212.464 69.2017 212.435 69.1061C212.376 68.9151 212.288 68.6342 212.175 68.2756C211.949 67.5583 211.62 66.5304 211.208 65.289C210.384 62.8054 209.229 59.47 207.907 56.0585C206.583 52.6443 205.096 49.1666 203.608 46.3931C202.864 45.0058 202.125 43.8069 201.414 42.8838C200.927 42.2516 200.47 41.7715 200.051 41.4467L195.234 69.1073C195.332 69.2216 195.475 69.3888 195.659 69.6009C196.03 70.0285 196.565 70.6388 197.219 71.3688C198.529 72.8294 200.317 74.7663 202.233 76.6758C204.152 78.588 206.187 80.4604 207.991 81.7995C208.895 82.4697 209.725 82.9949 210.443 83.3259C211.178 83.6642 211.72 83.7645 212.082 83.6921Z" fill="white" stroke="black"/>
<path d="M231.91 62.6208L235.234 69.7511C237.17 68.4392 238.401 67.5864 238.401 67.5864L235.484 61.3679L231.91 62.6208Z" fill="#228652"/>
<path d="M128.381 60.6531L126.748 60.2989C126.748 60.2989 124.484 57.9112 123.272 56.9469C122.055 55.9826 122.008 57.5307 123.667 59.4395C123.667 59.4395 119.243 56.5205 117.769 59.1116C116.143 61.9715 118.704 64.4052 124.457 64.4183L126.182 64.989L128.381 60.6531Z" fill="#F9A28B"/>
<path d="M125.978 65.5202C125.978 65.5202 127.209 66.3729 129.145 67.6849L125.978 65.5202ZM125.978 65.5202L128.895 59.3017L125.978 65.5202ZM164.329 39.3737C163.909 39.6985 163.452 40.1786 162.965 40.8108C162.254 41.7339 161.516 42.9328 160.771 44.3201C159.283 47.0936 157.796 50.5713 156.472 53.9855C155.15 57.397 153.995 60.7325 153.171 63.216C152.759 64.4575 152.43 65.4854 152.204 66.2026C152.091 66.5612 152.003 66.8421 151.944 67.0332C151.915 67.1287 151.893 67.2017 151.878 67.2508L151.861 67.3063L151.857 67.3201L151.855 67.3236L151.855 67.3244C151.855 67.3245 151.855 67.3246 151.377 67.1798L151.855 67.3246L151.704 67.8243L151.211 67.6516L133.371 61.4004L133.37 61.4L132.311 61.0265L132.31 61.0261L129.156 59.9227L126.611 65.3492C126.745 65.4413 126.915 65.5585 127.119 65.6983C127.668 66.075 128.459 66.6156 129.425 67.271L129.426 67.2714C132.651 69.4649 137.826 72.9517 142.486 75.9475C144.816 77.4458 147.013 78.8184 148.771 79.8444C149.65 80.3576 150.414 80.7809 151.027 81.0891C151.657 81.406 152.08 81.5757 152.297 81.619L152.298 81.6191C152.659 81.6915 153.202 81.5913 153.936 81.2529C154.654 80.9219 155.485 80.3968 156.388 79.7265C158.193 78.3874 160.227 76.515 162.146 74.6028C164.062 72.6933 165.85 70.7564 167.16 69.2958C167.815 68.5658 168.349 67.9555 168.72 67.5279C168.904 67.3158 169.047 67.1487 169.145 67.0343L164.329 39.3737Z" fill="white" stroke="black"/>
<path d="M132.469 60.5483L129.145 67.6786C127.209 66.3667 125.978 65.5139 125.978 65.5139L128.895 59.2954L132.469 60.5483Z" fill="#228652"/>
<path d="M180.225 21.2368L178.164 33.8968L183.161 37.6423L186.09 34.9988L186.307 23.9918L180.225 21.2368Z" fill="#F9A28B"/>
<path d="M177.295 15.6282C177.295 15.6282 175.991 32.2502 189.349 30.7087C202.706 29.1672 192.39 9.46216 192.39 9.46216L179.25 11.7711L177.295 15.6282Z" fill="#F9A28B"/>
<path d="M179.033 18.1604C179.033 18.1604 175.557 13.5359 172.41 15.9564C169.263 18.3769 171.541 25.3103 175.774 24.5429C180.007 23.7754 180.988 22.4504 180.988 22.4504L179.033 18.1604Z" fill="#F9A28B"/>
<path d="M179.902 22.3387L181.64 14.6312C181.64 14.6312 196.623 15.6217 200.422 11.8761C204.221 8.13061 205.524 2.29914 203.246 1.63662C200.968 0.974104 194.563 7.14012 194.563 7.14012C194.563 7.14012 195.32 -1.77436 192.39 0.318146C189.461 2.41065 189.244 6.04466 189.244 6.04466C189.244 6.04466 177.841 6.59567 177.084 8.79969C176.327 11.0037 176.979 11.5547 176.979 11.5547C176.979 11.5547 174.701 10.6757 174.372 11.7777C174.036 12.8732 179.902 22.3387 179.902 22.3387Z" fill="black"/>
<path d="M186.235 30.4857L180.646 27.1731L185.965 34.4608L186.235 30.4857Z" fill="#F9A28B"/>
<path d="M196.215 23.5846C196.215 23.5846 192.838 19.6489 187.117 21.8201C181.39 23.9913 180.442 18.6978 180.442 18.6978L179.415 22.5679C179.415 22.5679 178.533 25.4869 180.001 28.137C181.469 30.7871 187.927 33.8373 187.927 33.8373C187.927 33.8373 197.973 32.6172 196.215 23.5846Z" fill="black"/>
<path d="M275.906 184.596L277.078 187.778L271.758 190.323L270.323 187.456L275.906 184.596Z" fill="#F9A28B"/>
<path d="M279.487 193.13L277.078 187.778L271.758 190.323L264.945 200.976L279.487 193.13Z" fill="#292678"/>
<path d="M272.555 193.288L268.829 192.068" stroke="#7BD53D" stroke-width="4" stroke-miterlimit="10"/>
<path d="M270.481 194.829L267.644 193.911" stroke="#7BD53D" stroke-width="4" stroke-miterlimit="10"/>
<path d="M251.864 196.627L250.797 200.018L244.945 198.752L245.478 195.354L251.864 196.627Z" fill="#F9A28B"/>
<path d="M250.797 200.019L249.342 205.64L234.662 201.75L244.945 198.753L250.797 200.019Z" fill="#292678"/>
<path d="M242.963 198.148L243.246 200.975" stroke="#7BD53D" stroke-width="4" stroke-miterlimit="10"/>
<path d="M240.903 198.857L241.047 201.185" stroke="#7BD53D" stroke-width="4" stroke-miterlimit="10"/>
<path d="M179.711 196.961L179.138 203.547L195.3 204.21L186.051 197.525L179.711 196.961Z" fill="#292678"/>
<path d="M188.263 197.533L186.959 200.511" stroke="#7BD53D" stroke-width="4" stroke-miterlimit="10"/>
<path d="M190.08 198.981L189.092 201.468" stroke="#7BD53D" stroke-width="4" stroke-miterlimit="10"/>
<path d="M162.548 196.587L163.464 204.275L147.137 204.085L156.156 196.869L162.548 196.587Z" fill="#292678"/>
<path d="M153.918 196.751L155.392 200.281" stroke="#7BD53D" stroke-width="4" stroke-miterlimit="10"/>
<path d="M152.153 198.326L153.279 201.271" stroke="#7BD53D" stroke-width="4" stroke-miterlimit="10"/>
<path d="M267.927 150.093L260.264 173.412L263.674 178.929L267.927 150.093Z" fill="#1A1A56"/>
<path d="M186.538 99.8464L180.159 104.3L178.243 118.449L178.881 134.192L181.429 105.888L186.538 99.8464Z" fill="#1A1A56"/>
<path d="M281.594 190.802H316.814C317.841 190.802 318.677 189.975 318.677 188.945V157.407C318.677 154.77 316.531 152.632 313.885 152.632H284.53C281.883 152.632 279.737 154.77 279.737 157.407V188.945C279.737 189.969 280.567 190.802 281.594 190.802Z" fill="#7BD53D"/>
<path d="M188.559 35.0772L183.345 40.3773L175.471 34.4409" stroke="#228652" stroke-width="4" stroke-miterlimit="10"/>
<path d="M301.785 58.8096C301.785 58.8096 303.911 58.1012 304.978 60.5086C306.044 62.9094 303.845 68.5638 303.845 68.5638L301.153 65.6644L301.508 58.8818L301.785 58.8096Z" fill="black"/>
<path d="M295.809 85.6674L300.359 82.3407L298.402 70.6198L293.055 72.9803L293.268 83.4341L295.809 85.6674Z" fill="white" stroke="black"/>
<mask id="path-50-inside-1" fill="white">
<path fill-rule="evenodd" clip-rule="evenodd" d="M301.83 65.0743C301.821 64.5801 301.798 64.2937 301.798 64.2937L299.79 60.4367L286.314 58.1277C286.314 58.1277 275.735 77.8326 289.434 79.3741C296.197 80.1351 299.296 76.4698 300.7 72.5629C301.402 72.7931 302.274 73.0177 303.352 73.208C307.697 73.9755 310.04 67.042 306.808 64.6215C305.033 63.2926 303.159 64.0873 301.83 65.0743Z"/>
</mask>
<path fill-rule="evenodd" clip-rule="evenodd" d="M301.83 65.0743C301.821 64.5801 301.798 64.2937 301.798 64.2937L299.79 60.4367L286.314 58.1277C286.314 58.1277 275.735 77.8326 289.434 79.3741C296.197 80.1351 299.296 76.4698 300.7 72.5629C301.402 72.7931 302.274 73.0177 303.352 73.208C307.697 73.9755 310.04 67.042 306.808 64.6215C305.033 63.2926 303.159 64.0873 301.83 65.0743Z" fill="white"/>
<path d="M301.798 64.2937L302.685 63.8319L302.778 64.0116L302.795 64.2135L301.798 64.2937ZM301.83 65.0743L302.426 65.8772L300.866 67.036L300.83 65.0926L301.83 65.0743ZM299.79 60.4367L299.959 59.451L300.448 59.5348L300.677 59.9749L299.79 60.4367ZM286.314 58.1277L285.433 57.6547L285.773 57.0205L286.483 57.142L286.314 58.1277ZM289.434 79.3741L289.546 78.3804L289.434 79.3741ZM300.7 72.5629L299.759 72.2246L300.088 71.3097L301.012 71.6127L300.7 72.5629ZM303.352 73.208L303.525 72.2233L303.352 73.208ZM306.808 64.6215L306.208 65.422L306.808 64.6215ZM301.798 64.2937C302.795 64.2135 302.795 64.2136 302.795 64.2136C302.795 64.2137 302.795 64.2137 302.795 64.2138C302.795 64.2138 302.795 64.2139 302.795 64.214C302.795 64.2142 302.795 64.2144 302.795 64.2146C302.795 64.215 302.795 64.2155 302.795 64.216C302.795 64.2171 302.795 64.2185 302.795 64.2202C302.795 64.2236 302.796 64.228 302.796 64.2336C302.797 64.2447 302.798 64.2601 302.799 64.2798C302.802 64.3191 302.805 64.3753 302.809 64.4471C302.817 64.5907 302.825 64.797 302.83 65.0561L300.83 65.0926C300.826 64.8574 300.818 64.6734 300.812 64.5502C300.809 64.4887 300.806 64.4423 300.804 64.4125C300.803 64.3976 300.802 64.3868 300.802 64.3803C300.801 64.3771 300.801 64.3749 300.801 64.3738C300.801 64.3733 300.801 64.373 300.801 64.373C300.801 64.373 300.801 64.3731 300.801 64.3732C300.801 64.3733 300.801 64.3733 300.801 64.3735C300.801 64.3735 300.801 64.3736 300.801 64.3736C300.801 64.3736 300.801 64.3737 300.801 64.3737C300.801 64.3738 300.801 64.3738 301.798 64.2937ZM300.677 59.9749L302.685 63.8319L300.911 64.7554L298.903 60.8984L300.677 59.9749ZM286.483 57.142L299.959 59.451L299.621 61.4223L286.145 59.1133L286.483 57.142ZM289.323 80.3678C285.606 79.9497 283.359 78.2521 282.256 75.8165C281.196 73.476 281.274 70.6247 281.753 67.9936C282.237 65.3365 283.16 62.752 283.952 60.8469C284.349 59.8906 284.717 59.0973 284.986 58.5414C285.121 58.2633 285.231 58.0442 285.309 57.8934C285.347 57.8179 285.378 57.7596 285.399 57.7194C285.409 57.6993 285.417 57.6838 285.423 57.673C285.426 57.6675 285.428 57.6633 285.43 57.6602C285.431 57.6587 285.431 57.6575 285.432 57.6566C285.432 57.6561 285.432 57.6556 285.433 57.6554C285.433 57.655 285.433 57.6547 286.314 58.1277C287.195 58.6007 287.195 58.6005 287.195 58.6004C287.195 58.6005 287.195 58.6005 287.195 58.6006C287.195 58.6009 287.195 58.6015 287.194 58.6023C287.193 58.604 287.192 58.6069 287.19 58.611C287.185 58.6191 287.179 58.6319 287.169 58.6491C287.151 58.6836 287.124 58.7361 287.089 58.8054C287.018 58.944 286.914 59.1497 286.786 59.4134C286.53 59.9411 286.179 60.6993 285.798 61.6144C285.035 63.4521 284.169 65.8902 283.721 68.352C283.267 70.8399 283.269 73.2038 284.078 74.9915C284.845 76.6842 286.413 78.0278 289.546 78.3804L289.323 80.3678ZM301.641 72.9011C300.897 74.9719 299.675 77.0617 297.666 78.5269C295.638 80.0064 292.912 80.7717 289.323 80.3678L289.546 78.3804C292.72 78.7375 294.925 78.0506 296.488 76.911C298.07 75.757 299.099 74.0608 299.759 72.2246L301.641 72.9011ZM303.178 74.1928C302.059 73.9951 301.14 73.7596 300.389 73.5131L301.012 71.6127C301.664 71.8265 302.489 72.0403 303.525 72.2233L303.178 74.1928ZM307.407 63.8211C309.521 65.4042 309.665 68.2994 308.858 70.4603C308.042 72.6434 306.015 74.6939 303.178 74.1928L303.525 72.2233C305.033 72.4896 306.35 71.4571 306.984 69.7602C307.627 68.0411 307.327 66.2593 306.208 65.422L307.407 63.8211ZM301.234 64.2715C301.962 63.7304 302.906 63.1898 303.973 62.9956C305.078 62.7944 306.277 62.9751 307.407 63.8211L306.208 65.422C305.563 64.939 304.939 64.8526 304.331 64.9633C303.684 65.081 303.027 65.4312 302.426 65.8772L301.234 64.2715Z" fill="black" mask="url(#path-50-inside-1)"/>
<path d="M300.192 69.8694C300.192 69.8694 304.662 60.4367 303.279 56.4091C301.897 52.3815 295.195 56.3042 289.448 53.2277C289.448 53.2277 285.478 51.6731 283.207 54.5003C280.936 57.3275 283.49 62.2734 286.966 61.4994C290.442 60.7188 295.834 59.0264 296.893 60.8631C297.96 62.6998 299.448 63.054 299.448 63.054L300.192 69.8694Z" fill="black"/>
<path d="M302.351 93.543C302.351 93.543 302.153 91.1291 301.864 88.8332C301.574 86.5374 300.132 83.087 299.27 82.805C298.408 82.5163 298.408 84.2415 298.408 84.2415C298.408 84.2415 295.234 81.3684 294.082 81.3684C292.93 81.3684 296.676 86.2487 296.676 86.2487C296.676 86.2487 294.372 87.6853 294.945 89.1218C295.517 90.5584 298.434 94.7696 298.434 94.7696L302.351 93.543Z" fill="#F9A28B"/>
<path d="M240.718 61.5056L241.686 64.6542" stroke="#2F011C" stroke-width="4" stroke-miterlimit="10"/>
<path d="M247.361 60.6201L243.246 61.8271" stroke="#2F011C" stroke-width="4" stroke-miterlimit="10"/>
<path d="M247.361 62.8835L244.023 62.8113" stroke="#2F011C" stroke-width="4" stroke-miterlimit="10"/>
<path d="M247.216 64.9364L243.812 64.0181" stroke="#2F011C" stroke-width="4" stroke-miterlimit="10"/>
<path d="M307.288 119.565L311.686 121.539" stroke="#2F011C" stroke-width="4" stroke-miterlimit="10"/>
<path d="M308.21 118.292L310.481 119.066" stroke="#2F011C" stroke-width="4" stroke-miterlimit="10"/>
<path d="M117.703 58.0818L120.791 59.4593" stroke="#2F011C" stroke-width="4" stroke-miterlimit="10"/>
<path d="M116.801 59.5642L120.58 60.6203" stroke="#2F011C" stroke-width="4" stroke-miterlimit="10"/>
<path d="M116.907 61.5779L120.475 61.8932" stroke="#2F011C" stroke-width="4" stroke-miterlimit="10"/>
<path d="M176.696 20.5017C176.696 20.5017 176.432 17.3203 172.015 18.2256" stroke="black" stroke-width="4" stroke-miterlimit="10"/>
<path d="M174.023 20.5543C174.023 20.5543 174.306 18.9275 176.011 18.9996" stroke="black" stroke-width="4" stroke-miterlimit="10"/>
<path d="M85.3659 108.748H237.288V112.565H85.3659V108.748Z" fill="#CBCBCB"/>
<path d="M113.128 203.625L104.833 111.614" stroke="#228652" stroke-width="4" stroke-miterlimit="10"/>
<path d="M99.303 112.251L91.8507 202.78" stroke="#228652" stroke-width="4" stroke-miterlimit="10"/>
<path d="M111.429 185.39L93.1278 185.607" stroke="#228652" stroke-width="4" stroke-miterlimit="10"/>
<path d="M113.128 203.625L104.833 111.614" stroke="#979797" stroke-width="4" stroke-miterlimit="10"/>
<path d="M99.303 112.251L91.8507 202.78" stroke="#979797" stroke-width="4" stroke-miterlimit="10"/>
<path d="M111.429 185.39L93.1278 185.607" stroke="#228652" stroke-width="4" stroke-miterlimit="10"/>
<path d="M230.797 203.941L222.496 111.929" stroke="#979797" stroke-width="4" stroke-miterlimit="10"/>
<path d="M216.966 112.567L209.52 203.095" stroke="#979797" stroke-width="4" stroke-miterlimit="10"/>
<path d="M229.092 185.711L210.797 185.922" stroke="#228652" stroke-width="4" stroke-miterlimit="10"/>
<path d="M120.475 108.748C120.475 108.748 118.131 99.2103 110.685 99.6302C103.24 100.057 101.535 108.748 101.535 108.748H120.475Z" fill="#979797"/>
<path d="M115.287 77.8786L111.541 97.3081C111.475 97.6492 111.14 97.8722 110.797 97.8066C110.475 97.741 110.257 97.4458 110.297 97.1244L112.45 77.5834C112.489 77.2488 112.785 76.9996 113.121 77.0258L114.714 77.1373C115.09 77.1636 115.359 77.5112 115.287 77.8786Z" fill="#979797"/>
<path d="M115.932 75.6085C114.961 75.6085 114.174 74.8244 114.174 73.8571C114.174 72.8898 114.961 72.1057 115.932 72.1057C116.903 72.1057 117.69 72.8898 117.69 73.8571C117.69 74.8244 116.903 75.6085 115.932 75.6085Z" fill="#979797"/>
<path d="M132.673 85.3037L120.534 74.6969C120.224 74.428 119.757 74.4542 119.481 74.7559C119.211 75.0511 119.217 75.4972 119.494 75.7858L129.895 86.6222C130.06 86.7928 130.303 86.878 130.54 86.8452L132.278 86.6157C132.917 86.5369 133.167 85.7301 132.673 85.3037Z" fill="#979797"/>
<path d="M142.035 94.1988L130.145 97.5441C130.145 97.5441 126.07 89.1348 133.529 87.3834C140.672 85.691 142.035 94.1988 142.035 94.1988Z" fill="#979797"/>
<path d="M138.236 95.6242C138.226 95.5736 138.216 95.5279 138.206 95.488L134.216 96.6162C134.242 96.6566 134.272 96.7015 134.305 96.7497C134.449 96.958 134.66 97.2256 134.927 97.4682C135.462 97.954 136.192 98.3152 137.076 97.9619C137.533 97.7791 137.82 97.5241 138 97.2514C138.181 96.9767 138.261 96.6726 138.285 96.383C138.309 96.0929 138.276 95.823 138.236 95.6242Z" fill="white" stroke="black" stroke-width="0.4"/>
<path d="M318.638 164.268L318.499 186.21C318.486 188.591 316.564 190.526 314.174 190.559L296.426 190.821" stroke="#228652" stroke-width="4" stroke-miterlimit="10"/>
<path d="M312.64 154.416C312.64 154.416 316.735 157.112 317.683 160.536" stroke="#228652" stroke-width="4" stroke-miterlimit="10"/>
<path d="M99.6387 51.8044L97.3345 53.4443L94.2141 50.0071" fill="white"/>
<path d="M99.6387 51.8044L97.3345 53.4443L94.2141 50.0071" stroke="#7BD53D" stroke-miterlimit="10"/>
<path d="M69.2042 103.992C69.2042 103.992 73.5887 108.801 76.222 127.384C78.8553 145.967 75.9455 159.191 75.9455 159.191L70.3497 158.863C70.3563 158.863 71.0146 106.675 69.2042 103.992Z" fill="#6DED02"/>
<path d="M72.1666 114.107C72.1666 114.107 74.8 149.68 72.3312 163.127" stroke="#0AC41E" stroke-width="2" stroke-miterlimit="10"/>
<path d="M51.5544 112.356C51.5544 112.356 57.1107 115.754 64.8328 132.874C72.555 149.988 73.4635 163.494 73.4635 163.494L67.9994 164.734C67.9994 164.734 54.0429 114.429 51.5544 112.356Z" fill="#6DED02"/>
<path d="M57.2225 121.244C57.2225 121.244 69.6978 154.678 71.0803 168.276" stroke="#0AC41E" stroke-width="2" stroke-miterlimit="10"/>
<path d="M86.459 121.651C86.459 121.651 80.4484 126.046 75.7216 144.34C70.9949 162.635 73.8059 176.089 73.8059 176.089L81.0607 176.272C81.0607 176.272 83.9244 124.157 86.459 121.651Z" fill="#6DED02"/>
<path d="M81.9099 131.464C81.9099 131.464 75.9717 166.708 78.2035 180.346" stroke="#0AC41E" stroke-width="2" stroke-miterlimit="10"/>
<path d="M92.4365 137.827C92.4365 137.827 88.0323 139.617 82.2719 150.205C76.5116 160.792 76.1627 169.549 76.1627 169.549L80.6196 170.782C80.6196 170.782 90.4813 138.988 92.4365 137.827Z" fill="#6DED02"/>
<path d="M88.0981 143.199C88.0981 143.199 78.954 164.085 78.2167 172.862" stroke="#0AC41E" stroke-width="2" stroke-miterlimit="10"/>
<path d="M48.9211 140.759C48.9211 140.759 53.5425 140.614 60.9948 147.253C68.4471 153.891 70.2838 161.015 70.2838 161.015L66.1232 163.685C66.1232 163.685 51.0343 140.995 48.9211 140.759Z" fill="#6DED02"/>
<path d="M54.0889 143.599C54.0889 143.599 66.6103 157.519 68.8289 164.518" stroke="#0AC41E" stroke-width="2" stroke-miterlimit="10"/>
<path d="M85.6558 158.207L83.0224 202.143H65.2542L60.975 156.895L85.6558 158.207Z" fill="#979797"/>
<path d="M85.3266 165.744L61.7979 164.924L60.975 156.895L85.6558 158.207L85.3266 161.815" stroke="#002F7A" stroke-width="2" stroke-miterlimit="10"/>
</g>
<defs>
<linearGradient id="paint0_linear" x1="162.982" y1="232.235" x2="163.257" y2="194.702" gradientUnits="userSpaceOnUse">
<stop stop-color="white" stop-opacity="0"/>
<stop offset="1" stop-color="#82A9FF" stop-opacity="0.21"/>
</linearGradient>
<clipPath id="clip0">
<rect width="375" height="4594" fill="white" transform="translate(-19 -2119)"/>
</clipPath>
</defs>
</svg>
